M48
; DRILL file {KiCad 7.0.1} date Mon Dec 25 01:16:21 2023
; FORMAT={-:-/ absolute / inch / decimal}
; #@! TF.CreationDate,2023-12-25T01:16:21+01:00
; #@! TF.GenerationSoftware,Kicad,Pcbnew,7.0.1
; #@! TF.FileFunction,Plated,1,2,PTH
FMAT,2
INCH
; #@! TA.AperFunction,Plated,PTH,ViaDrill
T1C0.0157
; #@! TA.AperFunction,Plated,PTH,ComponentDrill
T2C0.0394
%
G90
G05
T1
X3.4331Y-3.622
X3.4409Y-3.2756
X3.5197Y-3.2756
X3.5197Y-3.622
X3.6142Y-2.4606
X3.6142Y-2.5118
X3.6142Y-2.5669
X3.6713Y-2.9724
X3.689Y-3.0079
X3.6929Y-2.4646
X3.6929Y-2.5315
X3.7008Y-3.5354
X3.7303Y-3.0217
X3.7894Y-3.0217
X3.8091Y-2.4114
X3.811Y-4.5551
X3.8228Y-2.4646
X3.8228Y-2.5315
X3.8346Y-3.0079
X3.8484Y-2.9724
X3.851Y-4.5451
X3.8661Y-3.5512
X3.8898Y-3.7638
X3.8957Y-4.3031
X3.8957Y-3.4311
X3.9016Y-4.5551
X3.9055Y-2.4606
X3.9055Y-2.5118
X3.9055Y-2.563
X3.9173Y-4.6772
X3.9213Y-4.5945
X3.9213Y-4.6339
X3.937Y-5.063
X3.937Y-5.1102
X3.9588Y-3.4097
X3.9665Y-4.3031
X3.9724Y-5.0433
X3.9724Y-5.0866
X3.9724Y-5.1321
X3.9764Y-3.4449
X3.9764Y-3.6614
X4.0472Y-3.4252
X4.0472Y-3.4724
X4.09Y-4.4801
X4.09Y-4.5431
X4.0954Y-3.3079
X4.0984Y-3.4724
X4.1063Y-3.5748
X4.119Y-3.052
X4.119Y-3.115
X4.124Y-2.4114
X4.124Y-4.1083
X4.1575Y-3.4724
X4.1575Y-3.5748
X4.1575Y-4.2874
X4.1741Y-2.9614
X4.2071Y-4.6337
X4.2087Y-3.8622
X4.2126Y-3.4724
X4.2126Y-3.5748
X4.2362Y-3.311
X4.2396Y-5.0484
X4.2623Y-4.4801
X4.2623Y-4.5431
X4.2677Y-3.4724
X4.2717Y-3.4252
X4.2859Y-4.2872
X4.2913Y-3.052
X4.2913Y-3.115
X4.3248Y-4.1791
X4.3386Y-3.4291
X4.3471Y-3.3907
X4.3504Y-3.878
X4.3926Y-4.0297
X4.3937Y-3.5276
X4.4094Y-2.4624
X4.4094Y-2.5079
X4.4094Y-2.5512
X4.4213Y-4.1772
X4.437Y-3.5039
X4.4409Y-4.5512
X4.4449Y-2.4843
X4.4449Y-2.5315
X4.4523Y-3.7485
X4.4606Y-2.9606
X4.4606Y-3.0
X4.4646Y-2.9173
X4.4685Y-3.4744
X4.4685Y-3.7126
X4.4803Y-3.0394
X4.4827Y-4.5455
X4.5079Y-4.0197
X4.5276Y-3.7165
X4.5279Y-3.0484
X4.5315Y-3.3937
X4.5315Y-4.5512
X4.5472Y-4.6732
X4.5512Y-4.5906
X4.5512Y-4.6299
X4.5669Y-5.063
X4.5669Y-5.1102
X4.5709Y-3.0394
X4.5925Y-3.5591
X4.5945Y-3.9173
X4.6024Y-5.0433
X4.6024Y-5.0866
X4.6024Y-5.1321
X4.6209Y-3.8201
X4.6233Y-3.5059
X4.6299Y-4.0472
X4.6457Y-4.0945
X4.6614Y-3.4961
X4.6965Y-3.8248
X4.7165Y-4.0709
X4.7177Y-4.1114
X4.7209Y-4.4805
X4.7209Y-4.5435
X4.7253Y-3.3079
X4.7402Y-3.6299
X4.7489Y-3.052
X4.7489Y-3.115
X4.7712Y-2.5392
X4.7795Y-3.6614
X4.804Y-2.9614
X4.838Y-4.6341
X4.8898Y-3.6969
X4.8917Y-5.1772
X4.8932Y-4.4805
X4.8932Y-4.5435
X4.9168Y-4.2876
X4.9212Y-3.052
X4.9212Y-3.115
X5.0295Y-3.3189
X5.0315Y-3.7638
X5.0394Y-2.4624
X5.0394Y-2.5079
X5.0394Y-2.5512
X5.0394Y-3.7126
X5.0748Y-2.4843
X5.0748Y-2.5315
X5.0906Y-2.9567
X5.0906Y-2.9961
X5.0906Y-5.0748
X5.0906Y-5.126
X5.0906Y-5.1772
X5.0945Y-2.9134
X5.0984Y-3.4921
X5.0984Y-3.5512
X5.1024Y-3.2835
X5.1071Y-3.3433
X5.1102Y-3.0354
X5.1457Y-4.6614
X5.1457Y-4.7283
X5.1457Y-4.7874
X5.1578Y-3.0484
X5.1732Y-5.1063
X5.1732Y-5.1732
X5.1745Y-3.3871
X5.1772Y-4.622
X5.2008Y-3.0354
X5.2205Y-2.4961
X5.2205Y-4.622
X5.2264Y-5.1083
X5.2638Y-4.4429
X5.2638Y-4.622
X5.2653Y-2.5434
X5.2795Y-2.4764
X5.2835Y-4.5472
X5.3031Y-5.1063
X5.3031Y-5.1732
X5.3189Y-4.7205
X5.3189Y-4.7638
X5.3189Y-4.811
X5.3504Y-2.7165
X5.3504Y-4.3228
X5.3504Y-4.6457
X5.3583Y-2.4094
X5.3819Y-5.0709
X5.3819Y-5.126
X5.3819Y-5.1772
X5.4016Y-3.5866
X5.4016Y-3.7598
X5.5591Y-3.5236
T2
X4.3184Y-5.1459
X4.4184Y-5.1459
X4.5924Y-2.4496
X4.6924Y-2.4496
X4.876Y-3.9626
X4.876Y-4.0626
X4.976Y-3.9626
X4.976Y-4.0626
X5.6654Y-2.4307
X5.6654Y-2.5307
X5.6654Y-2.6307
X5.6654Y-2.7307
X5.6654Y-2.8307
X5.6654Y-3.0189
X5.6654Y-3.1189
X5.6654Y-3.2189
X5.6654Y-4.3598
X5.6654Y-4.4598
X5.6654Y-4.5598
X5.6654Y-4.6598
X5.6654Y-4.7598
X5.6654Y-4.9535
X5.6654Y-5.0535
X5.6654Y-5.1535
X5.6732Y-3.6646
X5.6732Y-3.7646
X5.6732Y-3.8646
T2
G00X3.4941Y-3.7638
M15
G01X3.435Y-3.7638
M16
G05
G00X3.4941Y-4.1181
M15
G01X3.435Y-4.1181
M16
G05
G00X3.5039Y-3.9154
M15
G01X3.5039Y-3.9665
M16
G05
G00X3.7402Y-3.9016
M15
G01X3.7402Y-3.9803
M16
G05
T0
M30
