%TF.GenerationSoftware,KiCad,Pcbnew,7.0.1*%
%TF.CreationDate,2024-02-17T21:50:19+01:00*%
%TF.ProjectId,BallBalancer,42616c6c-4261-46c6-916e-6365722e6b69,rev?*%
%TF.SameCoordinates,Original*%
%TF.FileFunction,Copper,L2,Bot*%
%TF.FilePolarity,Positive*%
%FSLAX46Y46*%
G04 Gerber Fmt 4.6, Leading zero omitted, Abs format (unit mm)*
G04 Created by KiCad (PCBNEW 7.0.1) date 2024-02-17 21:50:19*
%MOMM*%
%LPD*%
G01*
G04 APERTURE LIST*
%TA.AperFunction,ComponentPad*%
%ADD10R,1.700000X1.700000*%
%TD*%
%TA.AperFunction,ComponentPad*%
%ADD11O,1.700000X1.700000*%
%TD*%
%TA.AperFunction,ComponentPad*%
%ADD12O,3.500000X2.000000*%
%TD*%
%TA.AperFunction,ComponentPad*%
%ADD13O,2.000000X3.300000*%
%TD*%
%TA.AperFunction,ComponentPad*%
%ADD14R,2.000000X4.000000*%
%TD*%
%TA.AperFunction,ViaPad*%
%ADD15C,0.800000*%
%TD*%
%TA.AperFunction,Conductor*%
%ADD16C,0.300000*%
%TD*%
%TA.AperFunction,Conductor*%
%ADD17C,0.800000*%
%TD*%
%TA.AperFunction,Conductor*%
%ADD18C,2.000000*%
%TD*%
%TA.AperFunction,Conductor*%
%ADD19C,0.500000*%
%TD*%
G04 APERTURE END LIST*
D10*
%TO.P,J4,1,Pin_1*%
%TO.N,+12V*%
X143900000Y-130900000D03*
D11*
%TO.P,J4,2,Pin_2*%
%TO.N,Net-(J4-Pin_2)*%
X143900000Y-128360000D03*
%TO.P,J4,3,Pin_3*%
%TO.N,GND*%
X143900000Y-125820000D03*
%TD*%
D10*
%TO.P,J7,1,Pin_1*%
%TO.N,+12V*%
X143900000Y-81760000D03*
D11*
%TO.P,J7,2,Pin_2*%
%TO.N,Net-(J7-Pin_2)*%
X143900000Y-79220000D03*
%TO.P,J7,3,Pin_3*%
%TO.N,GND*%
X143900000Y-76680000D03*
%TD*%
D10*
%TO.P,J5,1,Pin_1*%
%TO.N,/Main/ENCODER1_B_OUT*%
X143900000Y-110740000D03*
D11*
%TO.P,J5,2,Pin_2*%
%TO.N,+5V*%
X143900000Y-113280000D03*
%TO.P,J5,3,Pin_3*%
%TO.N,/Main/ENCODER1_A_OUT*%
X143900000Y-115820000D03*
%TO.P,J5,4,Pin_4*%
%TO.N,unconnected-(J5-Pin_4-Pad4)*%
X143900000Y-118360000D03*
%TO.P,J5,5,Pin_5*%
%TO.N,GND*%
X143900000Y-120900000D03*
%TD*%
D10*
%TO.P,J9,1,Pin_1*%
%TO.N,GND*%
X89410000Y-113640000D03*
%TD*%
%TO.P,J3,1,Pin_1*%
%TO.N,+3V3*%
X126390000Y-103190000D03*
D11*
%TO.P,J3,2,Pin_2*%
%TO.N,GND*%
X123850000Y-103190000D03*
%TO.P,J3,3,Pin_3*%
%TO.N,/Main/SWCLK*%
X126390000Y-100650000D03*
%TO.P,J3,4,Pin_4*%
%TO.N,/Main/SWDIO*%
X123850000Y-100650000D03*
%TD*%
D10*
%TO.P,M1,1,+*%
%TO.N,Net-(M1-+)*%
X109686451Y-130705292D03*
D11*
%TO.P,M1,2,-*%
%TO.N,Net-(M1--)*%
X112226451Y-130705292D03*
%TD*%
D10*
%TO.P,J6,1,Pin_1*%
%TO.N,/Main/ENCODER2_B_OUT*%
X143900000Y-61740000D03*
D11*
%TO.P,J6,2,Pin_2*%
%TO.N,+5V*%
X143900000Y-64280000D03*
%TO.P,J6,3,Pin_3*%
%TO.N,/Main/ENCODER2_A_OUT*%
X143900000Y-66820000D03*
%TO.P,J6,4,Pin_4*%
%TO.N,unconnected-(J6-Pin_4-Pad4)*%
X143900000Y-69360000D03*
%TO.P,J6,5,Pin_5*%
%TO.N,GND*%
X143900000Y-71900000D03*
%TD*%
D10*
%TO.P,M2,1,+*%
%TO.N,Net-(M2-+)*%
X119187500Y-62220000D03*
D11*
%TO.P,M2,2,-*%
%TO.N,Net-(M2--)*%
X116647500Y-62220000D03*
%TD*%
D12*
%TO.P,J8,MP*%
%TO.N,N/C*%
X88000000Y-104600000D03*
X88000000Y-95600000D03*
D13*
%TO.P,J8,2*%
%TO.N,GND*%
X89000000Y-100100000D03*
D14*
%TO.P,J8,1*%
%TO.N,+12V*%
X95000000Y-100100000D03*
%TD*%
D10*
%TO.P,J2,1,Pin_1*%
%TO.N,/Main/RSPI_TX*%
X144100000Y-93080000D03*
D11*
%TO.P,J2,2,Pin_2*%
%TO.N,/Main/RSPI_RX*%
X144100000Y-95620000D03*
%TO.P,J2,3,Pin_3*%
%TO.N,GND*%
X144100000Y-98160000D03*
%TD*%
D15*
%TO.N,GND*%
X129500000Y-90200000D03*
X129500000Y-88700000D03*
X112000000Y-64800000D03*
X108400000Y-88200000D03*
X129300000Y-76100000D03*
X119910410Y-115405292D03*
X105600000Y-108900000D03*
X99500000Y-118800000D03*
X111571177Y-102354230D03*
X116100000Y-77200000D03*
X116900000Y-129200000D03*
X99100000Y-115700000D03*
X93700000Y-76400000D03*
X136100000Y-61200000D03*
X127800000Y-95600000D03*
X107600000Y-84100500D03*
X128000000Y-64800000D03*
X114500000Y-102100000D03*
X129400000Y-74000000D03*
X97400000Y-76400000D03*
X115100000Y-86200000D03*
X133700000Y-117400000D03*
X110200000Y-87100000D03*
X100900000Y-129200000D03*
X128000000Y-62544708D03*
X128900000Y-63100000D03*
X113800000Y-77200000D03*
X93250000Y-75500000D03*
X97750000Y-75500000D03*
X115100000Y-115600000D03*
X137200000Y-91100000D03*
X87200000Y-92000000D03*
X116900000Y-128100000D03*
X131007500Y-77430000D03*
X104100000Y-88200000D03*
X135100000Y-121000000D03*
X135100000Y-119900000D03*
X105600000Y-88200000D03*
X116000000Y-128600000D03*
X105600000Y-90800000D03*
X112900000Y-64300000D03*
X107000000Y-88200000D03*
X113861451Y-115455292D03*
X115600000Y-116600000D03*
X99600000Y-116700000D03*
X128900000Y-64300000D03*
X89400000Y-92000000D03*
X124998541Y-79120000D03*
X113300000Y-76200000D03*
X112000000Y-63700000D03*
X104300000Y-90800000D03*
X101000000Y-87500000D03*
X100000000Y-128600000D03*
X99600000Y-117700000D03*
X135900000Y-69000000D03*
X135100000Y-122200000D03*
X128000000Y-63700000D03*
X130700000Y-118400000D03*
X130700000Y-121600000D03*
X100000000Y-129800000D03*
X100900000Y-130355292D03*
X129800000Y-77100000D03*
X124998541Y-77520000D03*
X94750000Y-76750000D03*
X131500000Y-117400000D03*
X112900000Y-63100000D03*
X129300000Y-75100000D03*
X104750000Y-104350000D03*
X112000000Y-62544708D03*
X115500000Y-118700000D03*
X116000000Y-129800000D03*
X108998541Y-79120000D03*
X87400000Y-83200000D03*
X100900000Y-128100000D03*
X108998541Y-77520000D03*
X112800000Y-115600000D03*
X132600000Y-117400000D03*
X102800000Y-88200000D03*
X115007500Y-77430000D03*
X102800000Y-87000000D03*
X119910410Y-113805292D03*
X97816451Y-115445292D03*
X113300000Y-75200000D03*
X137200000Y-95500000D03*
X124200000Y-93900000D03*
X96250000Y-76750000D03*
X112300000Y-106100000D03*
X116900000Y-130355292D03*
X113400000Y-74100000D03*
X96800000Y-115700000D03*
X130700000Y-120100000D03*
X108500000Y-87000000D03*
X107000000Y-90800000D03*
X109850000Y-106150000D03*
X135900000Y-118000000D03*
X132100000Y-77100000D03*
X89400000Y-83200000D03*
X103885410Y-115395292D03*
X115600000Y-117600000D03*
X98950500Y-87148816D03*
X134100000Y-62900000D03*
X103885410Y-113795292D03*
X135900000Y-109800000D03*
%TO.N,+3V3*%
X125300000Y-90340000D03*
X110500000Y-98500000D03*
X117930000Y-100780000D03*
X111530000Y-94030000D03*
X121830000Y-90360000D03*
%TO.N,+12V*%
X98800000Y-95600000D03*
X129300000Y-131500000D03*
X121187500Y-64495000D03*
X131400000Y-129700000D03*
X124286451Y-113805292D03*
X104622500Y-77520000D03*
X131400000Y-131400000D03*
X107686451Y-128230292D03*
X136700000Y-128800000D03*
X120622500Y-77520000D03*
X91800000Y-63800000D03*
X129300000Y-128900000D03*
X108261451Y-113795292D03*
X134700000Y-131400000D03*
X91800000Y-65200000D03*
X99200000Y-63800000D03*
X134700000Y-129700000D03*
X129300000Y-130200000D03*
X124286451Y-115405292D03*
X136700000Y-130200000D03*
X96750000Y-61250000D03*
X108261451Y-115395292D03*
X120622500Y-79120000D03*
X132600000Y-63400000D03*
X132750000Y-129750000D03*
X104750000Y-61250000D03*
X99200000Y-65100000D03*
X97100000Y-62600000D03*
X91800000Y-62500000D03*
X101000000Y-93000000D03*
X99200000Y-62500000D03*
X124250000Y-131500000D03*
X93800000Y-64300000D03*
X136700000Y-131500000D03*
X104622500Y-79120000D03*
X97100000Y-64300000D03*
X93800000Y-62600000D03*
%TO.N,VBUS*%
X100553009Y-86606018D03*
X106900000Y-98100000D03*
%TO.N,+5V*%
X141200000Y-89500000D03*
X129300000Y-85950000D03*
X111600000Y-88840000D03*
X133738019Y-64602027D03*
%TO.N,Net-(M1--)*%
X124886451Y-108905292D03*
X122886451Y-117705292D03*
%TO.N,Net-(M1-+)*%
X106861451Y-117695292D03*
X108861451Y-108895292D03*
%TO.N,Net-(M2-+)*%
X122022500Y-75220000D03*
X120166603Y-83876603D03*
%TO.N,Net-(M2--)*%
X106022500Y-75220000D03*
X104022500Y-84020000D03*
%TO.N,/Main/ENCODER1_A*%
X117443561Y-89923516D03*
X128460500Y-110650486D03*
%TO.N,/Main/ENCODER1_B*%
X129150500Y-111510000D03*
X118590000Y-90015946D03*
%TO.N,/Main/REF_MOT2*%
X135149500Y-82940000D03*
X133150500Y-83740000D03*
%TO.N,/Main/REF_MOT1*%
X134200000Y-115500000D03*
X129380000Y-96125500D03*
%TO.N,/Main/VUSB*%
X98200000Y-90200000D03*
X121680000Y-87600000D03*
%TO.N,IN_MOT_CH1L*%
X120470000Y-102730000D03*
X120397112Y-93028222D03*
%TO.N,IN_MOT_CH1R*%
X118898112Y-101360926D03*
X118090000Y-93030500D03*
%TO.N,EN_MOT_CH1L*%
X116839460Y-90719799D03*
X121370000Y-102280000D03*
%TO.N,EN_MOT_CH2R*%
X129600000Y-83400000D03*
X127750500Y-84300000D03*
%TO.N,EN_MOT_CH1R*%
X98950000Y-109300000D03*
X119647612Y-102054155D03*
X100750000Y-109300000D03*
X119237129Y-92777174D03*
%TD*%
D16*
%TO.N,+3V3*%
X111530000Y-94030000D02*
X111530000Y-90450000D01*
X112900000Y-89080000D02*
X121510000Y-89080000D01*
X126390000Y-103190000D02*
X126390000Y-104510000D01*
X121830000Y-89400000D02*
X121830000Y-90360000D01*
X117930000Y-103580000D02*
X117930000Y-100780000D01*
X121850000Y-90340000D02*
X121830000Y-90360000D01*
X125900000Y-105000000D02*
X119350000Y-105000000D01*
X110500000Y-100350000D02*
X110500000Y-98500000D01*
X111530000Y-90450000D02*
X112900000Y-89080000D01*
X126390000Y-104510000D02*
X125900000Y-105000000D01*
X110930000Y-100780000D02*
X110500000Y-100350000D01*
X125300000Y-90340000D02*
X121850000Y-90340000D01*
X117930000Y-100780000D02*
X110930000Y-100780000D01*
X121510000Y-89080000D02*
X121830000Y-89400000D01*
X119350000Y-105000000D02*
X117930000Y-103580000D01*
D17*
%TO.N,+12V*%
X108261451Y-115395292D02*
X108261451Y-113795292D01*
X104800000Y-85100000D02*
X105400000Y-84500000D01*
X98800000Y-95200000D02*
X101000000Y-93000000D01*
X131000000Y-131500000D02*
X132750000Y-129750000D01*
X98800000Y-95600000D02*
X98800000Y-95200000D01*
D18*
X91650000Y-83450000D02*
X91650000Y-79850000D01*
D17*
X115391945Y-131500000D02*
X112391946Y-128500000D01*
D18*
X131600000Y-133200000D02*
X132700000Y-132100000D01*
D17*
X132600000Y-63400000D02*
X132600000Y-69600000D01*
X132600000Y-69600000D02*
X134200000Y-71200000D01*
D18*
X132700000Y-132100000D02*
X132700000Y-129800000D01*
D17*
X107400000Y-108600000D02*
X107400000Y-112900000D01*
D18*
X95000000Y-100100000D02*
X95000000Y-97800000D01*
X91800000Y-83600000D02*
X91650000Y-83450000D01*
D17*
X121400000Y-79897500D02*
X120622500Y-79120000D01*
D18*
X91800000Y-94600000D02*
X91800000Y-87000000D01*
X95000000Y-131400000D02*
X96800000Y-133200000D01*
D17*
X124250000Y-131500000D02*
X131500000Y-131500000D01*
X141800000Y-80600000D02*
X142960000Y-81760000D01*
X96750000Y-61250000D02*
X104750000Y-61250000D01*
X142960000Y-81760000D02*
X143900000Y-81760000D01*
D18*
X90400000Y-78600000D02*
X90400000Y-66600000D01*
D17*
X120356714Y-85100000D02*
X104800000Y-85100000D01*
X91800000Y-87000000D02*
X93700000Y-85100000D01*
X97095292Y-107895292D02*
X95000000Y-105800000D01*
X120622500Y-77520000D02*
X120622500Y-79120000D01*
X120942500Y-64250000D02*
X121187500Y-64495000D01*
X121400000Y-84056714D02*
X120356714Y-85100000D01*
X105400000Y-79900000D02*
X104622500Y-79122500D01*
X124286451Y-113805292D02*
X124286451Y-109886451D01*
X112391946Y-128500000D02*
X107956159Y-128500000D01*
D18*
X132700000Y-129800000D02*
X132750000Y-129750000D01*
D17*
X124250000Y-131500000D02*
X115391945Y-131500000D01*
D18*
X91800000Y-87000000D02*
X91800000Y-83600000D01*
X95000000Y-97800000D02*
X91800000Y-94600000D01*
D17*
X108104708Y-107895292D02*
X97095292Y-107895292D01*
X107956159Y-128500000D02*
X107686451Y-128230292D01*
X141800000Y-72200000D02*
X141800000Y-80600000D01*
X93700000Y-85100000D02*
X104800000Y-85100000D01*
D18*
X95000000Y-105800000D02*
X95000000Y-100100000D01*
D17*
X137400000Y-130900000D02*
X136700000Y-130200000D01*
D18*
X91650000Y-79850000D02*
X90400000Y-78600000D01*
X90400000Y-66600000D02*
X91800000Y-65200000D01*
D17*
X104622500Y-77520000D02*
X104622500Y-79120000D01*
X107400000Y-112900000D02*
X108261451Y-113761451D01*
X113206714Y-61250000D02*
X116206714Y-64250000D01*
X124286451Y-109886451D02*
X122295292Y-107895292D01*
X121400000Y-84056714D02*
X121400000Y-79897500D01*
X134200000Y-71200000D02*
X140800000Y-71200000D01*
X140800000Y-71200000D02*
X141800000Y-72200000D01*
X124286451Y-115405292D02*
X124286451Y-113805292D01*
X143900000Y-130900000D02*
X137900000Y-130900000D01*
X104750000Y-61250000D02*
X113206714Y-61250000D01*
X122295292Y-107895292D02*
X108104708Y-107895292D01*
X108104708Y-107895292D02*
X107400000Y-108600000D01*
X108261451Y-113761451D02*
X108261451Y-113795292D01*
X116206714Y-64250000D02*
X120942500Y-64250000D01*
D18*
X95000000Y-105800000D02*
X95000000Y-131400000D01*
X96800000Y-133200000D02*
X131600000Y-133200000D01*
D17*
X104622500Y-79122500D02*
X104622500Y-79120000D01*
X105400000Y-84500000D02*
X105400000Y-79900000D01*
D16*
%TO.N,VBUS*%
X102000000Y-87100000D02*
X102000000Y-97400000D01*
X101506018Y-86606018D02*
X102000000Y-87100000D01*
X102700000Y-98100000D02*
X106900000Y-98100000D01*
X100553009Y-86606018D02*
X101506018Y-86606018D01*
X102000000Y-97400000D02*
X102700000Y-98100000D01*
D19*
%TO.N,+5V*%
X142000000Y-113285000D02*
X143900000Y-113285000D01*
X126800000Y-88450000D02*
X127005000Y-88245000D01*
X134055046Y-64285000D02*
X133738019Y-64602027D01*
X111600000Y-88840000D02*
X112070000Y-88370000D01*
X141200000Y-87200000D02*
X141200000Y-89500000D01*
X141200000Y-89500000D02*
X141200000Y-112485000D01*
X139950000Y-85950000D02*
X141200000Y-87200000D01*
X112150000Y-88450000D02*
X126800000Y-88450000D01*
X112070000Y-88370000D02*
X112150000Y-88450000D01*
X129300000Y-85950000D02*
X139950000Y-85950000D01*
X129300000Y-85950000D02*
X127005000Y-88245000D01*
X143900000Y-64285000D02*
X134055046Y-64285000D01*
X141200000Y-112485000D02*
X142000000Y-113285000D01*
D16*
%TO.N,Net-(M1--)*%
X125036451Y-116755292D02*
X125036451Y-109055292D01*
X125036451Y-109055292D02*
X124886451Y-108905292D01*
X124086451Y-117705292D02*
X122886451Y-117705292D01*
X124086451Y-117705292D02*
X124486451Y-117305292D01*
X124486451Y-117305292D02*
X125036451Y-116755292D01*
%TO.N,Net-(M1-+)*%
X108461451Y-117295292D02*
X109011451Y-116745292D01*
X109011451Y-109045292D02*
X108861451Y-108895292D01*
X109011451Y-116745292D02*
X109011451Y-109045292D01*
X108061451Y-117695292D02*
X108461451Y-117295292D01*
X108061451Y-117695292D02*
X106861451Y-117695292D01*
%TO.N,Net-(M2-+)*%
X120422500Y-75620000D02*
X119872500Y-76170000D01*
X119872500Y-83582500D02*
X119872500Y-83490000D01*
X120822500Y-75220000D02*
X120422500Y-75620000D01*
X120822500Y-75220000D02*
X122022500Y-75220000D01*
X120166603Y-83876603D02*
X119872500Y-83582500D01*
X119872500Y-76170000D02*
X119872500Y-83490000D01*
%TO.N,Net-(M2--)*%
X104422500Y-75620000D02*
X103872500Y-76170000D01*
X103872500Y-76170000D02*
X103872500Y-83870000D01*
X103872500Y-83870000D02*
X104022500Y-84020000D01*
X104822500Y-75220000D02*
X104422500Y-75620000D01*
X104822500Y-75220000D02*
X106022500Y-75220000D01*
%TO.N,/Main/ENCODER1_A*%
X128710000Y-99180000D02*
X128710000Y-110400986D01*
X128710000Y-110400986D02*
X128460500Y-110650486D01*
X118293393Y-90780000D02*
X119917106Y-90780000D01*
X117443561Y-89923516D02*
X117443561Y-89930168D01*
X117443561Y-89930168D02*
X118293393Y-90780000D01*
X121870000Y-92732894D02*
X121870000Y-97510000D01*
X119917106Y-90780000D02*
X121870000Y-92732894D01*
X121870000Y-97510000D02*
X122770000Y-98410000D01*
X122770000Y-98410000D02*
X127940000Y-98410000D01*
X127940000Y-98410000D02*
X128710000Y-99180000D01*
%TO.N,/Main/ENCODER1_B*%
X129210000Y-111450500D02*
X129150500Y-111510000D01*
X129210000Y-98972894D02*
X129210000Y-111450500D01*
X122370000Y-97302894D02*
X122977106Y-97910000D01*
X120124212Y-90280000D02*
X122370000Y-92525788D01*
X122977106Y-97910000D02*
X128147106Y-97910000D01*
X128147106Y-97910000D02*
X129210000Y-98972894D01*
X118854054Y-90280000D02*
X120124212Y-90280000D01*
X122370000Y-92525788D02*
X122370000Y-97302894D01*
X118590000Y-90015946D02*
X118854054Y-90280000D01*
%TO.N,/Main/REF_MOT2*%
X134349500Y-83740000D02*
X135149500Y-82940000D01*
X133150500Y-83740000D02*
X134349500Y-83740000D01*
%TO.N,/Main/REF_MOT1*%
X134200000Y-115400000D02*
X134200000Y-115500000D01*
X129710000Y-110910000D02*
X134200000Y-115400000D01*
X129380000Y-96125500D02*
X129710000Y-96455500D01*
X129710000Y-96455500D02*
X129710000Y-110910000D01*
%TO.N,/Main/VUSB*%
X98200500Y-89200000D02*
X98200500Y-90199500D01*
X115400000Y-87600000D02*
X113924299Y-86124299D01*
X121680000Y-87600000D02*
X115400000Y-87600000D01*
X113924299Y-86124299D02*
X110416823Y-86124299D01*
X98200500Y-90199500D02*
X98200000Y-90200000D01*
X99188655Y-85850000D02*
X110142524Y-85850000D01*
X110142524Y-85850000D02*
X110416823Y-86124299D01*
X98200500Y-86838155D02*
X99188655Y-85850000D01*
X98200500Y-89200000D02*
X98200500Y-86838155D01*
%TO.N,IN_MOT_CH1L*%
X120397112Y-102657112D02*
X120470000Y-102730000D01*
X120397112Y-93028222D02*
X120397112Y-102657112D01*
%TO.N,IN_MOT_CH1R*%
X118898112Y-93838612D02*
X118090000Y-93030500D01*
X118898112Y-101360926D02*
X118898112Y-93838612D01*
%TO.N,EN_MOT_CH1L*%
X117399661Y-91280000D02*
X116839460Y-90719799D01*
X121370000Y-92940000D02*
X119710000Y-91280000D01*
X121370000Y-102280000D02*
X121370000Y-92940000D01*
X119710000Y-91280000D02*
X117399661Y-91280000D01*
%TO.N,EN_MOT_CH2R*%
X129600000Y-83400000D02*
X128650500Y-83400000D01*
X128650500Y-83400000D02*
X127750500Y-84300000D01*
%TO.N,EN_MOT_CH1R*%
X98950000Y-109300000D02*
X100750000Y-109300000D01*
X119647612Y-93187657D02*
X119647612Y-102054155D01*
X119237129Y-92777174D02*
X119647612Y-93187657D01*
%TD*%
%TA.AperFunction,Conductor*%
%TO.N,+12V*%
G36*
X137138000Y-124716613D02*
G01*
X137183387Y-124762000D01*
X137200000Y-124824000D01*
X137200000Y-131876000D01*
X137183387Y-131938000D01*
X137138000Y-131983387D01*
X137076000Y-132000000D01*
X128924000Y-132000000D01*
X128862000Y-131983387D01*
X128816613Y-131938000D01*
X128800000Y-131876000D01*
X128800000Y-124824000D01*
X128816613Y-124762000D01*
X128862000Y-124716613D01*
X128924000Y-124700000D01*
X137076000Y-124700000D01*
X137138000Y-124716613D01*
G37*
%TD.AperFunction*%
%TD*%
%TA.AperFunction,Conductor*%
%TO.N,+12V*%
G36*
X99638000Y-62016613D02*
G01*
X99683387Y-62062000D01*
X99700000Y-62124000D01*
X99700000Y-69176000D01*
X99683387Y-69238000D01*
X99638000Y-69283387D01*
X99576000Y-69300000D01*
X91424000Y-69300000D01*
X91362000Y-69283387D01*
X91316613Y-69238000D01*
X91300000Y-69176000D01*
X91300000Y-62124000D01*
X91316613Y-62062000D01*
X91362000Y-62016613D01*
X91424000Y-62000000D01*
X99576000Y-62000000D01*
X99638000Y-62016613D01*
G37*
%TD.AperFunction*%
%TD*%
%TA.AperFunction,Conductor*%
%TO.N,GND*%
G36*
X145004042Y-58000764D02*
G01*
X145083586Y-58005978D01*
X145083767Y-58005991D01*
X145261587Y-58018709D01*
X145276904Y-58020772D01*
X145388378Y-58042945D01*
X145390437Y-58043374D01*
X145530240Y-58073786D01*
X145543703Y-58077522D01*
X145657725Y-58116228D01*
X145661074Y-58117420D01*
X145788808Y-58165062D01*
X145800300Y-58170024D01*
X145910687Y-58224461D01*
X145915187Y-58226798D01*
X146032478Y-58290844D01*
X146041942Y-58296574D01*
X146145269Y-58365615D01*
X146150688Y-58369450D01*
X146256727Y-58448830D01*
X146264145Y-58454844D01*
X146357976Y-58537131D01*
X146363898Y-58542678D01*
X146457320Y-58636100D01*
X146462867Y-58642022D01*
X146545150Y-58735848D01*
X146551173Y-58743278D01*
X146588691Y-58793396D01*
X146630548Y-58849310D01*
X146634383Y-58854729D01*
X146703424Y-58958056D01*
X146709154Y-58967520D01*
X146773183Y-59084779D01*
X146775564Y-59089363D01*
X146829969Y-59199687D01*
X146834938Y-59211196D01*
X146882556Y-59338863D01*
X146883793Y-59342338D01*
X146922470Y-59456276D01*
X146926217Y-59469777D01*
X146956613Y-59609508D01*
X146957064Y-59611675D01*
X146979224Y-59723080D01*
X146981291Y-59738425D01*
X146993995Y-59916046D01*
X146994045Y-59916781D01*
X146999234Y-59995942D01*
X146999500Y-60004053D01*
X146999500Y-132995947D01*
X146999234Y-133004058D01*
X146994045Y-133083217D01*
X146993995Y-133083952D01*
X146981291Y-133261573D01*
X146979224Y-133276918D01*
X146957064Y-133388323D01*
X146956613Y-133390490D01*
X146926217Y-133530221D01*
X146922470Y-133543722D01*
X146883793Y-133657660D01*
X146882556Y-133661135D01*
X146834938Y-133788802D01*
X146829969Y-133800311D01*
X146775564Y-133910635D01*
X146773183Y-133915219D01*
X146709154Y-134032478D01*
X146703424Y-134041942D01*
X146634383Y-134145269D01*
X146630548Y-134150688D01*
X146551181Y-134256711D01*
X146545142Y-134264160D01*
X146462867Y-134357976D01*
X146457320Y-134363898D01*
X146363898Y-134457320D01*
X146357976Y-134462867D01*
X146264160Y-134545142D01*
X146256711Y-134551181D01*
X146150688Y-134630548D01*
X146145269Y-134634383D01*
X146041942Y-134703424D01*
X146032478Y-134709154D01*
X145915219Y-134773183D01*
X145910635Y-134775564D01*
X145800311Y-134829969D01*
X145788802Y-134834938D01*
X145661135Y-134882556D01*
X145657660Y-134883793D01*
X145543722Y-134922470D01*
X145530221Y-134926217D01*
X145390490Y-134956613D01*
X145388323Y-134957064D01*
X145276918Y-134979224D01*
X145261573Y-134981291D01*
X145083952Y-134993995D01*
X145083217Y-134994045D01*
X145004058Y-134999234D01*
X144995947Y-134999500D01*
X84504053Y-134999500D01*
X84495942Y-134999234D01*
X84416781Y-134994045D01*
X84416046Y-134993995D01*
X84238425Y-134981291D01*
X84223080Y-134979224D01*
X84111675Y-134957064D01*
X84109508Y-134956613D01*
X83969777Y-134926217D01*
X83956276Y-134922470D01*
X83842338Y-134883793D01*
X83838863Y-134882556D01*
X83711196Y-134834938D01*
X83699687Y-134829969D01*
X83634947Y-134798043D01*
X83589348Y-134775556D01*
X83584779Y-134773183D01*
X83467520Y-134709154D01*
X83458056Y-134703424D01*
X83354729Y-134634383D01*
X83349310Y-134630548D01*
X83293396Y-134588691D01*
X83243278Y-134551173D01*
X83235848Y-134545150D01*
X83142022Y-134462867D01*
X83136100Y-134457320D01*
X83042678Y-134363898D01*
X83037131Y-134357976D01*
X83034217Y-134354653D01*
X82954844Y-134264145D01*
X82948830Y-134256727D01*
X82869450Y-134150688D01*
X82865615Y-134145269D01*
X82796574Y-134041942D01*
X82790844Y-134032478D01*
X82786709Y-134024905D01*
X82726798Y-133915187D01*
X82724461Y-133910687D01*
X82670024Y-133800300D01*
X82665060Y-133788802D01*
X82617420Y-133661074D01*
X82616228Y-133657725D01*
X82577522Y-133543703D01*
X82573786Y-133530240D01*
X82543374Y-133390437D01*
X82542945Y-133388378D01*
X82520772Y-133276904D01*
X82518709Y-133261587D01*
X82505991Y-133083767D01*
X82505978Y-133083586D01*
X82500764Y-133004042D01*
X82500500Y-132995935D01*
X82500500Y-131067764D01*
X84645787Y-131067764D01*
X84675413Y-131337016D01*
X84675414Y-131337018D01*
X84743928Y-131599088D01*
X84847663Y-131843196D01*
X84849871Y-131848392D01*
X84990982Y-132079611D01*
X85164253Y-132287818D01*
X85164255Y-132287820D01*
X85365998Y-132468582D01*
X85591910Y-132618044D01*
X85663737Y-132651715D01*
X85837177Y-132733021D01*
X86096562Y-132811058D01*
X86096569Y-132811060D01*
X86364561Y-132850500D01*
X86567631Y-132850500D01*
X86567634Y-132850500D01*
X86770156Y-132835677D01*
X86770156Y-132835676D01*
X87034553Y-132776780D01*
X87287558Y-132680014D01*
X87523777Y-132547441D01*
X87738177Y-132381888D01*
X87926186Y-132186881D01*
X88083799Y-131966579D01*
X88207656Y-131725675D01*
X88295118Y-131469305D01*
X88344319Y-131202933D01*
X88354212Y-130932235D01*
X88324586Y-130662982D01*
X88256072Y-130400912D01*
X88150130Y-130151610D01*
X88060737Y-130005135D01*
X88009017Y-129920388D01*
X87835746Y-129712181D01*
X87789778Y-129670994D01*
X87634002Y-129531418D01*
X87408090Y-129381956D01*
X87408086Y-129381954D01*
X87162822Y-129266978D01*
X86903437Y-129188941D01*
X86903431Y-129188940D01*
X86635439Y-129149500D01*
X86432369Y-129149500D01*
X86432366Y-129149500D01*
X86229843Y-129164322D01*
X85965449Y-129223219D01*
X85712441Y-129319986D01*
X85476223Y-129452559D01*
X85261825Y-129618109D01*
X85073813Y-129813120D01*
X84916201Y-130033420D01*
X84792342Y-130274329D01*
X84704881Y-130530695D01*
X84655680Y-130797066D01*
X84645787Y-131067764D01*
X82500500Y-131067764D01*
X82500500Y-113890000D01*
X88360000Y-113890000D01*
X88360000Y-114509697D01*
X88371604Y-114568036D01*
X88415807Y-114634192D01*
X88481963Y-114678395D01*
X88540303Y-114690000D01*
X89160000Y-114690000D01*
X89160000Y-113890000D01*
X89660000Y-113890000D01*
X89660000Y-114690000D01*
X90279697Y-114690000D01*
X90338036Y-114678395D01*
X90404192Y-114634192D01*
X90448395Y-114568036D01*
X90460000Y-114509697D01*
X90460000Y-113890000D01*
X89660000Y-113890000D01*
X89160000Y-113890000D01*
X88360000Y-113890000D01*
X82500500Y-113890000D01*
X82500500Y-113390000D01*
X88360000Y-113390000D01*
X89160000Y-113390000D01*
X89160000Y-112590000D01*
X89660000Y-112590000D01*
X89660000Y-113390000D01*
X90460000Y-113390000D01*
X90460000Y-112770303D01*
X90448395Y-112711963D01*
X90404192Y-112645807D01*
X90338036Y-112601604D01*
X90279697Y-112590000D01*
X89660000Y-112590000D01*
X89160000Y-112590000D01*
X88540303Y-112590000D01*
X88481963Y-112601604D01*
X88415807Y-112645807D01*
X88371604Y-112711963D01*
X88360000Y-112770303D01*
X88360000Y-113390000D01*
X82500500Y-113390000D01*
X82500500Y-104600000D01*
X85944531Y-104600000D01*
X85964364Y-104826689D01*
X86023261Y-105046497D01*
X86119432Y-105252735D01*
X86249953Y-105439140D01*
X86410859Y-105600046D01*
X86597264Y-105730567D01*
X86597265Y-105730567D01*
X86597266Y-105730568D01*
X86803504Y-105826739D01*
X87023308Y-105885635D01*
X87108262Y-105893067D01*
X87193214Y-105900500D01*
X87193216Y-105900500D01*
X88806784Y-105900500D01*
X88806786Y-105900500D01*
X88874747Y-105894554D01*
X88976692Y-105885635D01*
X89196496Y-105826739D01*
X89402734Y-105730568D01*
X89589139Y-105600047D01*
X89750047Y-105439139D01*
X89880568Y-105252734D01*
X89976739Y-105046496D01*
X90035635Y-104826692D01*
X90055468Y-104600000D01*
X90035635Y-104373308D01*
X89976739Y-104153504D01*
X89880568Y-103947266D01*
X89875908Y-103940611D01*
X89750046Y-103760859D01*
X89589140Y-103599953D01*
X89402735Y-103469432D01*
X89196497Y-103373261D01*
X88976689Y-103314364D01*
X88806786Y-103299500D01*
X88806784Y-103299500D01*
X87193216Y-103299500D01*
X87193214Y-103299500D01*
X87023310Y-103314364D01*
X86803502Y-103373261D01*
X86597264Y-103469432D01*
X86410859Y-103599953D01*
X86249953Y-103760859D01*
X86119432Y-103947264D01*
X86023261Y-104153502D01*
X85964364Y-104373310D01*
X85944531Y-104600000D01*
X82500500Y-104600000D01*
X82500500Y-100099999D01*
X84944417Y-100099999D01*
X84964699Y-100305932D01*
X84994733Y-100404943D01*
X85024768Y-100503954D01*
X85122315Y-100686450D01*
X85151519Y-100722035D01*
X85253589Y-100846410D01*
X85272964Y-100862310D01*
X85413550Y-100977685D01*
X85596046Y-101075232D01*
X85794066Y-101135300D01*
X85948392Y-101150500D01*
X86051607Y-101150500D01*
X86051608Y-101150500D01*
X86205934Y-101135300D01*
X86403954Y-101075232D01*
X86586450Y-100977685D01*
X86746410Y-100846410D01*
X86877685Y-100686450D01*
X86975232Y-100503954D01*
X87021933Y-100350000D01*
X87800000Y-100350000D01*
X87800000Y-100805481D01*
X87815378Y-100971445D01*
X87876238Y-101185347D01*
X87975365Y-101384422D01*
X88109390Y-101561899D01*
X88273737Y-101711721D01*
X88462821Y-101828797D01*
X88670199Y-101909135D01*
X88750000Y-101924052D01*
X88750000Y-100350000D01*
X89250000Y-100350000D01*
X89250000Y-101924052D01*
X89329800Y-101909135D01*
X89537178Y-101828797D01*
X89726262Y-101711721D01*
X89890609Y-101561899D01*
X90024634Y-101384422D01*
X90123761Y-101185347D01*
X90184621Y-100971445D01*
X90200000Y-100805481D01*
X90200000Y-100350000D01*
X89250000Y-100350000D01*
X88750000Y-100350000D01*
X87800000Y-100350000D01*
X87021933Y-100350000D01*
X87035300Y-100305934D01*
X87055583Y-100100000D01*
X87035300Y-99894066D01*
X87021933Y-99850000D01*
X87800000Y-99850000D01*
X88750000Y-99850000D01*
X88750000Y-98275948D01*
X89250000Y-98275948D01*
X89250000Y-99850000D01*
X90200000Y-99850000D01*
X90200000Y-99394519D01*
X90184621Y-99228554D01*
X90123761Y-99014652D01*
X90024634Y-98815577D01*
X89890609Y-98638100D01*
X89726262Y-98488278D01*
X89537178Y-98371202D01*
X89329800Y-98290864D01*
X89250000Y-98275948D01*
X88750000Y-98275948D01*
X88670199Y-98290864D01*
X88462821Y-98371202D01*
X88273737Y-98488278D01*
X88109390Y-98638100D01*
X87975365Y-98815577D01*
X87876238Y-99014652D01*
X87815378Y-99228554D01*
X87800000Y-99394519D01*
X87800000Y-99850000D01*
X87021933Y-99850000D01*
X86975232Y-99696046D01*
X86877685Y-99513550D01*
X86799242Y-99417966D01*
X86746410Y-99353589D01*
X86594052Y-99228554D01*
X86586450Y-99222315D01*
X86403954Y-99124768D01*
X86297771Y-99092558D01*
X86205932Y-99064699D01*
X86068467Y-99051160D01*
X86051608Y-99049500D01*
X85948392Y-99049500D01*
X85933193Y-99050996D01*
X85794067Y-99064699D01*
X85596043Y-99124769D01*
X85413551Y-99222314D01*
X85253589Y-99353589D01*
X85122314Y-99513551D01*
X85024769Y-99696043D01*
X84964699Y-99894067D01*
X84944417Y-100099999D01*
X82500500Y-100099999D01*
X82500500Y-95600000D01*
X85944531Y-95600000D01*
X85964364Y-95826689D01*
X86023261Y-96046497D01*
X86119432Y-96252735D01*
X86249953Y-96439140D01*
X86410859Y-96600046D01*
X86597264Y-96730567D01*
X86597265Y-96730567D01*
X86597266Y-96730568D01*
X86803504Y-96826739D01*
X87023308Y-96885635D01*
X87108261Y-96893067D01*
X87193214Y-96900500D01*
X87193216Y-96900500D01*
X88806784Y-96900500D01*
X88806786Y-96900500D01*
X88874747Y-96894554D01*
X88976692Y-96885635D01*
X89196496Y-96826739D01*
X89402734Y-96730568D01*
X89589139Y-96600047D01*
X89750047Y-96439139D01*
X89880568Y-96252734D01*
X89976739Y-96046496D01*
X90035635Y-95826692D01*
X90055468Y-95600000D01*
X90035635Y-95373308D01*
X89976739Y-95153504D01*
X89880568Y-94947266D01*
X89867291Y-94928305D01*
X89750046Y-94760859D01*
X89589140Y-94599953D01*
X89402735Y-94469432D01*
X89196497Y-94373261D01*
X88976689Y-94314364D01*
X88806786Y-94299500D01*
X88806784Y-94299500D01*
X87193216Y-94299500D01*
X87193214Y-94299500D01*
X87023310Y-94314364D01*
X86803502Y-94373261D01*
X86597264Y-94469432D01*
X86410859Y-94599953D01*
X86249953Y-94760859D01*
X86119432Y-94947264D01*
X86023261Y-95153502D01*
X85964364Y-95373310D01*
X85944531Y-95600000D01*
X82500500Y-95600000D01*
X82500500Y-89843934D01*
X87745668Y-89843934D01*
X87761058Y-89931207D01*
X87776135Y-90016711D01*
X87842743Y-90171127D01*
X87845623Y-90177804D01*
X87950390Y-90318530D01*
X88084783Y-90431300D01*
X88084784Y-90431300D01*
X88084786Y-90431302D01*
X88241567Y-90510040D01*
X88241568Y-90510040D01*
X88241570Y-90510041D01*
X88412277Y-90550500D01*
X88412279Y-90550500D01*
X88543704Y-90550500D01*
X88543709Y-90550500D01*
X88674255Y-90535241D01*
X88839117Y-90475237D01*
X88985696Y-90378830D01*
X89106092Y-90251218D01*
X89193812Y-90099281D01*
X89244130Y-89931210D01*
X89254331Y-89756065D01*
X89223865Y-89583289D01*
X89154377Y-89422196D01*
X89049610Y-89281470D01*
X89023718Y-89259744D01*
X88915216Y-89168699D01*
X88758429Y-89089958D01*
X88587723Y-89049500D01*
X88587721Y-89049500D01*
X88456291Y-89049500D01*
X88379088Y-89058524D01*
X88325742Y-89064759D01*
X88160883Y-89124762D01*
X88014303Y-89221170D01*
X87893908Y-89348780D01*
X87806188Y-89500718D01*
X87806188Y-89500719D01*
X87755870Y-89668790D01*
X87755869Y-89668792D01*
X87755870Y-89668792D01*
X87745668Y-89843934D01*
X82500500Y-89843934D01*
X82500500Y-85443934D01*
X87745668Y-85443934D01*
X87761058Y-85531207D01*
X87776135Y-85616711D01*
X87831964Y-85746138D01*
X87845623Y-85777804D01*
X87950390Y-85918530D01*
X88084783Y-86031300D01*
X88084784Y-86031300D01*
X88084786Y-86031302D01*
X88241567Y-86110040D01*
X88241568Y-86110040D01*
X88241570Y-86110041D01*
X88412277Y-86150500D01*
X88412279Y-86150500D01*
X88543704Y-86150500D01*
X88543709Y-86150500D01*
X88674255Y-86135241D01*
X88839117Y-86075237D01*
X88985696Y-85978830D01*
X89106092Y-85851218D01*
X89193812Y-85699281D01*
X89244130Y-85531210D01*
X89254331Y-85356065D01*
X89223865Y-85183289D01*
X89154377Y-85022196D01*
X89049610Y-84881470D01*
X89048733Y-84880734D01*
X88915216Y-84768699D01*
X88758429Y-84689958D01*
X88587723Y-84649500D01*
X88587721Y-84649500D01*
X88456291Y-84649500D01*
X88374699Y-84659036D01*
X88325742Y-84664759D01*
X88160883Y-84724762D01*
X88014303Y-84821170D01*
X87893908Y-84948780D01*
X87806188Y-85100718D01*
X87806188Y-85100719D01*
X87755870Y-85268790D01*
X87755869Y-85268792D01*
X87755870Y-85268792D01*
X87745668Y-85443934D01*
X82500500Y-85443934D01*
X82500500Y-78713781D01*
X89099499Y-78713781D01*
X89108456Y-78764582D01*
X89109868Y-78775302D01*
X89114365Y-78826693D01*
X89127716Y-78876521D01*
X89130057Y-78887079D01*
X89139014Y-78937877D01*
X89156655Y-78986346D01*
X89159906Y-78996660D01*
X89173258Y-79046490D01*
X89173261Y-79046496D01*
X89195066Y-79093256D01*
X89199201Y-79103241D01*
X89216842Y-79151713D01*
X89242638Y-79196392D01*
X89247633Y-79205986D01*
X89269433Y-79252736D01*
X89299015Y-79294983D01*
X89304827Y-79304106D01*
X89330620Y-79348782D01*
X89330622Y-79348784D01*
X89330623Y-79348786D01*
X89363792Y-79388315D01*
X89370358Y-79396873D01*
X89388305Y-79422504D01*
X89399954Y-79439141D01*
X89569540Y-79608726D01*
X89569546Y-79608731D01*
X90313181Y-80352366D01*
X90340061Y-80392594D01*
X90349500Y-80440047D01*
X90349500Y-83325952D01*
X90349499Y-83325964D01*
X90349499Y-83563781D01*
X90358456Y-83614582D01*
X90359868Y-83625302D01*
X90364365Y-83676693D01*
X90377716Y-83726521D01*
X90380057Y-83737079D01*
X90389014Y-83787877D01*
X90406655Y-83836346D01*
X90409906Y-83846660D01*
X90423258Y-83896490D01*
X90423261Y-83896496D01*
X90445066Y-83943256D01*
X90449201Y-83953241D01*
X90466841Y-84001710D01*
X90466844Y-84001715D01*
X90482887Y-84029503D01*
X90499500Y-84091502D01*
X90499500Y-94475952D01*
X90499499Y-94475964D01*
X90499499Y-94713781D01*
X90508456Y-94764582D01*
X90509868Y-94775302D01*
X90514365Y-94826693D01*
X90527716Y-94876521D01*
X90530057Y-94887079D01*
X90538545Y-94935219D01*
X90539015Y-94937880D01*
X90542431Y-94947266D01*
X90556655Y-94986346D01*
X90559906Y-94996660D01*
X90573258Y-95046490D01*
X90573261Y-95046496D01*
X90595066Y-95093256D01*
X90599201Y-95103241D01*
X90616842Y-95151713D01*
X90642638Y-95196392D01*
X90647631Y-95205982D01*
X90669432Y-95252734D01*
X90669433Y-95252736D01*
X90699015Y-95294983D01*
X90704827Y-95304106D01*
X90730620Y-95348782D01*
X90730622Y-95348784D01*
X90730623Y-95348786D01*
X90763792Y-95388315D01*
X90770358Y-95396873D01*
X90788305Y-95422504D01*
X90799954Y-95439141D01*
X90969540Y-95608726D01*
X90969546Y-95608731D01*
X92321676Y-96960861D01*
X93663181Y-98302365D01*
X93690061Y-98342593D01*
X93699500Y-98390046D01*
X93699500Y-131275952D01*
X93699499Y-131275964D01*
X93699499Y-131513781D01*
X93708456Y-131564582D01*
X93709868Y-131575302D01*
X93714365Y-131626693D01*
X93727716Y-131676521D01*
X93730057Y-131687079D01*
X93739014Y-131737877D01*
X93756655Y-131786346D01*
X93759906Y-131796660D01*
X93773258Y-131846490D01*
X93777595Y-131855791D01*
X93795066Y-131893256D01*
X93799201Y-131903241D01*
X93816842Y-131951713D01*
X93842638Y-131996392D01*
X93847631Y-132005982D01*
X93867031Y-132047585D01*
X93869433Y-132052736D01*
X93899015Y-132094983D01*
X93904827Y-132104106D01*
X93930620Y-132148782D01*
X93930622Y-132148784D01*
X93930623Y-132148786D01*
X93963792Y-132188315D01*
X93970358Y-132196873D01*
X93988305Y-132222504D01*
X93999954Y-132239141D01*
X94169540Y-132408726D01*
X94169546Y-132408731D01*
X95792688Y-134031872D01*
X95792705Y-134031892D01*
X95960857Y-134200044D01*
X95960860Y-134200046D01*
X95960861Y-134200047D01*
X96003139Y-134229650D01*
X96011700Y-134236220D01*
X96025491Y-134247792D01*
X96051213Y-134269376D01*
X96095885Y-134295167D01*
X96105008Y-134300979D01*
X96147266Y-134330568D01*
X96194023Y-134352371D01*
X96203588Y-134357350D01*
X96248285Y-134383156D01*
X96296777Y-134400805D01*
X96306741Y-134404932D01*
X96353504Y-134426739D01*
X96353508Y-134426740D01*
X96403325Y-134440088D01*
X96413644Y-134443341D01*
X96423570Y-134446953D01*
X96462120Y-134460985D01*
X96512911Y-134469940D01*
X96523471Y-134472281D01*
X96539573Y-134476595D01*
X96573308Y-134485635D01*
X96609594Y-134488809D01*
X96624687Y-134490130D01*
X96635413Y-134491541D01*
X96686221Y-134500501D01*
X96913779Y-134500501D01*
X96924036Y-134500501D01*
X96924048Y-134500500D01*
X131475952Y-134500500D01*
X131475964Y-134500501D01*
X131486221Y-134500501D01*
X131713778Y-134500501D01*
X131713779Y-134500501D01*
X131764591Y-134491540D01*
X131775312Y-134490130D01*
X131826686Y-134485636D01*
X131826688Y-134485635D01*
X131826692Y-134485635D01*
X131876546Y-134472275D01*
X131887048Y-134469947D01*
X131937880Y-134460985D01*
X131986380Y-134443331D01*
X131996643Y-134440095D01*
X132046496Y-134426739D01*
X132093240Y-134404940D01*
X132103235Y-134400800D01*
X132151715Y-134383156D01*
X132196398Y-134357356D01*
X132205982Y-134352368D01*
X132252734Y-134330568D01*
X132295003Y-134300969D01*
X132304089Y-134295181D01*
X132348786Y-134269377D01*
X132388306Y-134236214D01*
X132396873Y-134229640D01*
X132439139Y-134200047D01*
X132600047Y-134039139D01*
X132600047Y-134039138D01*
X132614271Y-134024915D01*
X132614275Y-134024908D01*
X133524908Y-133114275D01*
X133524915Y-133114271D01*
X133555969Y-133083217D01*
X133700047Y-132939139D01*
X133729640Y-132896873D01*
X133736214Y-132888306D01*
X133769377Y-132848786D01*
X133795181Y-132804089D01*
X133800969Y-132795003D01*
X133830568Y-132752734D01*
X133852368Y-132705982D01*
X133857361Y-132696391D01*
X133883156Y-132651715D01*
X133900800Y-132603235D01*
X133904941Y-132593239D01*
X133926298Y-132547441D01*
X133926739Y-132546496D01*
X133940095Y-132496643D01*
X133943331Y-132486380D01*
X133960985Y-132437880D01*
X133966258Y-132407968D01*
X133988912Y-132355453D01*
X134032724Y-132318690D01*
X134088375Y-132305500D01*
X137076001Y-132305500D01*
X137091813Y-132303418D01*
X137155070Y-132295090D01*
X137217070Y-132278477D01*
X137290750Y-132247958D01*
X137354021Y-132199408D01*
X137399408Y-132154021D01*
X137447958Y-132090750D01*
X137478477Y-132017070D01*
X137495090Y-131955070D01*
X137505500Y-131876000D01*
X137505500Y-131692087D01*
X137516424Y-131641196D01*
X137547272Y-131599273D01*
X137592606Y-131573702D01*
X137611242Y-131567895D01*
X137651875Y-131562338D01*
X137692098Y-131570338D01*
X137731128Y-131585140D01*
X137857628Y-131600500D01*
X142625501Y-131600500D01*
X142687501Y-131617113D01*
X142732888Y-131662500D01*
X142749501Y-131724500D01*
X142749501Y-131794867D01*
X142752414Y-131819988D01*
X142752414Y-131819990D01*
X142752415Y-131819991D01*
X142787522Y-131899500D01*
X142797795Y-131922767D01*
X142877232Y-132002204D01*
X142877233Y-132002204D01*
X142877235Y-132002206D01*
X142980009Y-132047585D01*
X143005135Y-132050500D01*
X144794864Y-132050499D01*
X144794867Y-132050499D01*
X144807427Y-132049042D01*
X144819991Y-132047585D01*
X144922765Y-132002206D01*
X145002206Y-131922765D01*
X145047585Y-131819991D01*
X145050500Y-131794865D01*
X145050499Y-130005136D01*
X145047585Y-129980009D01*
X145002206Y-129877235D01*
X145002204Y-129877233D01*
X145002204Y-129877232D01*
X144922767Y-129797795D01*
X144894475Y-129785303D01*
X144819991Y-129752415D01*
X144794864Y-129749500D01*
X144066242Y-129749500D01*
X144007578Y-129734746D01*
X143962875Y-129693993D01*
X143942771Y-129636941D01*
X143952050Y-129577167D01*
X143988503Y-129528894D01*
X144043453Y-129503612D01*
X144216198Y-129471321D01*
X144415019Y-129394298D01*
X144596302Y-129282052D01*
X144753872Y-129138407D01*
X144882366Y-128968255D01*
X144882366Y-128968253D01*
X144882368Y-128968252D01*
X144930080Y-128872430D01*
X144977405Y-128777389D01*
X145035756Y-128572310D01*
X145055429Y-128360000D01*
X145035756Y-128147690D01*
X145017254Y-128082665D01*
X144995207Y-128005177D01*
X144977405Y-127942611D01*
X144957364Y-127902362D01*
X144882368Y-127751747D01*
X144753873Y-127581594D01*
X144746873Y-127575213D01*
X144596302Y-127437948D01*
X144596301Y-127437947D01*
X144415017Y-127325701D01*
X144216198Y-127248679D01*
X144006610Y-127209500D01*
X143793390Y-127209500D01*
X143653664Y-127235619D01*
X143583801Y-127248679D01*
X143384982Y-127325701D01*
X143203698Y-127437947D01*
X143046126Y-127581594D01*
X142917631Y-127751747D01*
X142822595Y-127942609D01*
X142764243Y-128147689D01*
X142744571Y-128359999D01*
X142764243Y-128572310D01*
X142822595Y-128777390D01*
X142917631Y-128968252D01*
X143046126Y-129138405D01*
X143046128Y-129138407D01*
X143203698Y-129282052D01*
X143384981Y-129394298D01*
X143583802Y-129471321D01*
X143756546Y-129503612D01*
X143811496Y-129528894D01*
X143847950Y-129577166D01*
X143857229Y-129636941D01*
X143837125Y-129693993D01*
X143792422Y-129734745D01*
X143733758Y-129749500D01*
X143005132Y-129749500D01*
X142980011Y-129752414D01*
X142877232Y-129797795D01*
X142797795Y-129877232D01*
X142752415Y-129980009D01*
X142749500Y-130005136D01*
X142749500Y-130075500D01*
X142732887Y-130137500D01*
X142687500Y-130182887D01*
X142625500Y-130199500D01*
X137857628Y-130199500D01*
X137768224Y-130210355D01*
X137712828Y-130204476D01*
X137665597Y-130174940D01*
X137541819Y-130051162D01*
X137514939Y-130010934D01*
X137505500Y-129963481D01*
X137505500Y-126070000D01*
X142878590Y-126070000D01*
X142925233Y-126223764D01*
X143022731Y-126406171D01*
X143153945Y-126566054D01*
X143313828Y-126697268D01*
X143496235Y-126794766D01*
X143650000Y-126841410D01*
X143650000Y-126070000D01*
X144150000Y-126070000D01*
X144150000Y-126841410D01*
X144303764Y-126794766D01*
X144486171Y-126697268D01*
X144646054Y-126566054D01*
X144777268Y-126406171D01*
X144874766Y-126223764D01*
X144921410Y-126070000D01*
X144150000Y-126070000D01*
X143650000Y-126070000D01*
X142878590Y-126070000D01*
X137505500Y-126070000D01*
X137505500Y-125570000D01*
X142878590Y-125570000D01*
X143650000Y-125570000D01*
X143650000Y-124798590D01*
X144150000Y-124798590D01*
X144150000Y-125570000D01*
X144921410Y-125570000D01*
X144874766Y-125416235D01*
X144777268Y-125233828D01*
X144646054Y-125073945D01*
X144486171Y-124942731D01*
X144303764Y-124845233D01*
X144150000Y-124798590D01*
X143650000Y-124798590D01*
X143496235Y-124845233D01*
X143313828Y-124942731D01*
X143153945Y-125073945D01*
X143022731Y-125233828D01*
X142925233Y-125416235D01*
X142878590Y-125570000D01*
X137505500Y-125570000D01*
X137505500Y-124823999D01*
X137495090Y-124744933D01*
X137495090Y-124744930D01*
X137478477Y-124682930D01*
X137447958Y-124609250D01*
X137399408Y-124545979D01*
X137399406Y-124545977D01*
X137399403Y-124545973D01*
X137354026Y-124500596D01*
X137290747Y-124452040D01*
X137217075Y-124421524D01*
X137155066Y-124404909D01*
X137076001Y-124394500D01*
X137076000Y-124394500D01*
X128924000Y-124394500D01*
X128923999Y-124394500D01*
X128844933Y-124404909D01*
X128782924Y-124421524D01*
X128709252Y-124452040D01*
X128645973Y-124500596D01*
X128600596Y-124545973D01*
X128552040Y-124609252D01*
X128521524Y-124682924D01*
X128504909Y-124744933D01*
X128494500Y-124823999D01*
X128494500Y-130675500D01*
X128477887Y-130737500D01*
X128432500Y-130782887D01*
X128370500Y-130799500D01*
X124335056Y-130799500D01*
X124292372Y-130799500D01*
X115733464Y-130799500D01*
X115686011Y-130790061D01*
X115645783Y-130763181D01*
X114276900Y-129394298D01*
X112904886Y-128022283D01*
X112899768Y-128016847D01*
X112859875Y-127971817D01*
X112810378Y-127937651D01*
X112804351Y-127933216D01*
X112757000Y-127896120D01*
X112747759Y-127891961D01*
X112728219Y-127880941D01*
X112719876Y-127875182D01*
X112719873Y-127875181D01*
X112719872Y-127875180D01*
X112663647Y-127853856D01*
X112656729Y-127850991D01*
X112601875Y-127826303D01*
X112591898Y-127824475D01*
X112570285Y-127818450D01*
X112560819Y-127814860D01*
X112501118Y-127807610D01*
X112493717Y-127806483D01*
X112434553Y-127795641D01*
X112374512Y-127799274D01*
X112367025Y-127799500D01*
X108303580Y-127799500D01*
X108259609Y-127791442D01*
X108221352Y-127768315D01*
X108202648Y-127751745D01*
X108169611Y-127722476D01*
X108164168Y-127717351D01*
X108151820Y-127705003D01*
X108138072Y-127694232D01*
X108132320Y-127689438D01*
X108087302Y-127649556D01*
X108078333Y-127644849D01*
X108059490Y-127632666D01*
X108051510Y-127626414D01*
X107996653Y-127601725D01*
X107989919Y-127598446D01*
X107936676Y-127570502D01*
X107926839Y-127568077D01*
X107905630Y-127560758D01*
X107896385Y-127556597D01*
X107837207Y-127545752D01*
X107829887Y-127544180D01*
X107771509Y-127529792D01*
X107771507Y-127529792D01*
X107761378Y-127529792D01*
X107739027Y-127527761D01*
X107729057Y-127525934D01*
X107669017Y-127529566D01*
X107661530Y-127529792D01*
X107601395Y-127529792D01*
X107591545Y-127532219D01*
X107569372Y-127535593D01*
X107559255Y-127536205D01*
X107501842Y-127554095D01*
X107494630Y-127556106D01*
X107436222Y-127570502D01*
X107427247Y-127575213D01*
X107406522Y-127583798D01*
X107396846Y-127586813D01*
X107345362Y-127617935D01*
X107338843Y-127621611D01*
X107285598Y-127649557D01*
X107278007Y-127656282D01*
X107259939Y-127669576D01*
X107251268Y-127674817D01*
X107208740Y-127717345D01*
X107203289Y-127722476D01*
X107158266Y-127762363D01*
X107152509Y-127770705D01*
X107138146Y-127787940D01*
X107130977Y-127795108D01*
X107099861Y-127846579D01*
X107095798Y-127852863D01*
X107061632Y-127902363D01*
X107058036Y-127911844D01*
X107048219Y-127932007D01*
X107042974Y-127940684D01*
X107025081Y-127998102D01*
X107022639Y-128005177D01*
X107001310Y-128061421D01*
X107000087Y-128071489D01*
X106995379Y-128093421D01*
X106992364Y-128103094D01*
X106988732Y-128163133D01*
X106988054Y-128170588D01*
X106980805Y-128230291D01*
X106982026Y-128240350D01*
X106982704Y-128262774D01*
X106982092Y-128272896D01*
X106992934Y-128332062D01*
X106994061Y-128339463D01*
X107001311Y-128399165D01*
X107004901Y-128408631D01*
X107010926Y-128430244D01*
X107012754Y-128440221D01*
X107037442Y-128495075D01*
X107040307Y-128501993D01*
X107061631Y-128558218D01*
X107061633Y-128558222D01*
X107067392Y-128566565D01*
X107078412Y-128586105D01*
X107082571Y-128595346D01*
X107119667Y-128642697D01*
X107124102Y-128648724D01*
X107158268Y-128698221D01*
X107203298Y-128738114D01*
X107208734Y-128743232D01*
X107443217Y-128977715D01*
X107448337Y-128983153D01*
X107488230Y-129028183D01*
X107488231Y-129028184D01*
X107537732Y-129062352D01*
X107543750Y-129066780D01*
X107591103Y-129103878D01*
X107600339Y-129108034D01*
X107619890Y-129119062D01*
X107628225Y-129124816D01*
X107628227Y-129124816D01*
X107628229Y-129124818D01*
X107684485Y-129146152D01*
X107691379Y-129149009D01*
X107746228Y-129173695D01*
X107756203Y-129175522D01*
X107777815Y-129181547D01*
X107787287Y-129185140D01*
X107847000Y-129192390D01*
X107854344Y-129193507D01*
X107913553Y-129204358D01*
X107970261Y-129200927D01*
X107973593Y-129200726D01*
X107981080Y-129200500D01*
X112050427Y-129200500D01*
X112097880Y-129209939D01*
X112138108Y-129236819D01*
X112244400Y-129343111D01*
X112274650Y-129392474D01*
X112279192Y-129450190D01*
X112257037Y-129503677D01*
X112213014Y-129541277D01*
X112156719Y-129554792D01*
X112119841Y-129554792D01*
X112000146Y-129577167D01*
X111910252Y-129593971D01*
X111711433Y-129670993D01*
X111530149Y-129783239D01*
X111372577Y-129926886D01*
X111244082Y-130097039D01*
X111149046Y-130287901D01*
X111090694Y-130492981D01*
X111084421Y-130560685D01*
X111063250Y-130619321D01*
X111016221Y-130660244D01*
X110955223Y-130673112D01*
X110895672Y-130654671D01*
X110852621Y-130609583D01*
X110836950Y-130549244D01*
X110836950Y-129810425D01*
X110834036Y-129785303D01*
X110834036Y-129785301D01*
X110788657Y-129682527D01*
X110788655Y-129682525D01*
X110788655Y-129682524D01*
X110709218Y-129603087D01*
X110663895Y-129583075D01*
X110606442Y-129557707D01*
X110581316Y-129554792D01*
X110581314Y-129554792D01*
X108791583Y-129554792D01*
X108766462Y-129557706D01*
X108663683Y-129603087D01*
X108584246Y-129682524D01*
X108538866Y-129785301D01*
X108535951Y-129810428D01*
X108535951Y-131600159D01*
X108538865Y-131625280D01*
X108538865Y-131625282D01*
X108538866Y-131625283D01*
X108555299Y-131662500D01*
X108583078Y-131725414D01*
X108593238Y-131785515D01*
X108573534Y-131843196D01*
X108528727Y-131884519D01*
X108469643Y-131899500D01*
X97390046Y-131899500D01*
X97342593Y-131890061D01*
X97302365Y-131863181D01*
X96336819Y-130897634D01*
X96309939Y-130857406D01*
X96300500Y-130809953D01*
X96300500Y-121150000D01*
X142878590Y-121150000D01*
X142925233Y-121303764D01*
X143022731Y-121486171D01*
X143153945Y-121646054D01*
X143313828Y-121777268D01*
X143496235Y-121874766D01*
X143650000Y-121921410D01*
X143650000Y-121150000D01*
X144150000Y-121150000D01*
X144150000Y-121921410D01*
X144303764Y-121874766D01*
X144486171Y-121777268D01*
X144646054Y-121646054D01*
X144777268Y-121486171D01*
X144874766Y-121303764D01*
X144921410Y-121150000D01*
X144150000Y-121150000D01*
X143650000Y-121150000D01*
X142878590Y-121150000D01*
X96300500Y-121150000D01*
X96300500Y-120650000D01*
X142878590Y-120650000D01*
X143650000Y-120650000D01*
X143650000Y-119878590D01*
X144150000Y-119878590D01*
X144150000Y-120650000D01*
X144921410Y-120650000D01*
X144874766Y-120496235D01*
X144777268Y-120313828D01*
X144646054Y-120153945D01*
X144486171Y-120022731D01*
X144303764Y-119925233D01*
X144150000Y-119878590D01*
X143650000Y-119878590D01*
X143496235Y-119925233D01*
X143313828Y-120022731D01*
X143153945Y-120153945D01*
X143022731Y-120313828D01*
X142925233Y-120496235D01*
X142878590Y-120650000D01*
X96300500Y-120650000D01*
X96300500Y-108390519D01*
X96314015Y-108334224D01*
X96351615Y-108290201D01*
X96405102Y-108268046D01*
X96462818Y-108272588D01*
X96512181Y-108302838D01*
X96582350Y-108373007D01*
X96587470Y-108378445D01*
X96598167Y-108390519D01*
X96627364Y-108423476D01*
X96676861Y-108457641D01*
X96682894Y-108462080D01*
X96730235Y-108499169D01*
X96739466Y-108503323D01*
X96759018Y-108514350D01*
X96767362Y-108520110D01*
X96823614Y-108541443D01*
X96830520Y-108544304D01*
X96885360Y-108568986D01*
X96895322Y-108570811D01*
X96916942Y-108576838D01*
X96926417Y-108580431D01*
X96926420Y-108580432D01*
X96986148Y-108587684D01*
X96993493Y-108588801D01*
X97052686Y-108599649D01*
X97112714Y-108596018D01*
X97120202Y-108595792D01*
X98361560Y-108595792D01*
X98419186Y-108609995D01*
X98463610Y-108649352D01*
X98484656Y-108704846D01*
X98477502Y-108763763D01*
X98443787Y-108812607D01*
X98421817Y-108832070D01*
X98325182Y-108972069D01*
X98264860Y-109131127D01*
X98244354Y-109300000D01*
X98264860Y-109468872D01*
X98325182Y-109627930D01*
X98421815Y-109767927D01*
X98421816Y-109767928D01*
X98421817Y-109767929D01*
X98549148Y-109880734D01*
X98699775Y-109959790D01*
X98864944Y-110000500D01*
X99035055Y-110000500D01*
X99035056Y-110000500D01*
X99200225Y-109959790D01*
X99350852Y-109880734D01*
X99407067Y-109830931D01*
X99462658Y-109781684D01*
X99500914Y-109758558D01*
X99544884Y-109750500D01*
X100155116Y-109750500D01*
X100199086Y-109758558D01*
X100237342Y-109781684D01*
X100308961Y-109845132D01*
X100349148Y-109880734D01*
X100499775Y-109959790D01*
X100664944Y-110000500D01*
X100835055Y-110000500D01*
X100835056Y-110000500D01*
X101000225Y-109959790D01*
X101150852Y-109880734D01*
X101278183Y-109767929D01*
X101374818Y-109627930D01*
X101435140Y-109468872D01*
X101455645Y-109300000D01*
X101435140Y-109131128D01*
X101374818Y-108972070D01*
X101278183Y-108832071D01*
X101256213Y-108812607D01*
X101222498Y-108763763D01*
X101215344Y-108704846D01*
X101236390Y-108649352D01*
X101280814Y-108609995D01*
X101338440Y-108595792D01*
X106575500Y-108595792D01*
X106637500Y-108612405D01*
X106682887Y-108657792D01*
X106699500Y-108719792D01*
X106699500Y-112875079D01*
X106699274Y-112882566D01*
X106695641Y-112942607D01*
X106706483Y-113001771D01*
X106707610Y-113009172D01*
X106714860Y-113068873D01*
X106718450Y-113078339D01*
X106724475Y-113099952D01*
X106726303Y-113109929D01*
X106750991Y-113164783D01*
X106753856Y-113171701D01*
X106775180Y-113227926D01*
X106775182Y-113227930D01*
X106780941Y-113236273D01*
X106791961Y-113255813D01*
X106796120Y-113265054D01*
X106833216Y-113312405D01*
X106837651Y-113318432D01*
X106871817Y-113367929D01*
X106916847Y-113407822D01*
X106922283Y-113412940D01*
X107524632Y-114015289D01*
X107551512Y-114055517D01*
X107560951Y-114102970D01*
X107560951Y-115345418D01*
X107560047Y-115360365D01*
X107555805Y-115395292D01*
X107576311Y-115564164D01*
X107636633Y-115723222D01*
X107733266Y-115863219D01*
X107733267Y-115863220D01*
X107733268Y-115863221D01*
X107860599Y-115976026D01*
X108011226Y-116055082D01*
X108176395Y-116095792D01*
X108346507Y-116095792D01*
X108407277Y-116080814D01*
X108462977Y-116079973D01*
X108513424Y-116103600D01*
X108548438Y-116146928D01*
X108560951Y-116201211D01*
X108560951Y-116507327D01*
X108551512Y-116554780D01*
X108524632Y-116595008D01*
X107911167Y-117208473D01*
X107870939Y-117235353D01*
X107823486Y-117244792D01*
X107456335Y-117244792D01*
X107412365Y-117236734D01*
X107374109Y-117213608D01*
X107262304Y-117114559D01*
X107262303Y-117114558D01*
X107149152Y-117055171D01*
X107111675Y-117035501D01*
X106956739Y-116997314D01*
X106946507Y-116994792D01*
X106776395Y-116994792D01*
X106766163Y-116997314D01*
X106611226Y-117035501D01*
X106460600Y-117114557D01*
X106333266Y-117227364D01*
X106236633Y-117367361D01*
X106176311Y-117526419D01*
X106155805Y-117695292D01*
X106176311Y-117864164D01*
X106236633Y-118023222D01*
X106333266Y-118163219D01*
X106333267Y-118163220D01*
X106333268Y-118163221D01*
X106460599Y-118276026D01*
X106611226Y-118355082D01*
X106776395Y-118395792D01*
X106946506Y-118395792D01*
X106946507Y-118395792D01*
X107111676Y-118355082D01*
X107262303Y-118276026D01*
X107318518Y-118226223D01*
X107374109Y-118176976D01*
X107412365Y-118153850D01*
X107456335Y-118145792D01*
X108029189Y-118145792D01*
X108043073Y-118146572D01*
X108078484Y-118150562D01*
X108078484Y-118150561D01*
X108078486Y-118150562D01*
X108134679Y-118139928D01*
X108139177Y-118139164D01*
X108195738Y-118130640D01*
X108195739Y-118130639D01*
X108201719Y-118129738D01*
X108206579Y-118128138D01*
X108211918Y-118125315D01*
X108211923Y-118125315D01*
X108262496Y-118098584D01*
X108266587Y-118096519D01*
X108318093Y-118071717D01*
X108318095Y-118071714D01*
X108323529Y-118069098D01*
X108327722Y-118066123D01*
X108331984Y-118061860D01*
X108331989Y-118061858D01*
X108372453Y-118021392D01*
X108375711Y-118018254D01*
X108417645Y-117979347D01*
X108417646Y-117979345D01*
X108422064Y-117975246D01*
X108433484Y-117960361D01*
X108803876Y-117589971D01*
X108803876Y-117589970D01*
X109307200Y-117086645D01*
X109317549Y-117077397D01*
X109345421Y-117055171D01*
X109377642Y-117007910D01*
X109380303Y-117004161D01*
X109414243Y-116958175D01*
X109414243Y-116958173D01*
X109417827Y-116953318D01*
X109420146Y-116948723D01*
X109421921Y-116942967D01*
X109421923Y-116942965D01*
X109438779Y-116888317D01*
X109440209Y-116883967D01*
X109459097Y-116829992D01*
X109459097Y-116829987D01*
X109461088Y-116824298D01*
X109461951Y-116819224D01*
X109461951Y-116756031D01*
X109462038Y-116751394D01*
X109464400Y-116688262D01*
X109461951Y-116669657D01*
X109461951Y-109297092D01*
X109467566Y-109260200D01*
X109483903Y-109226650D01*
X109484337Y-109226020D01*
X109486269Y-109223222D01*
X109546591Y-109064164D01*
X109567096Y-108895292D01*
X109566472Y-108890157D01*
X109547601Y-108734739D01*
X109558669Y-108666634D01*
X109604423Y-108614988D01*
X109670697Y-108595792D01*
X121953773Y-108595792D01*
X122001226Y-108605231D01*
X122041454Y-108632111D01*
X123549632Y-110140289D01*
X123576512Y-110180517D01*
X123585951Y-110227970D01*
X123585951Y-113755418D01*
X123585047Y-113770365D01*
X123580805Y-113805291D01*
X123585047Y-113840219D01*
X123585951Y-113855166D01*
X123585951Y-115355418D01*
X123585047Y-115370365D01*
X123580805Y-115405292D01*
X123585951Y-115447664D01*
X123601311Y-115574164D01*
X123661633Y-115733222D01*
X123758266Y-115873219D01*
X123758267Y-115873220D01*
X123758268Y-115873221D01*
X123885599Y-115986026D01*
X124036226Y-116065082D01*
X124201395Y-116105792D01*
X124371507Y-116105792D01*
X124432277Y-116090814D01*
X124487977Y-116089973D01*
X124538424Y-116113600D01*
X124573438Y-116156928D01*
X124585951Y-116211211D01*
X124585951Y-116517327D01*
X124576512Y-116564780D01*
X124549632Y-116605008D01*
X124157327Y-116997310D01*
X124157325Y-116997314D01*
X123936167Y-117218473D01*
X123895939Y-117245353D01*
X123848486Y-117254792D01*
X123481335Y-117254792D01*
X123437365Y-117246734D01*
X123399109Y-117223608D01*
X123287304Y-117124559D01*
X123287303Y-117124558D01*
X123205702Y-117081730D01*
X123136675Y-117045501D01*
X122984303Y-117007946D01*
X122971507Y-117004792D01*
X122801395Y-117004792D01*
X122788599Y-117007946D01*
X122636226Y-117045501D01*
X122485600Y-117124557D01*
X122358266Y-117237364D01*
X122261633Y-117377361D01*
X122201311Y-117536419D01*
X122180805Y-117705292D01*
X122201311Y-117874164D01*
X122261633Y-118033222D01*
X122358266Y-118173219D01*
X122358267Y-118173220D01*
X122358268Y-118173221D01*
X122485599Y-118286026D01*
X122636226Y-118365082D01*
X122801395Y-118405792D01*
X122971506Y-118405792D01*
X122971507Y-118405792D01*
X123136676Y-118365082D01*
X123287303Y-118286026D01*
X123343518Y-118236223D01*
X123399109Y-118186976D01*
X123437365Y-118163850D01*
X123481335Y-118155792D01*
X124054189Y-118155792D01*
X124068073Y-118156572D01*
X124103484Y-118160562D01*
X124103484Y-118160561D01*
X124103486Y-118160562D01*
X124159679Y-118149928D01*
X124164177Y-118149164D01*
X124220738Y-118140640D01*
X124220739Y-118140639D01*
X124226719Y-118139738D01*
X124231579Y-118138138D01*
X124236918Y-118135315D01*
X124236923Y-118135315D01*
X124287496Y-118108584D01*
X124291587Y-118106519D01*
X124343093Y-118081717D01*
X124343095Y-118081714D01*
X124348529Y-118079098D01*
X124352722Y-118076123D01*
X124356984Y-118071860D01*
X124356989Y-118071858D01*
X124397453Y-118031392D01*
X124400711Y-118028254D01*
X124442645Y-117989347D01*
X124442646Y-117989345D01*
X124447064Y-117985246D01*
X124458484Y-117970361D01*
X124828876Y-117599971D01*
X124828876Y-117599970D01*
X125332200Y-117096645D01*
X125342549Y-117087397D01*
X125370421Y-117065171D01*
X125402642Y-117017910D01*
X125405303Y-117014161D01*
X125412218Y-117004792D01*
X125439243Y-116968175D01*
X125439243Y-116968173D01*
X125442827Y-116963318D01*
X125445146Y-116958723D01*
X125446921Y-116952967D01*
X125446923Y-116952965D01*
X125463779Y-116898317D01*
X125465209Y-116893967D01*
X125484097Y-116839992D01*
X125484097Y-116839987D01*
X125486088Y-116834298D01*
X125486951Y-116829224D01*
X125486951Y-116766031D01*
X125487038Y-116761394D01*
X125489400Y-116698262D01*
X125486951Y-116679657D01*
X125486951Y-109307092D01*
X125492566Y-109270200D01*
X125508903Y-109236650D01*
X125509337Y-109236020D01*
X125511269Y-109233222D01*
X125571591Y-109074164D01*
X125592096Y-108905292D01*
X125571591Y-108736420D01*
X125511269Y-108577362D01*
X125414634Y-108437363D01*
X125287303Y-108324558D01*
X125273039Y-108317071D01*
X125136675Y-108245501D01*
X125012216Y-108214825D01*
X124971507Y-108204792D01*
X124801395Y-108204792D01*
X124768735Y-108212841D01*
X124636226Y-108245501D01*
X124485600Y-108324557D01*
X124358266Y-108437364D01*
X124261632Y-108577362D01*
X124248907Y-108610917D01*
X124213781Y-108660993D01*
X124158990Y-108688184D01*
X124097867Y-108685875D01*
X124045284Y-108654627D01*
X122808232Y-107417575D01*
X122803114Y-107412139D01*
X122763221Y-107367109D01*
X122713724Y-107332943D01*
X122707697Y-107328508D01*
X122660346Y-107291412D01*
X122651105Y-107287253D01*
X122631565Y-107276233D01*
X122623222Y-107270474D01*
X122623219Y-107270473D01*
X122623218Y-107270472D01*
X122566993Y-107249148D01*
X122560075Y-107246283D01*
X122505221Y-107221595D01*
X122495244Y-107219767D01*
X122473631Y-107213742D01*
X122464165Y-107210152D01*
X122404464Y-107202902D01*
X122397063Y-107201775D01*
X122337899Y-107190933D01*
X122277858Y-107194566D01*
X122270371Y-107194792D01*
X108147080Y-107194792D01*
X108129629Y-107194792D01*
X108122142Y-107194566D01*
X108092303Y-107192761D01*
X108062102Y-107190934D01*
X108062101Y-107190934D01*
X108052132Y-107192761D01*
X108029781Y-107194792D01*
X97436811Y-107194792D01*
X97389358Y-107185353D01*
X97349130Y-107158473D01*
X96336819Y-106146162D01*
X96309939Y-106105934D01*
X96300500Y-106058481D01*
X96300500Y-97924048D01*
X96300501Y-97924036D01*
X96300501Y-97686221D01*
X96291542Y-97635414D01*
X96290130Y-97624687D01*
X96288239Y-97603072D01*
X96285635Y-97573308D01*
X96272281Y-97523471D01*
X96269940Y-97512909D01*
X96268935Y-97507207D01*
X96260985Y-97462120D01*
X96244575Y-97417034D01*
X96243341Y-97413644D01*
X96240088Y-97403325D01*
X96226740Y-97353508D01*
X96226739Y-97353504D01*
X96204932Y-97306741D01*
X96200801Y-97296768D01*
X96183156Y-97248285D01*
X96157350Y-97203588D01*
X96152371Y-97194023D01*
X96130568Y-97147266D01*
X96100979Y-97105008D01*
X96095167Y-97095885D01*
X96069376Y-97051213D01*
X96036225Y-97011707D01*
X96029650Y-97003139D01*
X96000047Y-96960861D01*
X96000046Y-96960860D01*
X96000044Y-96960857D01*
X95831892Y-96792705D01*
X95831872Y-96792688D01*
X93136819Y-94097634D01*
X93109939Y-94057406D01*
X93100500Y-94009953D01*
X93100500Y-86741519D01*
X93109939Y-86694066D01*
X93136819Y-86653838D01*
X93953838Y-85836819D01*
X93994066Y-85809939D01*
X94041519Y-85800500D01*
X98301690Y-85800500D01*
X98357985Y-85814015D01*
X98402008Y-85851615D01*
X98424163Y-85905102D01*
X98419621Y-85962818D01*
X98389371Y-86012181D01*
X97904764Y-86496786D01*
X97894398Y-86506050D01*
X97866531Y-86528273D01*
X97834324Y-86575511D01*
X97831644Y-86579287D01*
X97794133Y-86630114D01*
X97791801Y-86634733D01*
X97773174Y-86695121D01*
X97771725Y-86699524D01*
X97750869Y-86759128D01*
X97750000Y-86764245D01*
X97750000Y-86827417D01*
X97749913Y-86832054D01*
X97747550Y-86895184D01*
X97750000Y-86913790D01*
X97750000Y-89606999D01*
X97739076Y-89657890D01*
X97708227Y-89699814D01*
X97671817Y-89732069D01*
X97575182Y-89872069D01*
X97514860Y-90031127D01*
X97494354Y-90199999D01*
X97514860Y-90368872D01*
X97575182Y-90527930D01*
X97671815Y-90667927D01*
X97671816Y-90667928D01*
X97671817Y-90667929D01*
X97799148Y-90780734D01*
X97949775Y-90859790D01*
X98114944Y-90900500D01*
X98285055Y-90900500D01*
X98285056Y-90900500D01*
X98450225Y-90859790D01*
X98600852Y-90780734D01*
X98728183Y-90667929D01*
X98824818Y-90527930D01*
X98885140Y-90368872D01*
X98905645Y-90200000D01*
X98885140Y-90031128D01*
X98824818Y-89872070D01*
X98746955Y-89759267D01*
X98728182Y-89732069D01*
X98692773Y-89700700D01*
X98661924Y-89658776D01*
X98651000Y-89607885D01*
X98651000Y-87076121D01*
X98660439Y-87028668D01*
X98687319Y-86988440D01*
X99338939Y-86336819D01*
X99379167Y-86309939D01*
X99426620Y-86300500D01*
X99744494Y-86300500D01*
X99810768Y-86319697D01*
X99856522Y-86371342D01*
X99867590Y-86439447D01*
X99847363Y-86606018D01*
X99867869Y-86774890D01*
X99928191Y-86933948D01*
X100024824Y-87073945D01*
X100024825Y-87073946D01*
X100024826Y-87073947D01*
X100152157Y-87186752D01*
X100302784Y-87265808D01*
X100467953Y-87306518D01*
X100638064Y-87306518D01*
X100638065Y-87306518D01*
X100803234Y-87265808D01*
X100953861Y-87186752D01*
X101036906Y-87113181D01*
X101065667Y-87087702D01*
X101103923Y-87064576D01*
X101147893Y-87056518D01*
X101268052Y-87056518D01*
X101315505Y-87065957D01*
X101355730Y-87092834D01*
X101513183Y-87250286D01*
X101540061Y-87290512D01*
X101549500Y-87337965D01*
X101549500Y-92292161D01*
X101533506Y-92353077D01*
X101489649Y-92398278D01*
X101429244Y-92416104D01*
X101367873Y-92401957D01*
X101360863Y-92398278D01*
X101347590Y-92391311D01*
X101341075Y-92387636D01*
X101289606Y-92356522D01*
X101279929Y-92353506D01*
X101259193Y-92344917D01*
X101250224Y-92340209D01*
X101191823Y-92325814D01*
X101184612Y-92323804D01*
X101127195Y-92305913D01*
X101117080Y-92305301D01*
X101094905Y-92301927D01*
X101085056Y-92299500D01*
X101024921Y-92299500D01*
X101017434Y-92299274D01*
X100987595Y-92297469D01*
X100957394Y-92295642D01*
X100957393Y-92295642D01*
X100947424Y-92297469D01*
X100925073Y-92299500D01*
X100914942Y-92299500D01*
X100856560Y-92313889D01*
X100849241Y-92315461D01*
X100830468Y-92318901D01*
X100790069Y-92326305D01*
X100790067Y-92326305D01*
X100790066Y-92326306D01*
X100780817Y-92330468D01*
X100759620Y-92337782D01*
X100749779Y-92340208D01*
X100749775Y-92340209D01*
X100749775Y-92340210D01*
X100730826Y-92350155D01*
X100696522Y-92368159D01*
X100689792Y-92371435D01*
X100634941Y-92396122D01*
X100626956Y-92402378D01*
X100608126Y-92414553D01*
X100599146Y-92419266D01*
X100554140Y-92459138D01*
X100548393Y-92463928D01*
X100534631Y-92474710D01*
X100522286Y-92487055D01*
X100516839Y-92492182D01*
X100471817Y-92532069D01*
X100466057Y-92540414D01*
X100451692Y-92557649D01*
X98322290Y-94687051D01*
X98316838Y-94692183D01*
X98271816Y-94732070D01*
X98237649Y-94781568D01*
X98233213Y-94787597D01*
X98196121Y-94834942D01*
X98191961Y-94844186D01*
X98180941Y-94863725D01*
X98175182Y-94872069D01*
X98153853Y-94928305D01*
X98150989Y-94935219D01*
X98126303Y-94990070D01*
X98124475Y-95000047D01*
X98118454Y-95021648D01*
X98114859Y-95031128D01*
X98107609Y-95090827D01*
X98106483Y-95098226D01*
X98095641Y-95157391D01*
X98099274Y-95217434D01*
X98099500Y-95224921D01*
X98099500Y-95550126D01*
X98098596Y-95565073D01*
X98094354Y-95600000D01*
X98114860Y-95768872D01*
X98175182Y-95927930D01*
X98271815Y-96067927D01*
X98271816Y-96067928D01*
X98271817Y-96067929D01*
X98399148Y-96180734D01*
X98549775Y-96259790D01*
X98714944Y-96300500D01*
X98885055Y-96300500D01*
X98885056Y-96300500D01*
X99050225Y-96259790D01*
X99200852Y-96180734D01*
X99328183Y-96067929D01*
X99424818Y-95927930D01*
X99485140Y-95768872D01*
X99505645Y-95600000D01*
X99501403Y-95565072D01*
X99500500Y-95550126D01*
X99500500Y-95541519D01*
X99509939Y-95494066D01*
X99536819Y-95453838D01*
X100404956Y-94585701D01*
X101337819Y-93652836D01*
X101387182Y-93622587D01*
X101444898Y-93618045D01*
X101498385Y-93640200D01*
X101535985Y-93684223D01*
X101549500Y-93740518D01*
X101549500Y-97367738D01*
X101548720Y-97381622D01*
X101544729Y-97417034D01*
X101555356Y-97473194D01*
X101556133Y-97477766D01*
X101565550Y-97540248D01*
X101567163Y-97545148D01*
X101596687Y-97601010D01*
X101598777Y-97605150D01*
X101626184Y-97662060D01*
X101629183Y-97666287D01*
X101673847Y-97710951D01*
X101677064Y-97714291D01*
X101720040Y-97760608D01*
X101734930Y-97772034D01*
X102358634Y-98395738D01*
X102367900Y-98406106D01*
X102390121Y-98433970D01*
X102437336Y-98466161D01*
X102441117Y-98468843D01*
X102491968Y-98506372D01*
X102496576Y-98508698D01*
X102502326Y-98510471D01*
X102502327Y-98510472D01*
X102557001Y-98527336D01*
X102561337Y-98528763D01*
X102615300Y-98547646D01*
X102615302Y-98547646D01*
X102620989Y-98549636D01*
X102626070Y-98550500D01*
X102632098Y-98550500D01*
X102689261Y-98550500D01*
X102693898Y-98550587D01*
X102751010Y-98552724D01*
X102751010Y-98552723D01*
X102757029Y-98552949D01*
X102775635Y-98550500D01*
X106305116Y-98550500D01*
X106349086Y-98558558D01*
X106387342Y-98581684D01*
X106451024Y-98638100D01*
X106499148Y-98680734D01*
X106649775Y-98759790D01*
X106814944Y-98800500D01*
X106985055Y-98800500D01*
X106985056Y-98800500D01*
X107150225Y-98759790D01*
X107300852Y-98680734D01*
X107428183Y-98567929D01*
X107524818Y-98427930D01*
X107585140Y-98268872D01*
X107605645Y-98100000D01*
X107585140Y-97931128D01*
X107524818Y-97772070D01*
X107445143Y-97656642D01*
X107428184Y-97632072D01*
X107408084Y-97614265D01*
X107300852Y-97519266D01*
X107229833Y-97481992D01*
X107150224Y-97440209D01*
X107021822Y-97408562D01*
X106985056Y-97399500D01*
X106814944Y-97399500D01*
X106782284Y-97407549D01*
X106649775Y-97440209D01*
X106499146Y-97519267D01*
X106387342Y-97618316D01*
X106349086Y-97641442D01*
X106305116Y-97649500D01*
X102937965Y-97649500D01*
X102890512Y-97640061D01*
X102850284Y-97613181D01*
X102486819Y-97249716D01*
X102459939Y-97209488D01*
X102450500Y-97162035D01*
X102450500Y-87132262D01*
X102451280Y-87118378D01*
X102455270Y-87082966D01*
X102453975Y-87076121D01*
X102444635Y-87026761D01*
X102443864Y-87022220D01*
X102443419Y-87019265D01*
X102435348Y-86965713D01*
X102435347Y-86965711D01*
X102434448Y-86959746D01*
X102432842Y-86954864D01*
X102430023Y-86949531D01*
X102430023Y-86949528D01*
X102403282Y-86898933D01*
X102401220Y-86894847D01*
X102386481Y-86864241D01*
X102376425Y-86843358D01*
X102373814Y-86837936D01*
X102370818Y-86833714D01*
X102326152Y-86789048D01*
X102322934Y-86785708D01*
X102320923Y-86783541D01*
X102284055Y-86743806D01*
X102284053Y-86743805D01*
X102279958Y-86739391D01*
X102265070Y-86727966D01*
X102162377Y-86625273D01*
X102049283Y-86512179D01*
X102019034Y-86462818D01*
X102014492Y-86405102D01*
X102036647Y-86351615D01*
X102080670Y-86314015D01*
X102136965Y-86300500D01*
X109904558Y-86300500D01*
X109952011Y-86309939D01*
X109992239Y-86336819D01*
X110075457Y-86420037D01*
X110084723Y-86430405D01*
X110106944Y-86458269D01*
X110154173Y-86490470D01*
X110157956Y-86493154D01*
X110208789Y-86530671D01*
X110213391Y-86532994D01*
X110219148Y-86534769D01*
X110219150Y-86534771D01*
X110273777Y-86551620D01*
X110278181Y-86553069D01*
X110332123Y-86571945D01*
X110332125Y-86571945D01*
X110337812Y-86573935D01*
X110342893Y-86574799D01*
X110348921Y-86574799D01*
X110406084Y-86574799D01*
X110410721Y-86574886D01*
X110467833Y-86577023D01*
X110467833Y-86577022D01*
X110473852Y-86577248D01*
X110492458Y-86574799D01*
X113686333Y-86574799D01*
X113733786Y-86584238D01*
X113774014Y-86611118D01*
X114850715Y-87687819D01*
X114880965Y-87737182D01*
X114885507Y-87794898D01*
X114863352Y-87848385D01*
X114819329Y-87885985D01*
X114763034Y-87899500D01*
X112401056Y-87899500D01*
X112355563Y-87890853D01*
X112336457Y-87883318D01*
X112313943Y-87871652D01*
X112308655Y-87868183D01*
X112258482Y-87852259D01*
X112250521Y-87849429D01*
X112201564Y-87830124D01*
X112201563Y-87830123D01*
X112201561Y-87830123D01*
X112195267Y-87829476D01*
X112170452Y-87824319D01*
X112164415Y-87822404D01*
X112157542Y-87822169D01*
X112111820Y-87820607D01*
X112103376Y-87820029D01*
X112061494Y-87815724D01*
X112051028Y-87814648D01*
X112051027Y-87814648D01*
X112044782Y-87815724D01*
X112019501Y-87817453D01*
X112013174Y-87817237D01*
X111962049Y-87829695D01*
X111953765Y-87831416D01*
X111901898Y-87840359D01*
X111896176Y-87843081D01*
X111872294Y-87851569D01*
X111866147Y-87853067D01*
X111820291Y-87878850D01*
X111812777Y-87882743D01*
X111765237Y-87905352D01*
X111760460Y-87909518D01*
X111739750Y-87924137D01*
X111734238Y-87927236D01*
X111697045Y-87964429D01*
X111690861Y-87970205D01*
X111651180Y-88004806D01*
X111647707Y-88010101D01*
X111631707Y-88029766D01*
X111548718Y-88112756D01*
X111490711Y-88145472D01*
X111349775Y-88180209D01*
X111199149Y-88259265D01*
X111071815Y-88372072D01*
X110975182Y-88512069D01*
X110914860Y-88671127D01*
X110894354Y-88840000D01*
X110914860Y-89008872D01*
X110975182Y-89167930D01*
X111071815Y-89307927D01*
X111071816Y-89307928D01*
X111071817Y-89307929D01*
X111199148Y-89420734D01*
X111349775Y-89499790D01*
X111514944Y-89540500D01*
X111514945Y-89540500D01*
X111529563Y-89544103D01*
X111528919Y-89546714D01*
X111559329Y-89554015D01*
X111603352Y-89591615D01*
X111625507Y-89645102D01*
X111620965Y-89702818D01*
X111590715Y-89752181D01*
X111234264Y-90108631D01*
X111223898Y-90117895D01*
X111196031Y-90140118D01*
X111163824Y-90187356D01*
X111161144Y-90191132D01*
X111123633Y-90241959D01*
X111121301Y-90246578D01*
X111102674Y-90306966D01*
X111101225Y-90311369D01*
X111080369Y-90370973D01*
X111079500Y-90376090D01*
X111079500Y-90439262D01*
X111079413Y-90443899D01*
X111077050Y-90507029D01*
X111079500Y-90525635D01*
X111079500Y-93437442D01*
X111068576Y-93488333D01*
X111037727Y-93530257D01*
X111001817Y-93562069D01*
X110905182Y-93702069D01*
X110844860Y-93861127D01*
X110824354Y-94030000D01*
X110844860Y-94198872D01*
X110905182Y-94357930D01*
X111001815Y-94497927D01*
X111001816Y-94497928D01*
X111001817Y-94497929D01*
X111129148Y-94610734D01*
X111279775Y-94689790D01*
X111444944Y-94730500D01*
X111615055Y-94730500D01*
X111615056Y-94730500D01*
X111780225Y-94689790D01*
X111930852Y-94610734D01*
X112058183Y-94497929D01*
X112154818Y-94357930D01*
X112215140Y-94198872D01*
X112235645Y-94030000D01*
X112215140Y-93861128D01*
X112154818Y-93702070D01*
X112111453Y-93639245D01*
X112058182Y-93562069D01*
X112022273Y-93530257D01*
X111991424Y-93488333D01*
X111980500Y-93437442D01*
X111980500Y-90687966D01*
X111989939Y-90640513D01*
X112016819Y-90600285D01*
X113050284Y-89566819D01*
X113090512Y-89539939D01*
X113137965Y-89530500D01*
X116663782Y-89530500D01*
X116721407Y-89544703D01*
X116765832Y-89584060D01*
X116786878Y-89639553D01*
X116779724Y-89698470D01*
X116758421Y-89754641D01*
X116736101Y-89938463D01*
X116733203Y-89938111D01*
X116729285Y-89970340D01*
X116695571Y-90019174D01*
X116643026Y-90046750D01*
X116589235Y-90060008D01*
X116438610Y-90139063D01*
X116311275Y-90251871D01*
X116214642Y-90391868D01*
X116154320Y-90550926D01*
X116133814Y-90719799D01*
X116154320Y-90888671D01*
X116214642Y-91047729D01*
X116311275Y-91187726D01*
X116311276Y-91187727D01*
X116311277Y-91187728D01*
X116438608Y-91300533D01*
X116589235Y-91379589D01*
X116754404Y-91420299D01*
X116851495Y-91420299D01*
X116898948Y-91429738D01*
X116939176Y-91456618D01*
X117058291Y-91575733D01*
X117067557Y-91586101D01*
X117089781Y-91613969D01*
X117137025Y-91646180D01*
X117140806Y-91648863D01*
X117191634Y-91686376D01*
X117196229Y-91688695D01*
X117201986Y-91690470D01*
X117201988Y-91690472D01*
X117227012Y-91698190D01*
X117256641Y-91707330D01*
X117261032Y-91708774D01*
X117314962Y-91727646D01*
X117314964Y-91727646D01*
X117320651Y-91729636D01*
X117325732Y-91730500D01*
X117331759Y-91730500D01*
X117388907Y-91730500D01*
X117393544Y-91730586D01*
X117450671Y-91732725D01*
X117450671Y-91732724D01*
X117456687Y-91732950D01*
X117475299Y-91730500D01*
X119472034Y-91730500D01*
X119519487Y-91739939D01*
X119559715Y-91766819D01*
X119816227Y-92023331D01*
X119847992Y-92077714D01*
X119848943Y-92140687D01*
X119818836Y-92196005D01*
X119765437Y-92229397D01*
X119702521Y-92232250D01*
X119646322Y-92203829D01*
X119637981Y-92196440D01*
X119568572Y-92160011D01*
X119487353Y-92117383D01*
X119326404Y-92077714D01*
X119322185Y-92076674D01*
X119152073Y-92076674D01*
X119147854Y-92077714D01*
X118986904Y-92117383D01*
X118836278Y-92196439D01*
X118836276Y-92196440D01*
X118836277Y-92196440D01*
X118708946Y-92309245D01*
X118644661Y-92402378D01*
X118642151Y-92406014D01*
X118597726Y-92445370D01*
X118540100Y-92459573D01*
X118482475Y-92445369D01*
X118340226Y-92370710D01*
X118216476Y-92340209D01*
X118175056Y-92330000D01*
X118004944Y-92330000D01*
X117984301Y-92335088D01*
X117839775Y-92370709D01*
X117689149Y-92449765D01*
X117561815Y-92562572D01*
X117465182Y-92702569D01*
X117404860Y-92861627D01*
X117384354Y-93030500D01*
X117404860Y-93199372D01*
X117465182Y-93358430D01*
X117561815Y-93498427D01*
X117561816Y-93498428D01*
X117561817Y-93498429D01*
X117689148Y-93611234D01*
X117839775Y-93690290D01*
X118004944Y-93731000D01*
X118102034Y-93731000D01*
X118149487Y-93740439D01*
X118189715Y-93767319D01*
X118411293Y-93988896D01*
X118438173Y-94029124D01*
X118447612Y-94076577D01*
X118447612Y-100055425D01*
X118431618Y-100116341D01*
X118387761Y-100161542D01*
X118327356Y-100179368D01*
X118265985Y-100165221D01*
X118258975Y-100161542D01*
X118241051Y-100152134D01*
X118180224Y-100120209D01*
X118055764Y-100089533D01*
X118015056Y-100079500D01*
X117844944Y-100079500D01*
X117812284Y-100087549D01*
X117679775Y-100120209D01*
X117529146Y-100199267D01*
X117417342Y-100298316D01*
X117379086Y-100321442D01*
X117335116Y-100329500D01*
X111167967Y-100329500D01*
X111120515Y-100320061D01*
X111080286Y-100293182D01*
X110986819Y-100199716D01*
X110959939Y-100159487D01*
X110950500Y-100112034D01*
X110950500Y-99092558D01*
X110961424Y-99041667D01*
X110992273Y-98999743D01*
X111028182Y-98967930D01*
X111028183Y-98967929D01*
X111124818Y-98827930D01*
X111185140Y-98668872D01*
X111205645Y-98500000D01*
X111185140Y-98331128D01*
X111124818Y-98172070D01*
X111028183Y-98032071D01*
X110900852Y-97919266D01*
X110883197Y-97910000D01*
X110750224Y-97840209D01*
X110625764Y-97809533D01*
X110585056Y-97799500D01*
X110414944Y-97799500D01*
X110382284Y-97807549D01*
X110249775Y-97840209D01*
X110099149Y-97919265D01*
X109971815Y-98032072D01*
X109875182Y-98172069D01*
X109814860Y-98331127D01*
X109794354Y-98499999D01*
X109814860Y-98668872D01*
X109875182Y-98827930D01*
X109971817Y-98967930D01*
X110007727Y-98999743D01*
X110038576Y-99041667D01*
X110049500Y-99092558D01*
X110049500Y-100317738D01*
X110048720Y-100331622D01*
X110044729Y-100367034D01*
X110055356Y-100423194D01*
X110056130Y-100427751D01*
X110057629Y-100437690D01*
X110065550Y-100490248D01*
X110067163Y-100495148D01*
X110096687Y-100551010D01*
X110098777Y-100555150D01*
X110126184Y-100612062D01*
X110129180Y-100616283D01*
X110133432Y-100620535D01*
X110133434Y-100620538D01*
X110173871Y-100660974D01*
X110177064Y-100664289D01*
X110220043Y-100710611D01*
X110234931Y-100722035D01*
X110588630Y-101075733D01*
X110597896Y-101086101D01*
X110620120Y-101113969D01*
X110667364Y-101146180D01*
X110671145Y-101148863D01*
X110721973Y-101186376D01*
X110726568Y-101188695D01*
X110732325Y-101190470D01*
X110732327Y-101190472D01*
X110757351Y-101198190D01*
X110786980Y-101207330D01*
X110791371Y-101208774D01*
X110845301Y-101227646D01*
X110845303Y-101227646D01*
X110850990Y-101229636D01*
X110856071Y-101230500D01*
X110862098Y-101230500D01*
X110919246Y-101230500D01*
X110923883Y-101230586D01*
X110981010Y-101232725D01*
X110981010Y-101232724D01*
X110987026Y-101232950D01*
X111005638Y-101230500D01*
X117335116Y-101230500D01*
X117379086Y-101238558D01*
X117417342Y-101261683D01*
X117437727Y-101279742D01*
X117468575Y-101321666D01*
X117479500Y-101372558D01*
X117479500Y-103547738D01*
X117478720Y-103561622D01*
X117474729Y-103597034D01*
X117485356Y-103653194D01*
X117486133Y-103657766D01*
X117495550Y-103720248D01*
X117497163Y-103725148D01*
X117526687Y-103781010D01*
X117528777Y-103785150D01*
X117556184Y-103842060D01*
X117559183Y-103846287D01*
X117603846Y-103890950D01*
X117607063Y-103894289D01*
X117650043Y-103940611D01*
X117664930Y-103952034D01*
X119008630Y-105295733D01*
X119017896Y-105306101D01*
X119040120Y-105333969D01*
X119087364Y-105366180D01*
X119091141Y-105368860D01*
X119136344Y-105402222D01*
X119141973Y-105406376D01*
X119146564Y-105408694D01*
X119152325Y-105410471D01*
X119152327Y-105410472D01*
X119206983Y-105427330D01*
X119211342Y-105428765D01*
X119265300Y-105447646D01*
X119265303Y-105447646D01*
X119270991Y-105449636D01*
X119276071Y-105450500D01*
X119282098Y-105450500D01*
X119339261Y-105450500D01*
X119343898Y-105450587D01*
X119401010Y-105452724D01*
X119401010Y-105452723D01*
X119407029Y-105452949D01*
X119425635Y-105450500D01*
X125867738Y-105450500D01*
X125881622Y-105451280D01*
X125917033Y-105455270D01*
X125917033Y-105455269D01*
X125917035Y-105455270D01*
X125973228Y-105444636D01*
X125977726Y-105443872D01*
X126034287Y-105435348D01*
X126034288Y-105435347D01*
X126040268Y-105434446D01*
X126045128Y-105432846D01*
X126050467Y-105430023D01*
X126050472Y-105430023D01*
X126101045Y-105403292D01*
X126105136Y-105401227D01*
X126156642Y-105376425D01*
X126156644Y-105376422D01*
X126162078Y-105373806D01*
X126166271Y-105370831D01*
X126170533Y-105366568D01*
X126170538Y-105366566D01*
X126211001Y-105326101D01*
X126214259Y-105322962D01*
X126256194Y-105284055D01*
X126256195Y-105284053D01*
X126260613Y-105279954D01*
X126272033Y-105265069D01*
X126685744Y-104851357D01*
X126696093Y-104842109D01*
X126723970Y-104819879D01*
X126756191Y-104772618D01*
X126758859Y-104768859D01*
X126792793Y-104722882D01*
X126792794Y-104722877D01*
X126796381Y-104718018D01*
X126798692Y-104713441D01*
X126800470Y-104707675D01*
X126800472Y-104707673D01*
X126817330Y-104653014D01*
X126818775Y-104648626D01*
X126837646Y-104594699D01*
X126837646Y-104594695D01*
X126839637Y-104589006D01*
X126840500Y-104583932D01*
X126840500Y-104520754D01*
X126840587Y-104516117D01*
X126842692Y-104459862D01*
X126860797Y-104399841D01*
X126905949Y-104356347D01*
X126966605Y-104340499D01*
X127284867Y-104340499D01*
X127297427Y-104339042D01*
X127309991Y-104337585D01*
X127412765Y-104292206D01*
X127492206Y-104212765D01*
X127537585Y-104109991D01*
X127540500Y-104084865D01*
X127540499Y-102295136D01*
X127537585Y-102270009D01*
X127492206Y-102167235D01*
X127492204Y-102167233D01*
X127492204Y-102167232D01*
X127412767Y-102087795D01*
X127385216Y-102075630D01*
X127309991Y-102042415D01*
X127284864Y-102039500D01*
X126556242Y-102039500D01*
X126497578Y-102024746D01*
X126452875Y-101983993D01*
X126432771Y-101926941D01*
X126442050Y-101867167D01*
X126478503Y-101818894D01*
X126533453Y-101793612D01*
X126706198Y-101761321D01*
X126905019Y-101684298D01*
X127086302Y-101572052D01*
X127243872Y-101428407D01*
X127372366Y-101258255D01*
X127372366Y-101258253D01*
X127372368Y-101258252D01*
X127433590Y-101135300D01*
X127467405Y-101067389D01*
X127525756Y-100862310D01*
X127545429Y-100650000D01*
X127525756Y-100437690D01*
X127522932Y-100427766D01*
X127500806Y-100350000D01*
X127467405Y-100232611D01*
X127467014Y-100231827D01*
X127372368Y-100041747D01*
X127243873Y-99871594D01*
X127086301Y-99727947D01*
X126905017Y-99615701D01*
X126706198Y-99538679D01*
X126496610Y-99499500D01*
X126283390Y-99499500D01*
X126143664Y-99525619D01*
X126073801Y-99538679D01*
X125874982Y-99615701D01*
X125693698Y-99727947D01*
X125536126Y-99871594D01*
X125407631Y-100041747D01*
X125312595Y-100232609D01*
X125254243Y-100437689D01*
X125243471Y-100553951D01*
X125223367Y-100611003D01*
X125180589Y-100649999D01*
X125223367Y-100688996D01*
X125243471Y-100746048D01*
X125254243Y-100862310D01*
X125312595Y-101067390D01*
X125407631Y-101258252D01*
X125536126Y-101428405D01*
X125536128Y-101428407D01*
X125693698Y-101572052D01*
X125874981Y-101684298D01*
X126073802Y-101761321D01*
X126246546Y-101793612D01*
X126301496Y-101818894D01*
X126337950Y-101867166D01*
X126347229Y-101926941D01*
X126327125Y-101983993D01*
X126282422Y-102024745D01*
X126223758Y-102039500D01*
X125495132Y-102039500D01*
X125470011Y-102042414D01*
X125367232Y-102087795D01*
X125287795Y-102167232D01*
X125242415Y-102270009D01*
X125239500Y-102295136D01*
X125239500Y-104084867D01*
X125242414Y-104109988D01*
X125242414Y-104109990D01*
X125242415Y-104109991D01*
X125287196Y-104211410D01*
X125287795Y-104212767D01*
X125367232Y-104292204D01*
X125367233Y-104292204D01*
X125367235Y-104292206D01*
X125412212Y-104312065D01*
X125463774Y-104354481D01*
X125485867Y-104417485D01*
X125472086Y-104482813D01*
X125426427Y-104531526D01*
X125362126Y-104549500D01*
X119587965Y-104549500D01*
X119540512Y-104540061D01*
X119500284Y-104513181D01*
X118427103Y-103440000D01*
X122828590Y-103440000D01*
X122875233Y-103593764D01*
X122972731Y-103776171D01*
X123103945Y-103936054D01*
X123263828Y-104067268D01*
X123446235Y-104164766D01*
X123600000Y-104211410D01*
X123600000Y-103440000D01*
X124100000Y-103440000D01*
X124100000Y-104211410D01*
X124253764Y-104164766D01*
X124436171Y-104067268D01*
X124596054Y-103936054D01*
X124727268Y-103776171D01*
X124824766Y-103593764D01*
X124871410Y-103440000D01*
X124100000Y-103440000D01*
X123600000Y-103440000D01*
X122828590Y-103440000D01*
X118427103Y-103440000D01*
X118416819Y-103429716D01*
X118389939Y-103389488D01*
X118380500Y-103342035D01*
X118380500Y-102085501D01*
X118396494Y-102024585D01*
X118440351Y-101979384D01*
X118500756Y-101961558D01*
X118562126Y-101975704D01*
X118647887Y-102020716D01*
X118813056Y-102061426D01*
X118832996Y-102061426D01*
X118890622Y-102075630D01*
X118935046Y-102114986D01*
X118956092Y-102170480D01*
X118962472Y-102223027D01*
X119022794Y-102382085D01*
X119119427Y-102522082D01*
X119119428Y-102522083D01*
X119119429Y-102522084D01*
X119246760Y-102634889D01*
X119397387Y-102713945D01*
X119562556Y-102754655D01*
X119562557Y-102754655D01*
X119657494Y-102754655D01*
X119715119Y-102768858D01*
X119759543Y-102808214D01*
X119780590Y-102863707D01*
X119784860Y-102898872D01*
X119845182Y-103057930D01*
X119941815Y-103197927D01*
X119941816Y-103197928D01*
X119941817Y-103197929D01*
X120069148Y-103310734D01*
X120219775Y-103389790D01*
X120384944Y-103430500D01*
X120555055Y-103430500D01*
X120555056Y-103430500D01*
X120720225Y-103389790D01*
X120870852Y-103310734D01*
X120998183Y-103197929D01*
X121094818Y-103057930D01*
X121098970Y-103046979D01*
X121132682Y-102998136D01*
X121185235Y-102970553D01*
X121244588Y-102970553D01*
X121284943Y-102980500D01*
X121284944Y-102980500D01*
X121455055Y-102980500D01*
X121455056Y-102980500D01*
X121619373Y-102940000D01*
X122828590Y-102940000D01*
X123600000Y-102940000D01*
X123600000Y-102168590D01*
X124100000Y-102168590D01*
X124100000Y-102940000D01*
X124871410Y-102940000D01*
X124824766Y-102786235D01*
X124727268Y-102603828D01*
X124596054Y-102443945D01*
X124436171Y-102312731D01*
X124253764Y-102215233D01*
X124100000Y-102168590D01*
X123600000Y-102168590D01*
X123446235Y-102215233D01*
X123263828Y-102312731D01*
X123103945Y-102443945D01*
X122972731Y-102603828D01*
X122875233Y-102786235D01*
X122828590Y-102940000D01*
X121619373Y-102940000D01*
X121620225Y-102939790D01*
X121770852Y-102860734D01*
X121898183Y-102747929D01*
X121994818Y-102607930D01*
X122055140Y-102448872D01*
X122075645Y-102280000D01*
X122055140Y-102111128D01*
X121994818Y-101952070D01*
X121951453Y-101889245D01*
X121898182Y-101812069D01*
X121862273Y-101780257D01*
X121831424Y-101738333D01*
X121820500Y-101687442D01*
X121820500Y-100649999D01*
X122694571Y-100649999D01*
X122714243Y-100862310D01*
X122772595Y-101067390D01*
X122867631Y-101258252D01*
X122996126Y-101428405D01*
X122996128Y-101428407D01*
X123153698Y-101572052D01*
X123334981Y-101684298D01*
X123533802Y-101761321D01*
X123743390Y-101800500D01*
X123956608Y-101800500D01*
X123956610Y-101800500D01*
X124166198Y-101761321D01*
X124365019Y-101684298D01*
X124546302Y-101572052D01*
X124703872Y-101428407D01*
X124832366Y-101258255D01*
X124832366Y-101258253D01*
X124832368Y-101258252D01*
X124893590Y-101135300D01*
X124927405Y-101067389D01*
X124985756Y-100862310D01*
X124996529Y-100746047D01*
X125016633Y-100688996D01*
X125059410Y-100649999D01*
X125016633Y-100611003D01*
X124996529Y-100553951D01*
X124985756Y-100437689D01*
X124960806Y-100350000D01*
X124927405Y-100232611D01*
X124927014Y-100231827D01*
X124832368Y-100041747D01*
X124703873Y-99871594D01*
X124546301Y-99727947D01*
X124365017Y-99615701D01*
X124166198Y-99538679D01*
X123956610Y-99499500D01*
X123743390Y-99499500D01*
X123603664Y-99525619D01*
X123533801Y-99538679D01*
X123334982Y-99615701D01*
X123153698Y-99727947D01*
X122996126Y-99871594D01*
X122867631Y-100041747D01*
X122772595Y-100232609D01*
X122714243Y-100437689D01*
X122694571Y-100649999D01*
X121820500Y-100649999D01*
X121820500Y-98396966D01*
X121834015Y-98340671D01*
X121871615Y-98296648D01*
X121925102Y-98274493D01*
X121982818Y-98279035D01*
X122032181Y-98309285D01*
X122428630Y-98705733D01*
X122437896Y-98716101D01*
X122460121Y-98743970D01*
X122483325Y-98759790D01*
X122507364Y-98776180D01*
X122511145Y-98778863D01*
X122561973Y-98816376D01*
X122566564Y-98818694D01*
X122572325Y-98820471D01*
X122572327Y-98820472D01*
X122626983Y-98837330D01*
X122631342Y-98838765D01*
X122685300Y-98857646D01*
X122685303Y-98857646D01*
X122690991Y-98859636D01*
X122696071Y-98860500D01*
X122702098Y-98860500D01*
X122759261Y-98860500D01*
X122763898Y-98860587D01*
X122821010Y-98862724D01*
X122821010Y-98862723D01*
X122827029Y-98862949D01*
X122845635Y-98860500D01*
X127702034Y-98860500D01*
X127749487Y-98869939D01*
X127789715Y-98896819D01*
X128223181Y-99330285D01*
X128250061Y-99370513D01*
X128259500Y-99417966D01*
X128259500Y-109889901D01*
X128241617Y-109954051D01*
X128193126Y-109999696D01*
X128152657Y-110020936D01*
X128059650Y-110069750D01*
X127932315Y-110182558D01*
X127835682Y-110322555D01*
X127775360Y-110481613D01*
X127754854Y-110650485D01*
X127775360Y-110819358D01*
X127835682Y-110978416D01*
X127932315Y-111118413D01*
X127932316Y-111118414D01*
X127932317Y-111118415D01*
X128059648Y-111231220D01*
X128210275Y-111310276D01*
X128354923Y-111345928D01*
X128407473Y-111373508D01*
X128441189Y-111422352D01*
X128448343Y-111481270D01*
X128444854Y-111509999D01*
X128465360Y-111678872D01*
X128525682Y-111837930D01*
X128622315Y-111977927D01*
X128622316Y-111977928D01*
X128622317Y-111977929D01*
X128749648Y-112090734D01*
X128900275Y-112169790D01*
X129065444Y-112210500D01*
X129235555Y-112210500D01*
X129235556Y-112210500D01*
X129400725Y-112169790D01*
X129551352Y-112090734D01*
X129678683Y-111977929D01*
X129775318Y-111837930D01*
X129775319Y-111837926D01*
X129782887Y-111826963D01*
X129822397Y-111790329D01*
X129873715Y-111773912D01*
X129927152Y-111780810D01*
X129972618Y-111809722D01*
X133469911Y-115307014D01*
X133499447Y-115354246D01*
X133505326Y-115409641D01*
X133494354Y-115499999D01*
X133514860Y-115668872D01*
X133575182Y-115827930D01*
X133671815Y-115967927D01*
X133671816Y-115967928D01*
X133671817Y-115967929D01*
X133799148Y-116080734D01*
X133949775Y-116159790D01*
X134114944Y-116200500D01*
X134285055Y-116200500D01*
X134285056Y-116200500D01*
X134450225Y-116159790D01*
X134600852Y-116080734D01*
X134728183Y-115967929D01*
X134824818Y-115827930D01*
X134885140Y-115668872D01*
X134905645Y-115500000D01*
X134885140Y-115331128D01*
X134824818Y-115172070D01*
X134776500Y-115102070D01*
X134728184Y-115032072D01*
X134728183Y-115032071D01*
X134600852Y-114919266D01*
X134586588Y-114911780D01*
X134450224Y-114840209D01*
X134272881Y-114796499D01*
X134240513Y-114790061D01*
X134200285Y-114763181D01*
X130196819Y-110759716D01*
X130169939Y-110719488D01*
X130160500Y-110672035D01*
X130160500Y-103567764D01*
X134145787Y-103567764D01*
X134175413Y-103837016D01*
X134205483Y-103952034D01*
X134243928Y-104099088D01*
X134346517Y-104340499D01*
X134349871Y-104348392D01*
X134490982Y-104579611D01*
X134650031Y-104770728D01*
X134664255Y-104787820D01*
X134865998Y-104968582D01*
X135091910Y-105118044D01*
X135198211Y-105167876D01*
X135337177Y-105233021D01*
X135580086Y-105306101D01*
X135596569Y-105311060D01*
X135864561Y-105350500D01*
X136067631Y-105350500D01*
X136067634Y-105350500D01*
X136270156Y-105335677D01*
X136277823Y-105333969D01*
X136534553Y-105276780D01*
X136787558Y-105180014D01*
X137023777Y-105047441D01*
X137238177Y-104881888D01*
X137426186Y-104686881D01*
X137583799Y-104466579D01*
X137707656Y-104225675D01*
X137795118Y-103969305D01*
X137844319Y-103702933D01*
X137854212Y-103432235D01*
X137824586Y-103162982D01*
X137756072Y-102900912D01*
X137650130Y-102651610D01*
X137571080Y-102522082D01*
X137509017Y-102420388D01*
X137335746Y-102212181D01*
X137287095Y-102168590D01*
X137134002Y-102031418D01*
X136908090Y-101881956D01*
X136908086Y-101881954D01*
X136662822Y-101766978D01*
X136403437Y-101688941D01*
X136403431Y-101688940D01*
X136135439Y-101649500D01*
X135932369Y-101649500D01*
X135932366Y-101649500D01*
X135729843Y-101664322D01*
X135465449Y-101723219D01*
X135212441Y-101819986D01*
X134976223Y-101952559D01*
X134761825Y-102118109D01*
X134573813Y-102313120D01*
X134416201Y-102533420D01*
X134292342Y-102774329D01*
X134204881Y-103030695D01*
X134155680Y-103297066D01*
X134145787Y-103567764D01*
X130160500Y-103567764D01*
X130160500Y-96487762D01*
X130161280Y-96473878D01*
X130165270Y-96438466D01*
X130157690Y-96398407D01*
X130154635Y-96382261D01*
X130153864Y-96377720D01*
X130144448Y-96315244D01*
X130142842Y-96310361D01*
X130134391Y-96294372D01*
X130113296Y-96254461D01*
X130111241Y-96250391D01*
X130094437Y-96215497D01*
X130083064Y-96146751D01*
X130085645Y-96125500D01*
X130065140Y-95956628D01*
X130004818Y-95797570D01*
X129908183Y-95657571D01*
X129780852Y-95544766D01*
X129766588Y-95537280D01*
X129630224Y-95465709D01*
X129505765Y-95435033D01*
X129465056Y-95425000D01*
X129294944Y-95425000D01*
X129262284Y-95433049D01*
X129129775Y-95465709D01*
X128979149Y-95544765D01*
X128851815Y-95657572D01*
X128755182Y-95797569D01*
X128694860Y-95956627D01*
X128674354Y-96125500D01*
X128694860Y-96294372D01*
X128755182Y-96453430D01*
X128851815Y-96593427D01*
X128851816Y-96593428D01*
X128851817Y-96593429D01*
X128979148Y-96706234D01*
X129129774Y-96785289D01*
X129129775Y-96785290D01*
X129165174Y-96794015D01*
X129213923Y-96818360D01*
X129247528Y-96861254D01*
X129259500Y-96914412D01*
X129259500Y-98085929D01*
X129245985Y-98142224D01*
X129208385Y-98186247D01*
X129154898Y-98208402D01*
X129097182Y-98203860D01*
X129047819Y-98173610D01*
X128488474Y-97614265D01*
X128479208Y-97603897D01*
X128476906Y-97601010D01*
X128456985Y-97576030D01*
X128409714Y-97543800D01*
X128405976Y-97541148D01*
X128355141Y-97503629D01*
X128350530Y-97501302D01*
X128290155Y-97482679D01*
X128285750Y-97481230D01*
X128275850Y-97477766D01*
X128231805Y-97462354D01*
X128231804Y-97462353D01*
X128226129Y-97460368D01*
X128221020Y-97459500D01*
X128215008Y-97459500D01*
X128157844Y-97459500D01*
X128153207Y-97459413D01*
X128090076Y-97457050D01*
X128071471Y-97459500D01*
X123215071Y-97459500D01*
X123167618Y-97450061D01*
X123127390Y-97423181D01*
X122856819Y-97152610D01*
X122829939Y-97112382D01*
X122820500Y-97064929D01*
X122820500Y-92558050D01*
X122821280Y-92544166D01*
X122825270Y-92508754D01*
X122825270Y-92508753D01*
X122814632Y-92452529D01*
X122813871Y-92448050D01*
X122805348Y-92391501D01*
X122805347Y-92391499D01*
X122804448Y-92385532D01*
X122802838Y-92380640D01*
X122773306Y-92324765D01*
X122771214Y-92320623D01*
X122746425Y-92269146D01*
X122746423Y-92269143D01*
X122743812Y-92263722D01*
X122740818Y-92259502D01*
X122696152Y-92214836D01*
X122692934Y-92211496D01*
X122678963Y-92196439D01*
X122654055Y-92169594D01*
X122654053Y-92169593D01*
X122649958Y-92165179D01*
X122635070Y-92153754D01*
X122208962Y-91727646D01*
X121753495Y-91272180D01*
X121723246Y-91222818D01*
X121718704Y-91165102D01*
X121740859Y-91111615D01*
X121784882Y-91074015D01*
X121841177Y-91060500D01*
X121915055Y-91060500D01*
X121915056Y-91060500D01*
X122080225Y-91019790D01*
X122230852Y-90940734D01*
X122358183Y-90827929D01*
X122358183Y-90827928D01*
X122365232Y-90821684D01*
X122403488Y-90798558D01*
X122447459Y-90790500D01*
X124705116Y-90790500D01*
X124749086Y-90798558D01*
X124787342Y-90821684D01*
X124830356Y-90859790D01*
X124899148Y-90920734D01*
X125049775Y-90999790D01*
X125214944Y-91040500D01*
X125385055Y-91040500D01*
X125385056Y-91040500D01*
X125550225Y-90999790D01*
X125700852Y-90920734D01*
X125828183Y-90807929D01*
X125924818Y-90667930D01*
X125985140Y-90508872D01*
X126005645Y-90340000D01*
X125985140Y-90171128D01*
X125924818Y-90012070D01*
X125857009Y-89913832D01*
X125828184Y-89872072D01*
X125827315Y-89871302D01*
X125700852Y-89759266D01*
X125686588Y-89751779D01*
X125550224Y-89680209D01*
X125407784Y-89645102D01*
X125385056Y-89639500D01*
X125214944Y-89639500D01*
X125192216Y-89645102D01*
X125049775Y-89680209D01*
X124899146Y-89759267D01*
X124787342Y-89858316D01*
X124749086Y-89881442D01*
X124705116Y-89889500D01*
X122404500Y-89889500D01*
X122342500Y-89872887D01*
X122297113Y-89827500D01*
X122280500Y-89765500D01*
X122280500Y-89432262D01*
X122281280Y-89418378D01*
X122285270Y-89382966D01*
X122285270Y-89382965D01*
X122274635Y-89326761D01*
X122273864Y-89322220D01*
X122265348Y-89265713D01*
X122265347Y-89265711D01*
X122264448Y-89259744D01*
X122262842Y-89254861D01*
X122255622Y-89241202D01*
X122233296Y-89198961D01*
X122231241Y-89194891D01*
X122223249Y-89178294D01*
X122211168Y-89117541D01*
X122229982Y-89058524D01*
X122274994Y-89015971D01*
X122334973Y-89000500D01*
X126788478Y-89000500D01*
X126792711Y-89000572D01*
X126856824Y-89002762D01*
X126856824Y-89002761D01*
X126856826Y-89002762D01*
X126896751Y-88993031D01*
X126909196Y-88990666D01*
X126949920Y-88985070D01*
X126966383Y-88977918D01*
X126986419Y-88971180D01*
X127003852Y-88966933D01*
X127039695Y-88946778D01*
X127051015Y-88941157D01*
X127088720Y-88924780D01*
X127102635Y-88913458D01*
X127120111Y-88901563D01*
X127135759Y-88892766D01*
X127164813Y-88863710D01*
X127174230Y-88855211D01*
X127206108Y-88829278D01*
X127216461Y-88814610D01*
X127230068Y-88798455D01*
X127420891Y-88607634D01*
X127420891Y-88607633D01*
X129351282Y-86677241D01*
X129409284Y-86644528D01*
X129512262Y-86619146D01*
X129550226Y-86609790D01*
X129628762Y-86568569D01*
X129700852Y-86530734D01*
X129700853Y-86530732D01*
X129704635Y-86528748D01*
X129738035Y-86508558D01*
X129782006Y-86500500D01*
X139670613Y-86500500D01*
X139718066Y-86509939D01*
X139758294Y-86536819D01*
X140613181Y-87391706D01*
X140640061Y-87431934D01*
X140649500Y-87479387D01*
X140649500Y-89025762D01*
X140643885Y-89062652D01*
X140627550Y-89096202D01*
X140575182Y-89172069D01*
X140514860Y-89331127D01*
X140494354Y-89500000D01*
X140514860Y-89668872D01*
X140575182Y-89827930D01*
X140627550Y-89903798D01*
X140643885Y-89937348D01*
X140649500Y-89974238D01*
X140649500Y-112473478D01*
X140649428Y-112477711D01*
X140647237Y-112541826D01*
X140656963Y-112581733D01*
X140659334Y-112594207D01*
X140664930Y-112634922D01*
X140672079Y-112651380D01*
X140678819Y-112671421D01*
X140683067Y-112688853D01*
X140703206Y-112724672D01*
X140708852Y-112736039D01*
X140725220Y-112773720D01*
X140733009Y-112783294D01*
X140736542Y-112787637D01*
X140748437Y-112805116D01*
X140757232Y-112820757D01*
X140786285Y-112849810D01*
X140794793Y-112859237D01*
X140818895Y-112888863D01*
X140820722Y-112891108D01*
X140823976Y-112893405D01*
X140835378Y-112901453D01*
X140851552Y-112915077D01*
X141602592Y-113666117D01*
X141605534Y-113669161D01*
X141649320Y-113716044D01*
X141684434Y-113737397D01*
X141694914Y-113744530D01*
X141727658Y-113769361D01*
X141744354Y-113775945D01*
X141763281Y-113785345D01*
X141778618Y-113794672D01*
X141778620Y-113794672D01*
X141778621Y-113794673D01*
X141818181Y-113805757D01*
X141830213Y-113809803D01*
X141868436Y-113824876D01*
X141886285Y-113826711D01*
X141907046Y-113830656D01*
X141924335Y-113835500D01*
X141965418Y-113835500D01*
X141978098Y-113836149D01*
X142018972Y-113840352D01*
X142036656Y-113837303D01*
X142057725Y-113835500D01*
X142816051Y-113835500D01*
X142871322Y-113848500D01*
X142915005Y-113884773D01*
X143043945Y-114055517D01*
X143046128Y-114058407D01*
X143203698Y-114202052D01*
X143384981Y-114314298D01*
X143583802Y-114391321D01*
X143780613Y-114428111D01*
X143841365Y-114458363D01*
X143877093Y-114516066D01*
X143877093Y-114583934D01*
X143841365Y-114641637D01*
X143780613Y-114671888D01*
X143650475Y-114696215D01*
X143583801Y-114708679D01*
X143384982Y-114785701D01*
X143203698Y-114897947D01*
X143046126Y-115041594D01*
X142917631Y-115211747D01*
X142822595Y-115402609D01*
X142764243Y-115607689D01*
X142744571Y-115819999D01*
X142764243Y-116032310D01*
X142822595Y-116237390D01*
X142917631Y-116428252D01*
X143043561Y-116595008D01*
X143046128Y-116598407D01*
X143203698Y-116742052D01*
X143384981Y-116854298D01*
X143583802Y-116931321D01*
X143780613Y-116968111D01*
X143841365Y-116998363D01*
X143877093Y-117056066D01*
X143877093Y-117123934D01*
X143841365Y-117181637D01*
X143780613Y-117211888D01*
X143697827Y-117227364D01*
X143583801Y-117248679D01*
X143384982Y-117325701D01*
X143203698Y-117437947D01*
X143046126Y-117581594D01*
X142917631Y-117751747D01*
X142822595Y-117942609D01*
X142764243Y-118147689D01*
X142744571Y-118359999D01*
X142764243Y-118572310D01*
X142822595Y-118777390D01*
X142917631Y-118968252D01*
X143046126Y-119138405D01*
X143046128Y-119138407D01*
X143203698Y-119282052D01*
X143384981Y-119394298D01*
X143583802Y-119471321D01*
X143793390Y-119510500D01*
X144006608Y-119510500D01*
X144006610Y-119510500D01*
X144216198Y-119471321D01*
X144415019Y-119394298D01*
X144596302Y-119282052D01*
X144753872Y-119138407D01*
X144882366Y-118968255D01*
X144882366Y-118968253D01*
X144882368Y-118968252D01*
X144930080Y-118872430D01*
X144977405Y-118777389D01*
X145035756Y-118572310D01*
X145055429Y-118360000D01*
X145035756Y-118147690D01*
X145033493Y-118139738D01*
X144998919Y-118018224D01*
X144977405Y-117942611D01*
X144943323Y-117874164D01*
X144882368Y-117751747D01*
X144753873Y-117581594D01*
X144693350Y-117526420D01*
X144596302Y-117437948D01*
X144596301Y-117437947D01*
X144415017Y-117325701D01*
X144216198Y-117248679D01*
X144205793Y-117246734D01*
X144019385Y-117211888D01*
X143958634Y-117181637D01*
X143922906Y-117123934D01*
X143922906Y-117056066D01*
X143958634Y-116998363D01*
X144019385Y-116968111D01*
X144216198Y-116931321D01*
X144415019Y-116854298D01*
X144596302Y-116742052D01*
X144753872Y-116598407D01*
X144882366Y-116428255D01*
X144882366Y-116428253D01*
X144882368Y-116428252D01*
X144930080Y-116332430D01*
X144977405Y-116237389D01*
X145035756Y-116032310D01*
X145055429Y-115820000D01*
X145035756Y-115607690D01*
X144977405Y-115402611D01*
X144961349Y-115370365D01*
X144882368Y-115211747D01*
X144753873Y-115041594D01*
X144596301Y-114897947D01*
X144437303Y-114799500D01*
X144415019Y-114785702D01*
X144415017Y-114785701D01*
X144216198Y-114708679D01*
X144019385Y-114671888D01*
X143958634Y-114641637D01*
X143922906Y-114583934D01*
X143922906Y-114516066D01*
X143958634Y-114458363D01*
X144019385Y-114428111D01*
X144216198Y-114391321D01*
X144415019Y-114314298D01*
X144596302Y-114202052D01*
X144753872Y-114058407D01*
X144882366Y-113888255D01*
X144882366Y-113888253D01*
X144882368Y-113888252D01*
X144941068Y-113770365D01*
X144977405Y-113697389D01*
X145035756Y-113492310D01*
X145055429Y-113280000D01*
X145035756Y-113067690D01*
X144977405Y-112862611D01*
X144959786Y-112827227D01*
X144882368Y-112671747D01*
X144753873Y-112501594D01*
X144725362Y-112475603D01*
X144596302Y-112357948D01*
X144596301Y-112357947D01*
X144415017Y-112245701D01*
X144216198Y-112168679D01*
X144216197Y-112168678D01*
X144043455Y-112136387D01*
X143988502Y-112111105D01*
X143952049Y-112062832D01*
X143942770Y-112003057D01*
X143962874Y-111946006D01*
X144007577Y-111905253D01*
X144066239Y-111890499D01*
X144794864Y-111890499D01*
X144794867Y-111890499D01*
X144807427Y-111889041D01*
X144819991Y-111887585D01*
X144922765Y-111842206D01*
X145002206Y-111762765D01*
X145047585Y-111659991D01*
X145050500Y-111634865D01*
X145050499Y-109845136D01*
X145047585Y-109820009D01*
X145002206Y-109717235D01*
X145002204Y-109717233D01*
X145002204Y-109717232D01*
X144922767Y-109637795D01*
X144900425Y-109627930D01*
X144819991Y-109592415D01*
X144794865Y-109589500D01*
X144794863Y-109589500D01*
X143005132Y-109589500D01*
X142980011Y-109592414D01*
X142877232Y-109637795D01*
X142797795Y-109717232D01*
X142752415Y-109820009D01*
X142749500Y-109845136D01*
X142749500Y-111634867D01*
X142752414Y-111659988D01*
X142797795Y-111762767D01*
X142877232Y-111842204D01*
X142877233Y-111842204D01*
X142877235Y-111842206D01*
X142980009Y-111887585D01*
X143005135Y-111890500D01*
X143733759Y-111890499D01*
X143792420Y-111905253D01*
X143837124Y-111946005D01*
X143857228Y-112003057D01*
X143847949Y-112062832D01*
X143811496Y-112111105D01*
X143756543Y-112136387D01*
X143583802Y-112168679D01*
X143530357Y-112189383D01*
X143384982Y-112245701D01*
X143203698Y-112357947D01*
X143046126Y-112501594D01*
X142910709Y-112680915D01*
X142908395Y-112679167D01*
X142874887Y-112715926D01*
X142809608Y-112734500D01*
X142279387Y-112734500D01*
X142231934Y-112725061D01*
X142191706Y-112698181D01*
X141786819Y-112293294D01*
X141759939Y-112253066D01*
X141750500Y-112205613D01*
X141750500Y-98410000D01*
X143078590Y-98410000D01*
X143125233Y-98563764D01*
X143222731Y-98746171D01*
X143353945Y-98906054D01*
X143513828Y-99037268D01*
X143696235Y-99134766D01*
X143850000Y-99181410D01*
X143850000Y-98410000D01*
X144350000Y-98410000D01*
X144350000Y-99181410D01*
X144503764Y-99134766D01*
X144686171Y-99037268D01*
X144846054Y-98906054D01*
X144977268Y-98746171D01*
X145074766Y-98563764D01*
X145121410Y-98410000D01*
X144350000Y-98410000D01*
X143850000Y-98410000D01*
X143078590Y-98410000D01*
X141750500Y-98410000D01*
X141750500Y-97910000D01*
X143078590Y-97910000D01*
X143850000Y-97910000D01*
X143850000Y-97138590D01*
X144350000Y-97138590D01*
X144350000Y-97910000D01*
X145121410Y-97910000D01*
X145074766Y-97756235D01*
X144977268Y-97573828D01*
X144846054Y-97413945D01*
X144686171Y-97282731D01*
X144503764Y-97185233D01*
X144350000Y-97138590D01*
X143850000Y-97138590D01*
X143696235Y-97185233D01*
X143513828Y-97282731D01*
X143353945Y-97413945D01*
X143222731Y-97573828D01*
X143125233Y-97756235D01*
X143078590Y-97910000D01*
X141750500Y-97910000D01*
X141750500Y-95620000D01*
X142944571Y-95620000D01*
X142964243Y-95832310D01*
X143022595Y-96037390D01*
X143117631Y-96228252D01*
X143233961Y-96382296D01*
X143246128Y-96398407D01*
X143403698Y-96542052D01*
X143584981Y-96654298D01*
X143783802Y-96731321D01*
X143993390Y-96770500D01*
X144206608Y-96770500D01*
X144206610Y-96770500D01*
X144416198Y-96731321D01*
X144615019Y-96654298D01*
X144796302Y-96542052D01*
X144953872Y-96398407D01*
X145082366Y-96228255D01*
X145082366Y-96228253D01*
X145082368Y-96228252D01*
X145162199Y-96067927D01*
X145177405Y-96037389D01*
X145235756Y-95832310D01*
X145255429Y-95620000D01*
X145235756Y-95407690D01*
X145230238Y-95388298D01*
X145204950Y-95299419D01*
X145177405Y-95202611D01*
X145154890Y-95157394D01*
X145082368Y-95011747D01*
X144953873Y-94841594D01*
X144796301Y-94697947D01*
X144615017Y-94585701D01*
X144416198Y-94508679D01*
X144243455Y-94476387D01*
X144188502Y-94451105D01*
X144152049Y-94402832D01*
X144142770Y-94343057D01*
X144162874Y-94286006D01*
X144207577Y-94245253D01*
X144266239Y-94230499D01*
X144994864Y-94230499D01*
X144994867Y-94230499D01*
X145007427Y-94229042D01*
X145019991Y-94227585D01*
X145122765Y-94182206D01*
X145202206Y-94102765D01*
X145247585Y-93999991D01*
X145250500Y-93974865D01*
X145250499Y-92185136D01*
X145247585Y-92160009D01*
X145202206Y-92057235D01*
X145202204Y-92057233D01*
X145202204Y-92057232D01*
X145122767Y-91977795D01*
X145122765Y-91977794D01*
X145019991Y-91932415D01*
X144994865Y-91929500D01*
X144994863Y-91929500D01*
X143205132Y-91929500D01*
X143180011Y-91932414D01*
X143077232Y-91977795D01*
X142997795Y-92057232D01*
X142952415Y-92160009D01*
X142949500Y-92185136D01*
X142949500Y-93974867D01*
X142952414Y-93999988D01*
X142952414Y-93999990D01*
X142952415Y-93999991D01*
X142997794Y-94102765D01*
X142997795Y-94102767D01*
X143077232Y-94182204D01*
X143077233Y-94182204D01*
X143077235Y-94182206D01*
X143180009Y-94227585D01*
X143205135Y-94230500D01*
X143933759Y-94230499D01*
X143992420Y-94245253D01*
X144037124Y-94286005D01*
X144057228Y-94343057D01*
X144047949Y-94402832D01*
X144011496Y-94451105D01*
X143956543Y-94476387D01*
X143783802Y-94508679D01*
X143730357Y-94529383D01*
X143584982Y-94585701D01*
X143403698Y-94697947D01*
X143246126Y-94841594D01*
X143117631Y-95011747D01*
X143022595Y-95202609D01*
X142964243Y-95407689D01*
X142944571Y-95620000D01*
X141750500Y-95620000D01*
X141750500Y-89974238D01*
X141756115Y-89937348D01*
X141772450Y-89903798D01*
X141794880Y-89871302D01*
X141824818Y-89827930D01*
X141885140Y-89668872D01*
X141905645Y-89500000D01*
X141885140Y-89331128D01*
X141824818Y-89172070D01*
X141797227Y-89132098D01*
X141772450Y-89096202D01*
X141756115Y-89062652D01*
X141750500Y-89025762D01*
X141750500Y-87211522D01*
X141750572Y-87207289D01*
X141752762Y-87143174D01*
X141743035Y-87103262D01*
X141740665Y-87090794D01*
X141735070Y-87050080D01*
X141727920Y-87033620D01*
X141721180Y-87013578D01*
X141716933Y-86996148D01*
X141696792Y-86960327D01*
X141691149Y-86948964D01*
X141674780Y-86911280D01*
X141663456Y-86897360D01*
X141651559Y-86879880D01*
X141642765Y-86864240D01*
X141613713Y-86835188D01*
X141605205Y-86825761D01*
X141579277Y-86793891D01*
X141564615Y-86783541D01*
X141548444Y-86769919D01*
X140347406Y-85568881D01*
X140344492Y-85565867D01*
X140300680Y-85518956D01*
X140300679Y-85518955D01*
X140300678Y-85518954D01*
X140265574Y-85497607D01*
X140255079Y-85490464D01*
X140244011Y-85482071D01*
X140222342Y-85465639D01*
X140222340Y-85465638D01*
X140205644Y-85459053D01*
X140186714Y-85449650D01*
X140171384Y-85440328D01*
X140140924Y-85431793D01*
X140131814Y-85429240D01*
X140119795Y-85425199D01*
X140081564Y-85410124D01*
X140081563Y-85410123D01*
X140081561Y-85410123D01*
X140063715Y-85408288D01*
X140042952Y-85404342D01*
X140025668Y-85399500D01*
X140025665Y-85399500D01*
X139984582Y-85399500D01*
X139971901Y-85398850D01*
X139931027Y-85394647D01*
X139913344Y-85397697D01*
X139892275Y-85399500D01*
X129782006Y-85399500D01*
X129738035Y-85391442D01*
X129704635Y-85371251D01*
X129550226Y-85290210D01*
X129463320Y-85268790D01*
X129385056Y-85249500D01*
X129214944Y-85249500D01*
X129182284Y-85257549D01*
X129049775Y-85290209D01*
X128899149Y-85369265D01*
X128771815Y-85482072D01*
X128675182Y-85622069D01*
X128614860Y-85781127D01*
X128609584Y-85824573D01*
X128597974Y-85863908D01*
X128574169Y-85897305D01*
X126651800Y-87819674D01*
X126608295Y-87863180D01*
X126568066Y-87890061D01*
X126520613Y-87899500D01*
X122489246Y-87899500D01*
X122422972Y-87880304D01*
X122377218Y-87828658D01*
X122366150Y-87760553D01*
X122385645Y-87600000D01*
X122385644Y-87599999D01*
X122365140Y-87431128D01*
X122304818Y-87272070D01*
X122245927Y-87186752D01*
X122208184Y-87132072D01*
X122192657Y-87118316D01*
X122080852Y-87019266D01*
X122022119Y-86988440D01*
X121930224Y-86940209D01*
X121805765Y-86909533D01*
X121765056Y-86899500D01*
X121594944Y-86899500D01*
X121562284Y-86907549D01*
X121429775Y-86940209D01*
X121279146Y-87019267D01*
X121167342Y-87118316D01*
X121129086Y-87141442D01*
X121085116Y-87149500D01*
X115637965Y-87149500D01*
X115590512Y-87140061D01*
X115550284Y-87113181D01*
X114449284Y-86012181D01*
X114419034Y-85962818D01*
X114414492Y-85905102D01*
X114436647Y-85851615D01*
X114480670Y-85814015D01*
X114536965Y-85800500D01*
X120331793Y-85800500D01*
X120339280Y-85800726D01*
X120342420Y-85800915D01*
X120399320Y-85804358D01*
X120458496Y-85793513D01*
X120465895Y-85792387D01*
X120525586Y-85785140D01*
X120535049Y-85781550D01*
X120556672Y-85775522D01*
X120566646Y-85773695D01*
X120621522Y-85748996D01*
X120628387Y-85746152D01*
X120684644Y-85724818D01*
X120692984Y-85719060D01*
X120712533Y-85708035D01*
X120721771Y-85703878D01*
X120769127Y-85666775D01*
X120775134Y-85662355D01*
X120824643Y-85628183D01*
X120864537Y-85583150D01*
X120869638Y-85577731D01*
X121877731Y-84569638D01*
X121883150Y-84564537D01*
X121928183Y-84524643D01*
X121962351Y-84475140D01*
X121966763Y-84469142D01*
X122003878Y-84421771D01*
X122008034Y-84412534D01*
X122019062Y-84392981D01*
X122024818Y-84384644D01*
X122046153Y-84328385D01*
X122048997Y-84321517D01*
X122058682Y-84300000D01*
X127044854Y-84300000D01*
X127065360Y-84468872D01*
X127125682Y-84627930D01*
X127222315Y-84767927D01*
X127222316Y-84767928D01*
X127222317Y-84767929D01*
X127349648Y-84880734D01*
X127500275Y-84959790D01*
X127665444Y-85000500D01*
X127835555Y-85000500D01*
X127835556Y-85000500D01*
X128000725Y-84959790D01*
X128151352Y-84880734D01*
X128278683Y-84767929D01*
X128375318Y-84627930D01*
X128435640Y-84468872D01*
X128456145Y-84300000D01*
X128456001Y-84298817D01*
X128461878Y-84243422D01*
X128491411Y-84196190D01*
X128800786Y-83886816D01*
X128841012Y-83859939D01*
X128888465Y-83850500D01*
X129005116Y-83850500D01*
X129049086Y-83858558D01*
X129087342Y-83881684D01*
X129156830Y-83943244D01*
X129199148Y-83980734D01*
X129349775Y-84059790D01*
X129514944Y-84100500D01*
X129685055Y-84100500D01*
X129685056Y-84100500D01*
X129850225Y-84059790D01*
X130000852Y-83980734D01*
X130128183Y-83867929D01*
X130216487Y-83739999D01*
X132444854Y-83739999D01*
X132465360Y-83908872D01*
X132525682Y-84067930D01*
X132622315Y-84207927D01*
X132622316Y-84207928D01*
X132622317Y-84207929D01*
X132749648Y-84320734D01*
X132900275Y-84399790D01*
X133065444Y-84440500D01*
X133235555Y-84440500D01*
X133235556Y-84440500D01*
X133400725Y-84399790D01*
X133551352Y-84320734D01*
X133643748Y-84238879D01*
X133663158Y-84221684D01*
X133701414Y-84198558D01*
X133745384Y-84190500D01*
X134317238Y-84190500D01*
X134331122Y-84191280D01*
X134366533Y-84195270D01*
X134366533Y-84195269D01*
X134366535Y-84195270D01*
X134422728Y-84184636D01*
X134427226Y-84183872D01*
X134483787Y-84175348D01*
X134483788Y-84175347D01*
X134489768Y-84174446D01*
X134494628Y-84172846D01*
X134499967Y-84170023D01*
X134499972Y-84170023D01*
X134550545Y-84143292D01*
X134554636Y-84141227D01*
X134606142Y-84116425D01*
X134606144Y-84116422D01*
X134611578Y-84113806D01*
X134615771Y-84110831D01*
X134620033Y-84106568D01*
X134620038Y-84106566D01*
X134660501Y-84066101D01*
X134663759Y-84062962D01*
X134705694Y-84024055D01*
X134705695Y-84024053D01*
X134710113Y-84019954D01*
X134721533Y-84005069D01*
X135049784Y-83676819D01*
X135090012Y-83649939D01*
X135137465Y-83640500D01*
X135234555Y-83640500D01*
X135234556Y-83640500D01*
X135399725Y-83599790D01*
X135550352Y-83520734D01*
X135677683Y-83407929D01*
X135774318Y-83267930D01*
X135834640Y-83108872D01*
X135855145Y-82940000D01*
X135834640Y-82771128D01*
X135774318Y-82612070D01*
X135677683Y-82472071D01*
X135550352Y-82359266D01*
X135480019Y-82322352D01*
X135399724Y-82280209D01*
X135275265Y-82249533D01*
X135234556Y-82239500D01*
X135064444Y-82239500D01*
X135031784Y-82247549D01*
X134899275Y-82280209D01*
X134748649Y-82359265D01*
X134621315Y-82472072D01*
X134524682Y-82612069D01*
X134464360Y-82771127D01*
X134443855Y-82940000D01*
X134443999Y-82941189D01*
X134438118Y-82996582D01*
X134408583Y-83043812D01*
X134199213Y-83253183D01*
X134158988Y-83280061D01*
X134111535Y-83289500D01*
X133745384Y-83289500D01*
X133701414Y-83281442D01*
X133663158Y-83258316D01*
X133551353Y-83159267D01*
X133551352Y-83159266D01*
X133468812Y-83115945D01*
X133400724Y-83080209D01*
X133276264Y-83049533D01*
X133235556Y-83039500D01*
X133065444Y-83039500D01*
X133032784Y-83047549D01*
X132900275Y-83080209D01*
X132749649Y-83159265D01*
X132622315Y-83272072D01*
X132525682Y-83412069D01*
X132465360Y-83571127D01*
X132444854Y-83739999D01*
X130216487Y-83739999D01*
X130224818Y-83727930D01*
X130285140Y-83568872D01*
X130305645Y-83400000D01*
X130285140Y-83231128D01*
X130224818Y-83072070D01*
X130153245Y-82968379D01*
X130128184Y-82932072D01*
X130100544Y-82907585D01*
X130000852Y-82819266D01*
X129909132Y-82771127D01*
X129850224Y-82740209D01*
X129725764Y-82709533D01*
X129685056Y-82699500D01*
X129514944Y-82699500D01*
X129482284Y-82707549D01*
X129349775Y-82740209D01*
X129199146Y-82819267D01*
X129087342Y-82918316D01*
X129049086Y-82941442D01*
X129005116Y-82949500D01*
X128682762Y-82949500D01*
X128668878Y-82948720D01*
X128633463Y-82944729D01*
X128577311Y-82955354D01*
X128572741Y-82956131D01*
X128510258Y-82965549D01*
X128505351Y-82967163D01*
X128449485Y-82996690D01*
X128445347Y-82998779D01*
X128388436Y-83026186D01*
X128384212Y-83029183D01*
X128339559Y-83073836D01*
X128336222Y-83077051D01*
X128289892Y-83120039D01*
X128278467Y-83134928D01*
X127850216Y-83563181D01*
X127809988Y-83590061D01*
X127762535Y-83599500D01*
X127665444Y-83599500D01*
X127632784Y-83607549D01*
X127500275Y-83640209D01*
X127349649Y-83719265D01*
X127222315Y-83832072D01*
X127125682Y-83972069D01*
X127065360Y-84131127D01*
X127044854Y-84300000D01*
X122058682Y-84300000D01*
X122073694Y-84266646D01*
X122075519Y-84256684D01*
X122081545Y-84235062D01*
X122085140Y-84225586D01*
X122092389Y-84165879D01*
X122093516Y-84158476D01*
X122096295Y-84143312D01*
X122104357Y-84099320D01*
X122100726Y-84039291D01*
X122100500Y-84031804D01*
X122100500Y-79922421D01*
X122100726Y-79914934D01*
X122100927Y-79911602D01*
X122104358Y-79854894D01*
X122093507Y-79795685D01*
X122092390Y-79788340D01*
X122085140Y-79728628D01*
X122081546Y-79719151D01*
X122075521Y-79697534D01*
X122073695Y-79687568D01*
X122056021Y-79648300D01*
X122049009Y-79632718D01*
X122046151Y-79625822D01*
X122024818Y-79569570D01*
X122019061Y-79561230D01*
X122008035Y-79541681D01*
X122003877Y-79532441D01*
X121966785Y-79485097D01*
X121962355Y-79479077D01*
X121928183Y-79429571D01*
X121883153Y-79389678D01*
X121877715Y-79384558D01*
X121359319Y-78866162D01*
X121332439Y-78825934D01*
X121323000Y-78778481D01*
X121323000Y-77569874D01*
X121323904Y-77554927D01*
X121328145Y-77519999D01*
X121325655Y-77499493D01*
X121307640Y-77351128D01*
X121247318Y-77192070D01*
X121150683Y-77052071D01*
X121023352Y-76939266D01*
X121005697Y-76930000D01*
X120872724Y-76860209D01*
X120748265Y-76829533D01*
X120707556Y-76819500D01*
X120537444Y-76819500D01*
X120476674Y-76834478D01*
X120420974Y-76835319D01*
X120370527Y-76811692D01*
X120335513Y-76768364D01*
X120323000Y-76714081D01*
X120323000Y-76407966D01*
X120332439Y-76360513D01*
X120359319Y-76320285D01*
X120520342Y-76159262D01*
X120764925Y-75914679D01*
X120764925Y-75914678D01*
X120972787Y-75706816D01*
X121013014Y-75679939D01*
X121060466Y-75670500D01*
X121427616Y-75670500D01*
X121471586Y-75678558D01*
X121509842Y-75701684D01*
X121602463Y-75783738D01*
X121621648Y-75800734D01*
X121772275Y-75879790D01*
X121937444Y-75920500D01*
X122107555Y-75920500D01*
X122107556Y-75920500D01*
X122272725Y-75879790D01*
X122423352Y-75800734D01*
X122550683Y-75687929D01*
X122647318Y-75547930D01*
X122707640Y-75388872D01*
X122728145Y-75220000D01*
X122707640Y-75051128D01*
X122647318Y-74892070D01*
X122575745Y-74788379D01*
X122550684Y-74752072D01*
X122535157Y-74738316D01*
X122423352Y-74639266D01*
X122409088Y-74631779D01*
X122272724Y-74560209D01*
X122148264Y-74529533D01*
X122107556Y-74519500D01*
X121937444Y-74519500D01*
X121904784Y-74527549D01*
X121772275Y-74560209D01*
X121621646Y-74639267D01*
X121509842Y-74738316D01*
X121471586Y-74761442D01*
X121427616Y-74769500D01*
X120854762Y-74769500D01*
X120840878Y-74768720D01*
X120805463Y-74764729D01*
X120749311Y-74775354D01*
X120744741Y-74776131D01*
X120682258Y-74785549D01*
X120677351Y-74787163D01*
X120621485Y-74816690D01*
X120617347Y-74818779D01*
X120560436Y-74846186D01*
X120556212Y-74849183D01*
X120511559Y-74893836D01*
X120508222Y-74897051D01*
X120461892Y-74940039D01*
X120450467Y-74954928D01*
X120134521Y-75270875D01*
X120134520Y-75270876D01*
X119576764Y-75828631D01*
X119566398Y-75837895D01*
X119538531Y-75860118D01*
X119506324Y-75907356D01*
X119503644Y-75911132D01*
X119466133Y-75961959D01*
X119463801Y-75966578D01*
X119445174Y-76026966D01*
X119443725Y-76031369D01*
X119422869Y-76090973D01*
X119422000Y-76096090D01*
X119422000Y-76159262D01*
X119421913Y-76163899D01*
X119419550Y-76227029D01*
X119422000Y-76245635D01*
X119422000Y-83550238D01*
X119421220Y-83564122D01*
X119417229Y-83599534D01*
X119427856Y-83655694D01*
X119428633Y-83660266D01*
X119438050Y-83722748D01*
X119439663Y-83727650D01*
X119453539Y-83753902D01*
X119465846Y-83789317D01*
X119467006Y-83826791D01*
X119460957Y-83876602D01*
X119481463Y-84045475D01*
X119535845Y-84188872D01*
X119541785Y-84204533D01*
X119542148Y-84205059D01*
X119543804Y-84209858D01*
X119547124Y-84218611D01*
X119546859Y-84218711D01*
X119563873Y-84268011D01*
X119549896Y-84333125D01*
X119504249Y-84381617D01*
X119440099Y-84399500D01*
X106224500Y-84399500D01*
X106162500Y-84382887D01*
X106117113Y-84337500D01*
X106100500Y-84275500D01*
X106100500Y-79924921D01*
X106100726Y-79917434D01*
X106100927Y-79914102D01*
X106104358Y-79857394D01*
X106093507Y-79798185D01*
X106092390Y-79790840D01*
X106085140Y-79731128D01*
X106081546Y-79721651D01*
X106075521Y-79700034D01*
X106075063Y-79697534D01*
X106073695Y-79690068D01*
X106056021Y-79650800D01*
X106049009Y-79635218D01*
X106046151Y-79628322D01*
X106024818Y-79572070D01*
X106019061Y-79563730D01*
X106008035Y-79544181D01*
X106003877Y-79534941D01*
X105966785Y-79487597D01*
X105962355Y-79481577D01*
X105928183Y-79432071D01*
X105883153Y-79392178D01*
X105877715Y-79387058D01*
X105359319Y-78868662D01*
X105332439Y-78828434D01*
X105323000Y-78780981D01*
X105323000Y-77569874D01*
X105323904Y-77554927D01*
X105328145Y-77519999D01*
X105325655Y-77499493D01*
X105307640Y-77351128D01*
X105247318Y-77192070D01*
X105150683Y-77052071D01*
X105023352Y-76939266D01*
X105005697Y-76930000D01*
X104872724Y-76860209D01*
X104748265Y-76829533D01*
X104707556Y-76819500D01*
X104537444Y-76819500D01*
X104476674Y-76834478D01*
X104420974Y-76835319D01*
X104370527Y-76811692D01*
X104335513Y-76768364D01*
X104323000Y-76714081D01*
X104323000Y-76407966D01*
X104332439Y-76360513D01*
X104359319Y-76320285D01*
X104520342Y-76159262D01*
X104764925Y-75914679D01*
X104764925Y-75914678D01*
X104972787Y-75706816D01*
X105013014Y-75679939D01*
X105060466Y-75670500D01*
X105427616Y-75670500D01*
X105471586Y-75678558D01*
X105509842Y-75701684D01*
X105602463Y-75783738D01*
X105621648Y-75800734D01*
X105772275Y-75879790D01*
X105937444Y-75920500D01*
X106107555Y-75920500D01*
X106107556Y-75920500D01*
X106272725Y-75879790D01*
X106423352Y-75800734D01*
X106550683Y-75687929D01*
X106647318Y-75547930D01*
X106707640Y-75388872D01*
X106728145Y-75220000D01*
X106707640Y-75051128D01*
X106647318Y-74892070D01*
X106575745Y-74788379D01*
X106550684Y-74752072D01*
X106535157Y-74738316D01*
X106423352Y-74639266D01*
X106409088Y-74631779D01*
X106272724Y-74560209D01*
X106148264Y-74529533D01*
X106107556Y-74519500D01*
X105937444Y-74519500D01*
X105904784Y-74527549D01*
X105772275Y-74560209D01*
X105621646Y-74639267D01*
X105509842Y-74738316D01*
X105471586Y-74761442D01*
X105427616Y-74769500D01*
X104854762Y-74769500D01*
X104840878Y-74768720D01*
X104805463Y-74764729D01*
X104749311Y-74775354D01*
X104744741Y-74776131D01*
X104682258Y-74785549D01*
X104677351Y-74787163D01*
X104621485Y-74816690D01*
X104617347Y-74818779D01*
X104560436Y-74846186D01*
X104556212Y-74849183D01*
X104511559Y-74893836D01*
X104508222Y-74897051D01*
X104461892Y-74940039D01*
X104450467Y-74954928D01*
X104134521Y-75270875D01*
X104134520Y-75270876D01*
X103576764Y-75828631D01*
X103566398Y-75837895D01*
X103538531Y-75860118D01*
X103506324Y-75907356D01*
X103503644Y-75911132D01*
X103466133Y-75961959D01*
X103463801Y-75966578D01*
X103445174Y-76026966D01*
X103443725Y-76031369D01*
X103422869Y-76090973D01*
X103422000Y-76096090D01*
X103422000Y-76159262D01*
X103421913Y-76163899D01*
X103419550Y-76227029D01*
X103422000Y-76245635D01*
X103422000Y-83618200D01*
X103416385Y-83655092D01*
X103400048Y-83688642D01*
X103397682Y-83692069D01*
X103337360Y-83851127D01*
X103316854Y-84019999D01*
X103331574Y-84141220D01*
X103337360Y-84188872D01*
X103351284Y-84225586D01*
X103353538Y-84231530D01*
X103360691Y-84290448D01*
X103339645Y-84345941D01*
X103295220Y-84385297D01*
X103237595Y-84399500D01*
X93724921Y-84399500D01*
X93717434Y-84399274D01*
X93657391Y-84395641D01*
X93598227Y-84406483D01*
X93590828Y-84407610D01*
X93531124Y-84414860D01*
X93521651Y-84418453D01*
X93500047Y-84424476D01*
X93490069Y-84426305D01*
X93435225Y-84450987D01*
X93428310Y-84453851D01*
X93372070Y-84475181D01*
X93363723Y-84480943D01*
X93344187Y-84491961D01*
X93334944Y-84496121D01*
X93300971Y-84522737D01*
X93237584Y-84548433D01*
X93170216Y-84536611D01*
X93119364Y-84490870D01*
X93100500Y-84425125D01*
X93100500Y-83724048D01*
X93100501Y-83724036D01*
X93100501Y-83486221D01*
X93091542Y-83435414D01*
X93090130Y-83424687D01*
X93087970Y-83400000D01*
X93085635Y-83373308D01*
X93072281Y-83323471D01*
X93069940Y-83312909D01*
X93069716Y-83311637D01*
X93060985Y-83262120D01*
X93043341Y-83213644D01*
X93040088Y-83203325D01*
X93026740Y-83153508D01*
X93026739Y-83153504D01*
X93004932Y-83106741D01*
X93000801Y-83096768D01*
X92983156Y-83048285D01*
X92983154Y-83048281D01*
X92967113Y-83020497D01*
X92950500Y-82958497D01*
X92950500Y-79974048D01*
X92950501Y-79974036D01*
X92950501Y-79736221D01*
X92942363Y-79690068D01*
X92941541Y-79685413D01*
X92940130Y-79674687D01*
X92935635Y-79623310D01*
X92935635Y-79623308D01*
X92922281Y-79573471D01*
X92919940Y-79562909D01*
X92915009Y-79534943D01*
X92910985Y-79512120D01*
X92893341Y-79463644D01*
X92890088Y-79453325D01*
X92876740Y-79403508D01*
X92876739Y-79403504D01*
X92854932Y-79356741D01*
X92850801Y-79346768D01*
X92833156Y-79298285D01*
X92809142Y-79256692D01*
X92807355Y-79253596D01*
X92802361Y-79244002D01*
X92780568Y-79197266D01*
X92750974Y-79155002D01*
X92745176Y-79145900D01*
X92719377Y-79101214D01*
X92686208Y-79061686D01*
X92679634Y-79053117D01*
X92650045Y-79010858D01*
X92482915Y-78843728D01*
X92482900Y-78843715D01*
X91736819Y-78097634D01*
X91709939Y-78057406D01*
X91700500Y-78009953D01*
X91700500Y-69729500D01*
X91717113Y-69667500D01*
X91762500Y-69622113D01*
X91824500Y-69605500D01*
X99576001Y-69605500D01*
X99591813Y-69603418D01*
X99655070Y-69595090D01*
X99717070Y-69578477D01*
X99790750Y-69547958D01*
X99854021Y-69499408D01*
X99899408Y-69454021D01*
X99947958Y-69390750D01*
X99978477Y-69317070D01*
X99995090Y-69255070D01*
X100005500Y-69176000D01*
X100005500Y-62124000D01*
X100001114Y-62090685D01*
X100011671Y-62022096D01*
X100057428Y-61969920D01*
X100124053Y-61950500D01*
X104664944Y-61950500D01*
X104707628Y-61950500D01*
X104792372Y-61950500D01*
X104835056Y-61950500D01*
X112865195Y-61950500D01*
X112912648Y-61959939D01*
X112952876Y-61986819D01*
X115693772Y-64727715D01*
X115698892Y-64733153D01*
X115738785Y-64778183D01*
X115738786Y-64778184D01*
X115788287Y-64812352D01*
X115794305Y-64816780D01*
X115841658Y-64853878D01*
X115850894Y-64858034D01*
X115870445Y-64869062D01*
X115878780Y-64874816D01*
X115878782Y-64874816D01*
X115878784Y-64874818D01*
X115935040Y-64896152D01*
X115941934Y-64899009D01*
X115996783Y-64923695D01*
X116006758Y-64925522D01*
X116028370Y-64931547D01*
X116037842Y-64935140D01*
X116097555Y-64942390D01*
X116104899Y-64943507D01*
X116164108Y-64954358D01*
X116220816Y-64950927D01*
X116224148Y-64950726D01*
X116231635Y-64950500D01*
X120598261Y-64950500D01*
X120642232Y-64958558D01*
X120680485Y-64981682D01*
X120704336Y-65002812D01*
X120709782Y-65007939D01*
X120722133Y-65020290D01*
X120733747Y-65029389D01*
X120735889Y-65031067D01*
X120741622Y-65035844D01*
X120786648Y-65075734D01*
X120795619Y-65080442D01*
X120814466Y-65092628D01*
X120822443Y-65098877D01*
X120877276Y-65123555D01*
X120884013Y-65126835D01*
X120937275Y-65154790D01*
X120947115Y-65157215D01*
X120968328Y-65164535D01*
X120977568Y-65168694D01*
X120991211Y-65171194D01*
X121036717Y-65179533D01*
X121044035Y-65181103D01*
X121102444Y-65195500D01*
X121112578Y-65195500D01*
X121134929Y-65197530D01*
X121144894Y-65199357D01*
X121204922Y-65195726D01*
X121212410Y-65195500D01*
X121272552Y-65195500D01*
X121272556Y-65195500D01*
X121282400Y-65193073D01*
X121304581Y-65189697D01*
X121314696Y-65189086D01*
X121372147Y-65171183D01*
X121379317Y-65169185D01*
X121437725Y-65154790D01*
X121446693Y-65150082D01*
X121467423Y-65141494D01*
X121477106Y-65138478D01*
X121528607Y-65107342D01*
X121535082Y-65103691D01*
X121588352Y-65075734D01*
X121595934Y-65069016D01*
X121614017Y-65055711D01*
X121622684Y-65050472D01*
X121665222Y-65007932D01*
X121670663Y-65002812D01*
X121694512Y-64981684D01*
X121715683Y-64962929D01*
X121721442Y-64954584D01*
X121735812Y-64937343D01*
X121742972Y-64930184D01*
X121774101Y-64878687D01*
X121778136Y-64872447D01*
X121812318Y-64822930D01*
X121815908Y-64813460D01*
X121825735Y-64793276D01*
X121830978Y-64784606D01*
X121848877Y-64727162D01*
X121851306Y-64720122D01*
X121872640Y-64663872D01*
X121873861Y-64653811D01*
X121878572Y-64631866D01*
X121881586Y-64622196D01*
X121885218Y-64562144D01*
X121885890Y-64554744D01*
X121893145Y-64495000D01*
X121891922Y-64484935D01*
X121891245Y-64462507D01*
X121891857Y-64452394D01*
X121881009Y-64393201D01*
X121879892Y-64385857D01*
X121872640Y-64326128D01*
X121872639Y-64326125D01*
X121869046Y-64316650D01*
X121863019Y-64295029D01*
X121861194Y-64285068D01*
X121836512Y-64230228D01*
X121833651Y-64223322D01*
X121812318Y-64167070D01*
X121806558Y-64158726D01*
X121795530Y-64139172D01*
X121791377Y-64129943D01*
X121754288Y-64082602D01*
X121749849Y-64076569D01*
X121715684Y-64027072D01*
X121709161Y-64021293D01*
X121670653Y-63987178D01*
X121665215Y-63982058D01*
X121455440Y-63772283D01*
X121450322Y-63766847D01*
X121410429Y-63721817D01*
X121360932Y-63687651D01*
X121354905Y-63683216D01*
X121307554Y-63646120D01*
X121298313Y-63641961D01*
X121278773Y-63630941D01*
X121270430Y-63625182D01*
X121270427Y-63625181D01*
X121270426Y-63625180D01*
X121214201Y-63603856D01*
X121207283Y-63600991D01*
X121152429Y-63576303D01*
X121142452Y-63574475D01*
X121120839Y-63568450D01*
X121111373Y-63564860D01*
X121051672Y-63557610D01*
X121044271Y-63556483D01*
X120985107Y-63545641D01*
X120925066Y-63549274D01*
X120917579Y-63549500D01*
X120282334Y-63549500D01*
X120226039Y-63535985D01*
X120182016Y-63498385D01*
X120159861Y-63444898D01*
X120163394Y-63399999D01*
X131894354Y-63399999D01*
X131898596Y-63434927D01*
X131899500Y-63449874D01*
X131899500Y-69575079D01*
X131899274Y-69582566D01*
X131895641Y-69642607D01*
X131906483Y-69701771D01*
X131907610Y-69709172D01*
X131914860Y-69768873D01*
X131918450Y-69778339D01*
X131924475Y-69799952D01*
X131926303Y-69809929D01*
X131950991Y-69864783D01*
X131953856Y-69871701D01*
X131975180Y-69927926D01*
X131975182Y-69927930D01*
X131980941Y-69936273D01*
X131991961Y-69955813D01*
X131996120Y-69965054D01*
X131996121Y-69965055D01*
X131996122Y-69965057D01*
X132010735Y-69983709D01*
X132033216Y-70012405D01*
X132037651Y-70018432D01*
X132071817Y-70067929D01*
X132116847Y-70107822D01*
X132122283Y-70112940D01*
X133687058Y-71677715D01*
X133692178Y-71683153D01*
X133732071Y-71728183D01*
X133732072Y-71728184D01*
X133781573Y-71762352D01*
X133787591Y-71766780D01*
X133834944Y-71803878D01*
X133844180Y-71808034D01*
X133863731Y-71819062D01*
X133872066Y-71824816D01*
X133872068Y-71824816D01*
X133872070Y-71824818D01*
X133928326Y-71846152D01*
X133935220Y-71849009D01*
X133990069Y-71873695D01*
X134000044Y-71875522D01*
X134021656Y-71881547D01*
X134031128Y-71885140D01*
X134090841Y-71892390D01*
X134098185Y-71893507D01*
X134157394Y-71904358D01*
X134214102Y-71900927D01*
X134217434Y-71900726D01*
X134224921Y-71900500D01*
X140458481Y-71900500D01*
X140505934Y-71909939D01*
X140546162Y-71936819D01*
X141063181Y-72453837D01*
X141090061Y-72494065D01*
X141099500Y-72541518D01*
X141099500Y-80575079D01*
X141099274Y-80582566D01*
X141095641Y-80642607D01*
X141106483Y-80701771D01*
X141107610Y-80709172D01*
X141114860Y-80768873D01*
X141118450Y-80778339D01*
X141124475Y-80799952D01*
X141126303Y-80809929D01*
X141150991Y-80864783D01*
X141153856Y-80871701D01*
X141175180Y-80927926D01*
X141175182Y-80927930D01*
X141180941Y-80936273D01*
X141191961Y-80955813D01*
X141196120Y-80965054D01*
X141233216Y-81012405D01*
X141237651Y-81018432D01*
X141271817Y-81067929D01*
X141316847Y-81107822D01*
X141322283Y-81112940D01*
X142447058Y-82237715D01*
X142452178Y-82243153D01*
X142485007Y-82280209D01*
X142492072Y-82288184D01*
X142541573Y-82322352D01*
X142547591Y-82326780D01*
X142594944Y-82363878D01*
X142604180Y-82368034D01*
X142623731Y-82379062D01*
X142632068Y-82384817D01*
X142632069Y-82384817D01*
X142632070Y-82384818D01*
X142669471Y-82399002D01*
X142711396Y-82425512D01*
X142739577Y-82466338D01*
X142749500Y-82514942D01*
X142749500Y-82654866D01*
X142752414Y-82679988D01*
X142797795Y-82782767D01*
X142877232Y-82862204D01*
X142877233Y-82862204D01*
X142877235Y-82862206D01*
X142980009Y-82907585D01*
X143005135Y-82910500D01*
X144794864Y-82910499D01*
X144794867Y-82910499D01*
X144807427Y-82909042D01*
X144819991Y-82907585D01*
X144922765Y-82862206D01*
X145002206Y-82782765D01*
X145047585Y-82679991D01*
X145050500Y-82654865D01*
X145050499Y-80865136D01*
X145050458Y-80864783D01*
X145047585Y-80840011D01*
X145047585Y-80840009D01*
X145002206Y-80737235D01*
X145002204Y-80737233D01*
X145002204Y-80737232D01*
X144922767Y-80657795D01*
X144888922Y-80642851D01*
X144819991Y-80612415D01*
X144794864Y-80609500D01*
X144066242Y-80609500D01*
X144007578Y-80594746D01*
X143962875Y-80553993D01*
X143942771Y-80496941D01*
X143952050Y-80437167D01*
X143988503Y-80388894D01*
X144043453Y-80363612D01*
X144216198Y-80331321D01*
X144415019Y-80254298D01*
X144596302Y-80142052D01*
X144753872Y-79998407D01*
X144882366Y-79828255D01*
X144882366Y-79828253D01*
X144882368Y-79828252D01*
X144930080Y-79732430D01*
X144977405Y-79637389D01*
X145035756Y-79432310D01*
X145055429Y-79220000D01*
X145035756Y-79007690D01*
X144977405Y-78802611D01*
X144958469Y-78764582D01*
X144882368Y-78611747D01*
X144753873Y-78441594D01*
X144596301Y-78297947D01*
X144415017Y-78185701D01*
X144216198Y-78108679D01*
X144216197Y-78108678D01*
X144006610Y-78069500D01*
X143793390Y-78069500D01*
X143653664Y-78095619D01*
X143583801Y-78108679D01*
X143384982Y-78185701D01*
X143203698Y-78297947D01*
X143046126Y-78441594D01*
X142917631Y-78611747D01*
X142822595Y-78802609D01*
X142764243Y-79007689D01*
X142747971Y-79183308D01*
X142734723Y-79220000D01*
X142747971Y-79256692D01*
X142764243Y-79432310D01*
X142822595Y-79637390D01*
X142917631Y-79828252D01*
X143046126Y-79998405D01*
X143046128Y-79998407D01*
X143203698Y-80142052D01*
X143384981Y-80254298D01*
X143583802Y-80331321D01*
X143756546Y-80363612D01*
X143811496Y-80388894D01*
X143847950Y-80437166D01*
X143857229Y-80496941D01*
X143837125Y-80553993D01*
X143792422Y-80594745D01*
X143733758Y-80609500D01*
X143005132Y-80609500D01*
X142980010Y-80612414D01*
X142934970Y-80632301D01*
X142886794Y-80642851D01*
X142838315Y-80633789D01*
X142797204Y-80606547D01*
X142536819Y-80346162D01*
X142509939Y-80305934D01*
X142500500Y-80258481D01*
X142500500Y-79268133D01*
X142513000Y-79220000D01*
X142500500Y-79171867D01*
X142500500Y-76930000D01*
X142878590Y-76930000D01*
X142925233Y-77083764D01*
X143022731Y-77266171D01*
X143153945Y-77426054D01*
X143313828Y-77557268D01*
X143496235Y-77654766D01*
X143650000Y-77701410D01*
X143650000Y-76930000D01*
X144150000Y-76930000D01*
X144150000Y-77701410D01*
X144303764Y-77654766D01*
X144486171Y-77557268D01*
X144646054Y-77426054D01*
X144777268Y-77266171D01*
X144874766Y-77083764D01*
X144921410Y-76930000D01*
X144150000Y-76930000D01*
X143650000Y-76930000D01*
X142878590Y-76930000D01*
X142500500Y-76930000D01*
X142500500Y-76430000D01*
X142878590Y-76430000D01*
X143650000Y-76430000D01*
X143650000Y-75658590D01*
X144150000Y-75658590D01*
X144150000Y-76430000D01*
X144921410Y-76430000D01*
X144874766Y-76276235D01*
X144777268Y-76093828D01*
X144646054Y-75933945D01*
X144486171Y-75802731D01*
X144303764Y-75705233D01*
X144150000Y-75658590D01*
X143650000Y-75658590D01*
X143496235Y-75705233D01*
X143313828Y-75802731D01*
X143153945Y-75933945D01*
X143022731Y-76093828D01*
X142925233Y-76276235D01*
X142878590Y-76430000D01*
X142500500Y-76430000D01*
X142500500Y-72224921D01*
X142500726Y-72217434D01*
X142500927Y-72214102D01*
X142504358Y-72157394D01*
X142503003Y-72150000D01*
X142878590Y-72150000D01*
X142925233Y-72303764D01*
X143022731Y-72486171D01*
X143153945Y-72646054D01*
X143313828Y-72777268D01*
X143496235Y-72874766D01*
X143650000Y-72921410D01*
X143650000Y-72150000D01*
X144150000Y-72150000D01*
X144150000Y-72921410D01*
X144303764Y-72874766D01*
X144486171Y-72777268D01*
X144646054Y-72646054D01*
X144777268Y-72486171D01*
X144874766Y-72303764D01*
X144921410Y-72150000D01*
X144150000Y-72150000D01*
X143650000Y-72150000D01*
X142878590Y-72150000D01*
X142503003Y-72150000D01*
X142493507Y-72098185D01*
X142492390Y-72090841D01*
X142485140Y-72031128D01*
X142481547Y-72021656D01*
X142475522Y-72000044D01*
X142473695Y-71990069D01*
X142449009Y-71935220D01*
X142446152Y-71928326D01*
X142424818Y-71872070D01*
X142419053Y-71863719D01*
X142408036Y-71844183D01*
X142403878Y-71834944D01*
X142366788Y-71787603D01*
X142362352Y-71781574D01*
X142352148Y-71766791D01*
X142328183Y-71732071D01*
X142283145Y-71692171D01*
X142277707Y-71687051D01*
X142240656Y-71650000D01*
X142878590Y-71650000D01*
X143650000Y-71650000D01*
X143650000Y-70878590D01*
X144150000Y-70878590D01*
X144150000Y-71650000D01*
X144921410Y-71650000D01*
X144874766Y-71496235D01*
X144777268Y-71313828D01*
X144646054Y-71153945D01*
X144486171Y-71022731D01*
X144303764Y-70925233D01*
X144150000Y-70878590D01*
X143650000Y-70878590D01*
X143496235Y-70925233D01*
X143313828Y-71022731D01*
X143153945Y-71153945D01*
X143022731Y-71313828D01*
X142925233Y-71496235D01*
X142878590Y-71650000D01*
X142240656Y-71650000D01*
X141312940Y-70722283D01*
X141307822Y-70716847D01*
X141267929Y-70671817D01*
X141218432Y-70637651D01*
X141212405Y-70633216D01*
X141165054Y-70596120D01*
X141155813Y-70591961D01*
X141136273Y-70580941D01*
X141127930Y-70575182D01*
X141127927Y-70575181D01*
X141127926Y-70575180D01*
X141071701Y-70553856D01*
X141064783Y-70550991D01*
X141009929Y-70526303D01*
X140999952Y-70524475D01*
X140978339Y-70518450D01*
X140968873Y-70514860D01*
X140909172Y-70507610D01*
X140901771Y-70506483D01*
X140842607Y-70495641D01*
X140782566Y-70499274D01*
X140775079Y-70499500D01*
X134541519Y-70499500D01*
X134494066Y-70490061D01*
X134453838Y-70463181D01*
X133336819Y-69346162D01*
X133309939Y-69305934D01*
X133300500Y-69258481D01*
X133300500Y-65368639D01*
X133316494Y-65307723D01*
X133360350Y-65262522D01*
X133420755Y-65244696D01*
X133482126Y-65258843D01*
X133487791Y-65261816D01*
X133487793Y-65261816D01*
X133487794Y-65261817D01*
X133652963Y-65302527D01*
X133823074Y-65302527D01*
X133823075Y-65302527D01*
X133988244Y-65261817D01*
X134138871Y-65182761D01*
X134266202Y-65069956D01*
X134362837Y-64929957D01*
X134368309Y-64915529D01*
X134394822Y-64873602D01*
X134435647Y-64845422D01*
X134484251Y-64835500D01*
X142816051Y-64835500D01*
X142871322Y-64848500D01*
X142915005Y-64884773D01*
X142917633Y-64888253D01*
X142917634Y-64888255D01*
X142964640Y-64950500D01*
X143040135Y-65050472D01*
X143046128Y-65058407D01*
X143203698Y-65202052D01*
X143384981Y-65314298D01*
X143583802Y-65391321D01*
X143780613Y-65428111D01*
X143841365Y-65458363D01*
X143877093Y-65516066D01*
X143877093Y-65583934D01*
X143841365Y-65641637D01*
X143780613Y-65671888D01*
X143650475Y-65696215D01*
X143583801Y-65708679D01*
X143384982Y-65785701D01*
X143203698Y-65897947D01*
X143046126Y-66041594D01*
X142917631Y-66211747D01*
X142822595Y-66402609D01*
X142764243Y-66607689D01*
X142744571Y-66820000D01*
X142764243Y-67032310D01*
X142822595Y-67237390D01*
X142917631Y-67428252D01*
X143046126Y-67598405D01*
X143046128Y-67598407D01*
X143203698Y-67742052D01*
X143384981Y-67854298D01*
X143583802Y-67931321D01*
X143780613Y-67968111D01*
X143841365Y-67998363D01*
X143877093Y-68056066D01*
X143877093Y-68123934D01*
X143841365Y-68181637D01*
X143780613Y-68211888D01*
X143650475Y-68236215D01*
X143583801Y-68248679D01*
X143384982Y-68325701D01*
X143203698Y-68437947D01*
X143046126Y-68581594D01*
X142917631Y-68751747D01*
X142822595Y-68942609D01*
X142764243Y-69147689D01*
X142744571Y-69360000D01*
X142764243Y-69572310D01*
X142822595Y-69777390D01*
X142917631Y-69968252D01*
X143026896Y-70112940D01*
X143046128Y-70138407D01*
X143203698Y-70282052D01*
X143384981Y-70394298D01*
X143583802Y-70471321D01*
X143793390Y-70510500D01*
X144006608Y-70510500D01*
X144006610Y-70510500D01*
X144216198Y-70471321D01*
X144415019Y-70394298D01*
X144596302Y-70282052D01*
X144753872Y-70138407D01*
X144882366Y-69968255D01*
X144882366Y-69968253D01*
X144882368Y-69968252D01*
X144933888Y-69864783D01*
X144977405Y-69777389D01*
X145035756Y-69572310D01*
X145055429Y-69360000D01*
X145035756Y-69147690D01*
X144977405Y-68942611D01*
X144977014Y-68941827D01*
X144882368Y-68751747D01*
X144753873Y-68581594D01*
X144596301Y-68437947D01*
X144415017Y-68325701D01*
X144216198Y-68248679D01*
X144019385Y-68211888D01*
X143958634Y-68181637D01*
X143922906Y-68123934D01*
X143922906Y-68056066D01*
X143958634Y-67998363D01*
X144019385Y-67968111D01*
X144216198Y-67931321D01*
X144415019Y-67854298D01*
X144596302Y-67742052D01*
X144753872Y-67598407D01*
X144882366Y-67428255D01*
X144882366Y-67428253D01*
X144882368Y-67428252D01*
X144930080Y-67332430D01*
X144977405Y-67237389D01*
X145035756Y-67032310D01*
X145055429Y-66820000D01*
X145035756Y-66607690D01*
X144977405Y-66402611D01*
X144962814Y-66373308D01*
X144882368Y-66211747D01*
X144753873Y-66041594D01*
X144596301Y-65897947D01*
X144415017Y-65785701D01*
X144216198Y-65708679D01*
X144216197Y-65708678D01*
X144019385Y-65671888D01*
X143958634Y-65641637D01*
X143922906Y-65583934D01*
X143922906Y-65516066D01*
X143958634Y-65458363D01*
X144019385Y-65428111D01*
X144216198Y-65391321D01*
X144415019Y-65314298D01*
X144596302Y-65202052D01*
X144753872Y-65058407D01*
X144882366Y-64888255D01*
X144882366Y-64888253D01*
X144882368Y-64888252D01*
X144930080Y-64792430D01*
X144977405Y-64697389D01*
X145035756Y-64492310D01*
X145055429Y-64280000D01*
X145035756Y-64067690D01*
X145031797Y-64053777D01*
X144999860Y-63941532D01*
X144977405Y-63862611D01*
X144962879Y-63833438D01*
X144882368Y-63671747D01*
X144753873Y-63501594D01*
X144731031Y-63480771D01*
X144596302Y-63357948D01*
X144596301Y-63357947D01*
X144415017Y-63245701D01*
X144216198Y-63168679D01*
X144216197Y-63168678D01*
X144043455Y-63136387D01*
X143988502Y-63111105D01*
X143952049Y-63062832D01*
X143942770Y-63003057D01*
X143962874Y-62946006D01*
X144007577Y-62905253D01*
X144066239Y-62890499D01*
X144794864Y-62890499D01*
X144794867Y-62890499D01*
X144807427Y-62889041D01*
X144819991Y-62887585D01*
X144922765Y-62842206D01*
X145002206Y-62762765D01*
X145047585Y-62659991D01*
X145050500Y-62634865D01*
X145050499Y-60845136D01*
X145047585Y-60820009D01*
X145002206Y-60717235D01*
X145002204Y-60717233D01*
X145002204Y-60717232D01*
X144922767Y-60637795D01*
X144922765Y-60637794D01*
X144819991Y-60592415D01*
X144794865Y-60589500D01*
X144794863Y-60589500D01*
X143005132Y-60589500D01*
X142980011Y-60592414D01*
X142877232Y-60637795D01*
X142797795Y-60717232D01*
X142752415Y-60820009D01*
X142749500Y-60845136D01*
X142749500Y-62634867D01*
X142752414Y-62659988D01*
X142797795Y-62762767D01*
X142877232Y-62842204D01*
X142877233Y-62842204D01*
X142877235Y-62842206D01*
X142980009Y-62887585D01*
X143005135Y-62890500D01*
X143733759Y-62890499D01*
X143792420Y-62905253D01*
X143837124Y-62946005D01*
X143857228Y-63003057D01*
X143847949Y-63062832D01*
X143811496Y-63111105D01*
X143756543Y-63136387D01*
X143583802Y-63168679D01*
X143536822Y-63186879D01*
X143384982Y-63245701D01*
X143203698Y-63357947D01*
X143046126Y-63501594D01*
X142910709Y-63680915D01*
X142908395Y-63679167D01*
X142874887Y-63715926D01*
X142809608Y-63734500D01*
X134066568Y-63734500D01*
X134062335Y-63734428D01*
X133998219Y-63732237D01*
X133958301Y-63741965D01*
X133945830Y-63744335D01*
X133905124Y-63749930D01*
X133888658Y-63757082D01*
X133868624Y-63763818D01*
X133851195Y-63768065D01*
X133815379Y-63788203D01*
X133804013Y-63793849D01*
X133766326Y-63810219D01*
X133752406Y-63821544D01*
X133734929Y-63833438D01*
X133719285Y-63842234D01*
X133690225Y-63871293D01*
X133680804Y-63879795D01*
X133676163Y-63883571D01*
X133627580Y-63907783D01*
X133487791Y-63942237D01*
X133482126Y-63945211D01*
X133420755Y-63959358D01*
X133360350Y-63941532D01*
X133316494Y-63896331D01*
X133300500Y-63835415D01*
X133300500Y-63449874D01*
X133301404Y-63434927D01*
X133305645Y-63399999D01*
X133298095Y-63337819D01*
X133285140Y-63231128D01*
X133224818Y-63072070D01*
X133128183Y-62932071D01*
X133000852Y-62819266D01*
X132986588Y-62811780D01*
X132850224Y-62740209D01*
X132725764Y-62709533D01*
X132685056Y-62699500D01*
X132514944Y-62699500D01*
X132482284Y-62707549D01*
X132349775Y-62740209D01*
X132199149Y-62819265D01*
X132071815Y-62932072D01*
X131975182Y-63072069D01*
X131914860Y-63231127D01*
X131894354Y-63399999D01*
X120163394Y-63399999D01*
X120164403Y-63387182D01*
X120194653Y-63337819D01*
X120289704Y-63242767D01*
X120289703Y-63242767D01*
X120289706Y-63242765D01*
X120335085Y-63139991D01*
X120338000Y-63114865D01*
X120337999Y-61325136D01*
X120335085Y-61300009D01*
X120289706Y-61197235D01*
X120289704Y-61197233D01*
X120289704Y-61197232D01*
X120210267Y-61117795D01*
X120189621Y-61108679D01*
X120107491Y-61072415D01*
X120082365Y-61069500D01*
X120082363Y-61069500D01*
X118292632Y-61069500D01*
X118267511Y-61072414D01*
X118164732Y-61117795D01*
X118085295Y-61197232D01*
X118039915Y-61300009D01*
X118037000Y-61325136D01*
X118037000Y-62063950D01*
X118021329Y-62124289D01*
X117978277Y-62169377D01*
X117918726Y-62187818D01*
X117857728Y-62174950D01*
X117810700Y-62134026D01*
X117789529Y-62075390D01*
X117788822Y-62067765D01*
X117783256Y-62007690D01*
X117776209Y-61982924D01*
X117737244Y-61845979D01*
X117724905Y-61802611D01*
X117684529Y-61721524D01*
X117629868Y-61611747D01*
X117501373Y-61441594D01*
X117343801Y-61297947D01*
X117209955Y-61215073D01*
X117162519Y-61185702D01*
X117162517Y-61185701D01*
X116963698Y-61108679D01*
X116963697Y-61108678D01*
X116754110Y-61069500D01*
X116540890Y-61069500D01*
X116401164Y-61095619D01*
X116331301Y-61108679D01*
X116132482Y-61185701D01*
X115951198Y-61297947D01*
X115793626Y-61441594D01*
X115665131Y-61611747D01*
X115570095Y-61802609D01*
X115511743Y-62007689D01*
X115492071Y-62220000D01*
X115493544Y-62235901D01*
X115484413Y-62295323D01*
X115448404Y-62343466D01*
X115393982Y-62369013D01*
X115333940Y-62365959D01*
X115282392Y-62335021D01*
X113719654Y-60772283D01*
X113714536Y-60766847D01*
X113674643Y-60721817D01*
X113625146Y-60687651D01*
X113619119Y-60683216D01*
X113571768Y-60646120D01*
X113562527Y-60641961D01*
X113542987Y-60630941D01*
X113534644Y-60625182D01*
X113534641Y-60625181D01*
X113534640Y-60625180D01*
X113478415Y-60603856D01*
X113471497Y-60600991D01*
X113416643Y-60576303D01*
X113406666Y-60574475D01*
X113385053Y-60568450D01*
X113375587Y-60564860D01*
X113315886Y-60557610D01*
X113308485Y-60556483D01*
X113249321Y-60545641D01*
X113189280Y-60549274D01*
X113181793Y-60549500D01*
X96664944Y-60549500D01*
X96630779Y-60557920D01*
X96616057Y-60560617D01*
X96581130Y-60564858D01*
X96548227Y-60577336D01*
X96533940Y-60581788D01*
X96499773Y-60590210D01*
X96468613Y-60606563D01*
X96454966Y-60612705D01*
X96422068Y-60625182D01*
X96393108Y-60645171D01*
X96380301Y-60652913D01*
X96349148Y-60669264D01*
X96322807Y-60692599D01*
X96311028Y-60701827D01*
X96282069Y-60721817D01*
X96258737Y-60748153D01*
X96248153Y-60758737D01*
X96221817Y-60782069D01*
X96201827Y-60811028D01*
X96192599Y-60822807D01*
X96169264Y-60849148D01*
X96152913Y-60880301D01*
X96145171Y-60893108D01*
X96125182Y-60922068D01*
X96112705Y-60954966D01*
X96106563Y-60968613D01*
X96090210Y-60999773D01*
X96081788Y-61033940D01*
X96077336Y-61048227D01*
X96064858Y-61081130D01*
X96060617Y-61116057D01*
X96057920Y-61130779D01*
X96049500Y-61164944D01*
X96049500Y-61200126D01*
X96048596Y-61215073D01*
X96044354Y-61250000D01*
X96048596Y-61284927D01*
X96049500Y-61299874D01*
X96049500Y-61335059D01*
X96057919Y-61369220D01*
X96060617Y-61383942D01*
X96064858Y-61418867D01*
X96077337Y-61451772D01*
X96081785Y-61466048D01*
X96090210Y-61500225D01*
X96090210Y-61500226D01*
X96090211Y-61500227D01*
X96096850Y-61512877D01*
X96110995Y-61574248D01*
X96093168Y-61634651D01*
X96047967Y-61678506D01*
X95987052Y-61694500D01*
X91423999Y-61694500D01*
X91344933Y-61704909D01*
X91282924Y-61721524D01*
X91209252Y-61752040D01*
X91145973Y-61800596D01*
X91100596Y-61845973D01*
X91052040Y-61909252D01*
X91021524Y-61982924D01*
X91004909Y-62044933D01*
X90994500Y-62123999D01*
X90994500Y-64120389D01*
X90982882Y-64172793D01*
X90950206Y-64215378D01*
X90920558Y-64240255D01*
X89399953Y-65760860D01*
X89370360Y-65803122D01*
X89363778Y-65811700D01*
X89330624Y-65851212D01*
X89304824Y-65895897D01*
X89299015Y-65905015D01*
X89269430Y-65947268D01*
X89247630Y-65994015D01*
X89242639Y-66003603D01*
X89216842Y-66048286D01*
X89199198Y-66096763D01*
X89195060Y-66106755D01*
X89173259Y-66153507D01*
X89159906Y-66203339D01*
X89156655Y-66213650D01*
X89139016Y-66262116D01*
X89130056Y-66312923D01*
X89127716Y-66323477D01*
X89114365Y-66373307D01*
X89109868Y-66424696D01*
X89108456Y-66435415D01*
X89099499Y-66486217D01*
X89099499Y-66724036D01*
X89099500Y-66724048D01*
X89099500Y-78475952D01*
X89099499Y-78475964D01*
X89099499Y-78713781D01*
X82500500Y-78713781D01*
X82500500Y-62067764D01*
X84645787Y-62067764D01*
X84675413Y-62337016D01*
X84709998Y-62469304D01*
X84743928Y-62599088D01*
X84813484Y-62762767D01*
X84849871Y-62848392D01*
X84990982Y-63079611D01*
X85164253Y-63287818D01*
X85164255Y-63287820D01*
X85365998Y-63468582D01*
X85591910Y-63618044D01*
X85633070Y-63637339D01*
X85837177Y-63733021D01*
X86093777Y-63810220D01*
X86096569Y-63811060D01*
X86364561Y-63850500D01*
X86567631Y-63850500D01*
X86567634Y-63850500D01*
X86770156Y-63835677D01*
X86780207Y-63833438D01*
X87034553Y-63776780D01*
X87287558Y-63680014D01*
X87523777Y-63547441D01*
X87738177Y-63381888D01*
X87926186Y-63186881D01*
X88083799Y-62966579D01*
X88207656Y-62725675D01*
X88295118Y-62469305D01*
X88344319Y-62202933D01*
X88354212Y-61932235D01*
X88324586Y-61662982D01*
X88256072Y-61400912D01*
X88150130Y-61151610D01*
X88034401Y-60961981D01*
X88009017Y-60920388D01*
X87835746Y-60712181D01*
X87730758Y-60618112D01*
X87634002Y-60531418D01*
X87408090Y-60381956D01*
X87408086Y-60381954D01*
X87162822Y-60266978D01*
X86903437Y-60188941D01*
X86903431Y-60188940D01*
X86635439Y-60149500D01*
X86432369Y-60149500D01*
X86432366Y-60149500D01*
X86229843Y-60164322D01*
X85965449Y-60223219D01*
X85712441Y-60319986D01*
X85476223Y-60452559D01*
X85261825Y-60618109D01*
X85073813Y-60813120D01*
X84916201Y-61033420D01*
X84792342Y-61274329D01*
X84704881Y-61530695D01*
X84655680Y-61797066D01*
X84645787Y-62067764D01*
X82500500Y-62067764D01*
X82500500Y-60004065D01*
X82500765Y-59995956D01*
X82505954Y-59916781D01*
X82505979Y-59916401D01*
X82506004Y-59916046D01*
X82518709Y-59738407D01*
X82520771Y-59723099D01*
X82542955Y-59611573D01*
X82543364Y-59609606D01*
X82573788Y-59469749D01*
X82577519Y-59456305D01*
X82616243Y-59342230D01*
X82617404Y-59338967D01*
X82665068Y-59211177D01*
X82670017Y-59199713D01*
X82724481Y-59089272D01*
X82726777Y-59084851D01*
X82790855Y-58967501D01*
X82796562Y-58958075D01*
X82865639Y-58854694D01*
X82869425Y-58849344D01*
X82948850Y-58743246D01*
X82954823Y-58735878D01*
X83037161Y-58641989D01*
X83042648Y-58636131D01*
X83136131Y-58542648D01*
X83141989Y-58537161D01*
X83235878Y-58454823D01*
X83243246Y-58448850D01*
X83349344Y-58369425D01*
X83354694Y-58365639D01*
X83458075Y-58296562D01*
X83467501Y-58290855D01*
X83584851Y-58226777D01*
X83589272Y-58224481D01*
X83699713Y-58170017D01*
X83711177Y-58165068D01*
X83838967Y-58117404D01*
X83842230Y-58116243D01*
X83956305Y-58077519D01*
X83969749Y-58073788D01*
X84109606Y-58043364D01*
X84111573Y-58042955D01*
X84223099Y-58020771D01*
X84238407Y-58018709D01*
X84416193Y-58005992D01*
X84495957Y-58000764D01*
X84504065Y-58000500D01*
X144995935Y-58000500D01*
X145004042Y-58000764D01*
G37*
%TD.AperFunction*%
%TD*%
M02*
