%TF.GenerationSoftware,KiCad,Pcbnew,7.0.1*%
%TF.CreationDate,2024-02-17T21:50:19+01:00*%
%TF.ProjectId,BallBalancer,42616c6c-4261-46c6-916e-6365722e6b69,rev?*%
%TF.SameCoordinates,Original*%
%TF.FileFunction,Soldermask,Top*%
%TF.FilePolarity,Negative*%
%FSLAX46Y46*%
G04 Gerber Fmt 4.6, Leading zero omitted, Abs format (unit mm)*
G04 Created by KiCad (PCBNEW 7.0.1) date 2024-02-17 21:50:19*
%MOMM*%
%LPD*%
G01*
G04 APERTURE LIST*
G04 Aperture macros list*
%AMRoundRect*
0 Rectangle with rounded corners*
0 $1 Rounding radius*
0 $2 $3 $4 $5 $6 $7 $8 $9 X,Y pos of 4 corners*
0 Add a 4 corners polygon primitive as box body*
4,1,4,$2,$3,$4,$5,$6,$7,$8,$9,$2,$3,0*
0 Add four circle primitives for the rounded corners*
1,1,$1+$1,$2,$3*
1,1,$1+$1,$4,$5*
1,1,$1+$1,$6,$7*
1,1,$1+$1,$8,$9*
0 Add four rect primitives between the rounded corners*
20,1,$1+$1,$2,$3,$4,$5,0*
20,1,$1+$1,$4,$5,$6,$7,0*
20,1,$1+$1,$6,$7,$8,$9,0*
20,1,$1+$1,$8,$9,$2,$3,0*%
G04 Aperture macros list end*
%ADD10RoundRect,0.225000X-0.250000X0.225000X-0.250000X-0.225000X0.250000X-0.225000X0.250000X0.225000X0*%
%ADD11RoundRect,0.225000X0.225000X0.250000X-0.225000X0.250000X-0.225000X-0.250000X0.225000X-0.250000X0*%
%ADD12RoundRect,0.218750X0.218750X0.256250X-0.218750X0.256250X-0.218750X-0.256250X0.218750X-0.256250X0*%
%ADD13R,1.700000X1.700000*%
%ADD14O,1.700000X1.700000*%
%ADD15RoundRect,0.225000X-0.225000X-0.250000X0.225000X-0.250000X0.225000X0.250000X-0.225000X0.250000X0*%
%ADD16RoundRect,0.200000X-0.200000X-0.275000X0.200000X-0.275000X0.200000X0.275000X-0.200000X0.275000X0*%
%ADD17C,1.000000*%
%ADD18RoundRect,0.125000X0.625000X0.125000X-0.625000X0.125000X-0.625000X-0.125000X0.625000X-0.125000X0*%
%ADD19RoundRect,0.125000X0.125000X0.625000X-0.125000X0.625000X-0.125000X-0.625000X0.125000X-0.625000X0*%
%ADD20RoundRect,0.150000X-0.150000X-0.200000X0.150000X-0.200000X0.150000X0.200000X-0.150000X0.200000X0*%
%ADD21RoundRect,0.150000X-0.512500X-0.150000X0.512500X-0.150000X0.512500X0.150000X-0.512500X0.150000X0*%
%ADD22RoundRect,0.200000X0.200000X0.275000X-0.200000X0.275000X-0.200000X-0.275000X0.200000X-0.275000X0*%
%ADD23RoundRect,0.200000X0.275000X-0.200000X0.275000X0.200000X-0.275000X0.200000X-0.275000X-0.200000X0*%
%ADD24RoundRect,0.250000X1.000000X-1.500000X1.000000X1.500000X-1.000000X1.500000X-1.000000X-1.500000X0*%
%ADD25RoundRect,0.250000X-1.000000X1.500000X-1.000000X-1.500000X1.000000X-1.500000X1.000000X1.500000X0*%
%ADD26R,1.680000X1.880000*%
%ADD27RoundRect,0.075000X-0.650000X-0.075000X0.650000X-0.075000X0.650000X0.075000X-0.650000X0.075000X0*%
%ADD28RoundRect,0.250000X-0.325000X-1.100000X0.325000X-1.100000X0.325000X1.100000X-0.325000X1.100000X0*%
%ADD29RoundRect,0.250000X0.350000X-0.850000X0.350000X0.850000X-0.350000X0.850000X-0.350000X-0.850000X0*%
%ADD30RoundRect,0.249997X2.650003X-2.950003X2.650003X2.950003X-2.650003X2.950003X-2.650003X-2.950003X0*%
%ADD31RoundRect,0.150000X0.512500X0.150000X-0.512500X0.150000X-0.512500X-0.150000X0.512500X-0.150000X0*%
%ADD32RoundRect,0.250000X0.475000X-0.250000X0.475000X0.250000X-0.475000X0.250000X-0.475000X-0.250000X0*%
%ADD33RoundRect,0.200000X-0.275000X0.200000X-0.275000X-0.200000X0.275000X-0.200000X0.275000X0.200000X0*%
%ADD34C,3.200000*%
%ADD35RoundRect,0.250000X-0.350000X0.850000X-0.350000X-0.850000X0.350000X-0.850000X0.350000X0.850000X0*%
%ADD36RoundRect,0.249997X-2.650003X2.950003X-2.650003X-2.950003X2.650003X-2.950003X2.650003X2.950003X0*%
%ADD37RoundRect,0.250000X-0.475000X0.250000X-0.475000X-0.250000X0.475000X-0.250000X0.475000X0.250000X0*%
%ADD38RoundRect,0.075000X0.650000X0.075000X-0.650000X0.075000X-0.650000X-0.075000X0.650000X-0.075000X0*%
%ADD39RoundRect,0.225000X0.250000X-0.225000X0.250000X0.225000X-0.250000X0.225000X-0.250000X-0.225000X0*%
%ADD40RoundRect,0.218750X-0.218750X-0.381250X0.218750X-0.381250X0.218750X0.381250X-0.218750X0.381250X0*%
%ADD41R,1.500000X2.000000*%
%ADD42R,3.800000X2.000000*%
%ADD43O,3.500000X2.000000*%
%ADD44O,2.000000X3.300000*%
%ADD45R,2.000000X4.000000*%
%ADD46C,1.600000*%
%ADD47RoundRect,0.250000X0.325000X1.100000X-0.325000X1.100000X-0.325000X-1.100000X0.325000X-1.100000X0*%
%ADD48RoundRect,0.250000X-0.250000X-0.475000X0.250000X-0.475000X0.250000X0.475000X-0.250000X0.475000X0*%
%ADD49R,1.700000X2.000000*%
%ADD50R,2.000000X0.500000*%
G04 APERTURE END LIST*
D10*
%TO.C,C1*%
X128200000Y-90225000D03*
X128200000Y-91775000D03*
%TD*%
D11*
%TO.C,C3*%
X126700000Y-88700000D03*
X128250000Y-88700000D03*
%TD*%
D12*
%TO.C,D1*%
X137187500Y-94100000D03*
X135612500Y-94100000D03*
%TD*%
D13*
%TO.C,J4*%
X143900000Y-130900000D03*
D14*
X143900000Y-128360000D03*
X143900000Y-125820000D03*
%TD*%
D13*
%TO.C,J7*%
X143900000Y-81760000D03*
D14*
X143900000Y-79220000D03*
X143900000Y-76680000D03*
%TD*%
D15*
%TO.C,C31*%
X105411451Y-113805292D03*
X106961451Y-113805292D03*
%TD*%
D16*
%TO.C,R5*%
X95575000Y-91300000D03*
X97225000Y-91300000D03*
%TD*%
D17*
%TO.C,TP2*%
X138200000Y-98450000D03*
%TD*%
D18*
%TO.C,U9*%
X123445000Y-93005000D03*
X123445000Y-92205000D03*
X123445000Y-91405000D03*
X123445000Y-90605000D03*
X123445000Y-89805000D03*
X123445000Y-89005000D03*
X123445000Y-88205000D03*
X123445000Y-87405000D03*
D19*
X122070000Y-86030000D03*
X121270000Y-86030000D03*
X120470000Y-86030000D03*
X119670000Y-86030000D03*
X118870000Y-86030000D03*
X118070000Y-86030000D03*
X117270000Y-86030000D03*
X116470000Y-86030000D03*
D18*
X115095000Y-87405000D03*
X115095000Y-88205000D03*
X115095000Y-89005000D03*
X115095000Y-89805000D03*
X115095000Y-90605000D03*
X115095000Y-91405000D03*
X115095000Y-92205000D03*
X115095000Y-93005000D03*
D19*
X116470000Y-94380000D03*
X117270000Y-94380000D03*
X118070000Y-94380000D03*
X118870000Y-94380000D03*
X119670000Y-94380000D03*
X120470000Y-94380000D03*
X121270000Y-94380000D03*
X122070000Y-94380000D03*
%TD*%
D17*
%TO.C,TP17*%
X99850000Y-112700000D03*
%TD*%
D20*
%TO.C,D6*%
X136800000Y-64100000D03*
X135400000Y-64100000D03*
%TD*%
D11*
%TO.C,C32*%
X123462500Y-79120000D03*
X121912500Y-79120000D03*
%TD*%
D21*
%TO.C,U6*%
X110462500Y-99850000D03*
X110462500Y-100800000D03*
X110462500Y-101750000D03*
X112737500Y-101750000D03*
X112737500Y-100800000D03*
X112737500Y-99850000D03*
%TD*%
D22*
%TO.C,R17*%
X110512500Y-84320000D03*
X108862500Y-84320000D03*
%TD*%
D11*
%TO.C,C34*%
X123462500Y-77520000D03*
X121912500Y-77520000D03*
%TD*%
D13*
%TO.C,J5*%
X143900000Y-110740000D03*
D14*
X143900000Y-113280000D03*
X143900000Y-115820000D03*
X143900000Y-118360000D03*
X143900000Y-120900000D03*
%TD*%
D12*
%TO.C,D2*%
X137187500Y-92500000D03*
X135612500Y-92500000D03*
%TD*%
D23*
%TO.C,R22*%
X109986451Y-115530292D03*
X109986451Y-113880292D03*
%TD*%
D17*
%TO.C,TP1*%
X139600000Y-95400000D03*
%TD*%
D20*
%TO.C,D3*%
X136700000Y-114900000D03*
X135300000Y-114900000D03*
%TD*%
D17*
%TO.C,TP22*%
X130150000Y-81900000D03*
%TD*%
D24*
%TO.C,C36*%
X133000000Y-126650000D03*
X133000000Y-120150000D03*
%TD*%
D15*
%TO.C,C13*%
X121411451Y-113805292D03*
X122961451Y-113805292D03*
%TD*%
D13*
%TO.C,J9*%
X89410000Y-113640000D03*
%TD*%
D17*
%TO.C,TP19*%
X128250000Y-77900000D03*
%TD*%
D22*
%TO.C,R27*%
X126512500Y-84320000D03*
X124862500Y-84320000D03*
%TD*%
D25*
%TO.C,C15*%
X101500000Y-97850000D03*
X101500000Y-104350000D03*
%TD*%
D15*
%TO.C,C11*%
X121411451Y-115405292D03*
X122961451Y-115405292D03*
%TD*%
D17*
%TO.C,TP4*%
X140930000Y-121320000D03*
%TD*%
D15*
%TO.C,C33*%
X105411451Y-115405292D03*
X106961451Y-115405292D03*
%TD*%
D26*
%TO.C,U4*%
X108387500Y-81720000D03*
D27*
X110537500Y-80720000D03*
X110537500Y-81220000D03*
X110537500Y-81720000D03*
X110537500Y-82220000D03*
X110537500Y-82720000D03*
X106237500Y-82720000D03*
X106237500Y-82220000D03*
X106237500Y-81720000D03*
X106237500Y-81220000D03*
X106237500Y-80720000D03*
%TD*%
D22*
%TO.C,R12*%
X140625000Y-67620000D03*
X138975000Y-67620000D03*
%TD*%
D28*
%TO.C,C27*%
X118211451Y-129205292D03*
X121161451Y-129205292D03*
%TD*%
D29*
%TO.C,Q4*%
X110407500Y-75260000D03*
D30*
X112687500Y-68960000D03*
D29*
X114967500Y-75260000D03*
%TD*%
D28*
%TO.C,C24*%
X102211451Y-129205292D03*
X105161451Y-129205292D03*
%TD*%
D16*
%TO.C,R2*%
X132375000Y-92500000D03*
X134025000Y-92500000D03*
%TD*%
D17*
%TO.C,TP6*%
X138500000Y-65820000D03*
%TD*%
D31*
%TO.C,U2*%
X97537500Y-88100000D03*
X97537500Y-87150000D03*
X97537500Y-86200000D03*
X95262500Y-86200000D03*
X95262500Y-87150000D03*
X95262500Y-88100000D03*
%TD*%
D32*
%TO.C,C20*%
X104187500Y-82670000D03*
X104187500Y-80770000D03*
%TD*%
D11*
%TO.C,C8*%
X137375000Y-67620000D03*
X135825000Y-67620000D03*
%TD*%
D33*
%TO.C,R23*%
X102486451Y-113880292D03*
X102486451Y-115530292D03*
%TD*%
D15*
%TO.C,C26*%
X112325000Y-104800000D03*
X113875000Y-104800000D03*
%TD*%
D34*
%TO.C,H2*%
X136000000Y-103500000D03*
%TD*%
D29*
%TO.C,Q8*%
X126407500Y-75260000D03*
D30*
X128687500Y-68960000D03*
D29*
X130967500Y-75260000D03*
%TD*%
D35*
%TO.C,Q6*%
X102466451Y-117665292D03*
D36*
X100186451Y-123965292D03*
D35*
X97906451Y-117665292D03*
%TD*%
D16*
%TO.C,R14*%
X139475000Y-75835000D03*
X141125000Y-75835000D03*
%TD*%
D34*
%TO.C,H3*%
X86500000Y-62000000D03*
%TD*%
D37*
%TO.C,C19*%
X124686451Y-110255292D03*
X124686451Y-112155292D03*
%TD*%
D35*
%TO.C,Q5*%
X109966451Y-117665292D03*
D36*
X107686451Y-123965292D03*
D35*
X105406451Y-117665292D03*
%TD*%
D16*
%TO.C,R6*%
X95575000Y-92900000D03*
X97225000Y-92900000D03*
%TD*%
D17*
%TO.C,TP24*%
X121150000Y-105700000D03*
%TD*%
D29*
%TO.C,Q7*%
X118907500Y-75260000D03*
D30*
X121187500Y-68960000D03*
D29*
X123467500Y-75260000D03*
%TD*%
D23*
%TO.C,R25*%
X126387500Y-79045000D03*
X126387500Y-77395000D03*
%TD*%
D20*
%TO.C,D5*%
X136800000Y-66100000D03*
X135400000Y-66100000D03*
%TD*%
D11*
%TO.C,C22*%
X114375000Y-98000000D03*
X112825000Y-98000000D03*
%TD*%
D15*
%TO.C,C7*%
X139525000Y-125020000D03*
X141075000Y-125020000D03*
%TD*%
D26*
%TO.C,U8*%
X124387500Y-81720000D03*
D27*
X126537500Y-80720000D03*
X126537500Y-81220000D03*
X126537500Y-81720000D03*
X126537500Y-82220000D03*
X126537500Y-82720000D03*
X122237500Y-82720000D03*
X122237500Y-82220000D03*
X122237500Y-81720000D03*
X122237500Y-81220000D03*
X122237500Y-80720000D03*
%TD*%
D17*
%TO.C,TP5*%
X141100000Y-113000000D03*
%TD*%
D35*
%TO.C,Q2*%
X118466451Y-117665292D03*
D36*
X116186451Y-123965292D03*
D35*
X113906451Y-117665292D03*
%TD*%
D34*
%TO.C,H1*%
X86500000Y-131000000D03*
%TD*%
D26*
%TO.C,U7*%
X104486451Y-111205292D03*
D38*
X102336451Y-112205292D03*
X102336451Y-111705292D03*
X102336451Y-111205292D03*
X102336451Y-110705292D03*
X102336451Y-110205292D03*
X106636451Y-110205292D03*
X106636451Y-110705292D03*
X106636451Y-111205292D03*
X106636451Y-111705292D03*
X106636451Y-112205292D03*
%TD*%
D33*
%TO.C,R20*%
X102887500Y-77395000D03*
X102887500Y-79045000D03*
%TD*%
D17*
%TO.C,TP25*%
X98000000Y-108050000D03*
%TD*%
D16*
%TO.C,R1*%
X132375000Y-94100000D03*
X134025000Y-94100000D03*
%TD*%
D25*
%TO.C,C35*%
X95500000Y-67300000D03*
X95500000Y-73800000D03*
%TD*%
D33*
%TO.C,R3*%
X126700000Y-90175000D03*
X126700000Y-91825000D03*
%TD*%
D23*
%TO.C,R10*%
X141100000Y-128270000D03*
X141100000Y-126620000D03*
%TD*%
D17*
%TO.C,TP13*%
X112250000Y-77750000D03*
%TD*%
D12*
%TO.C,D7*%
X108487500Y-101500000D03*
X106912500Y-101500000D03*
%TD*%
D39*
%TO.C,C18*%
X101000000Y-90275000D03*
X101000000Y-88725000D03*
%TD*%
D13*
%TO.C,J3*%
X126390000Y-103190000D03*
D14*
X123850000Y-103190000D03*
X126390000Y-100650000D03*
X123850000Y-100650000D03*
%TD*%
D39*
%TO.C,C2*%
X126600000Y-95575000D03*
X126600000Y-94025000D03*
%TD*%
D40*
%TO.C,L1*%
X114537500Y-100800000D03*
X116662500Y-100800000D03*
%TD*%
D22*
%TO.C,R8*%
X140475000Y-116500000D03*
X138825000Y-116500000D03*
%TD*%
D39*
%TO.C,C21*%
X110200000Y-90275000D03*
X110200000Y-88725000D03*
%TD*%
D32*
%TO.C,C30*%
X120187500Y-82670000D03*
X120187500Y-80770000D03*
%TD*%
D17*
%TO.C,TP20*%
X114800000Y-108800000D03*
%TD*%
D41*
%TO.C,U5*%
X103300000Y-92700000D03*
X105600000Y-92700000D03*
D42*
X105600000Y-86400000D03*
D41*
X107900000Y-92700000D03*
%TD*%
D17*
%TO.C,TP9*%
X141200000Y-84600000D03*
%TD*%
D13*
%TO.C,M1*%
X109686451Y-130705292D03*
D14*
X112226451Y-130705292D03*
%TD*%
D13*
%TO.C,J6*%
X143900000Y-61740000D03*
D14*
X143900000Y-64280000D03*
X143900000Y-66820000D03*
X143900000Y-69360000D03*
X143900000Y-71900000D03*
%TD*%
D15*
%TO.C,C4*%
X111450000Y-87100000D03*
X113000000Y-87100000D03*
%TD*%
D17*
%TO.C,TP7*%
X135900000Y-74300000D03*
%TD*%
%TO.C,TP12*%
X100500000Y-75950000D03*
%TD*%
%TO.C,TP18*%
X116850000Y-80700000D03*
%TD*%
D23*
%TO.C,R21*%
X110387500Y-79045000D03*
X110387500Y-77395000D03*
%TD*%
D17*
%TO.C,TP16*%
X112150000Y-112200000D03*
%TD*%
%TO.C,TP15*%
X110350000Y-96450000D03*
%TD*%
%TO.C,TP11*%
X116650000Y-114600000D03*
%TD*%
D20*
%TO.C,D4*%
X136700000Y-112700000D03*
X135300000Y-112700000D03*
%TD*%
D23*
%TO.C,R9*%
X139500000Y-128245000D03*
X139500000Y-126595000D03*
%TD*%
%TO.C,R13*%
X139475000Y-79060000D03*
X139475000Y-77410000D03*
%TD*%
D13*
%TO.C,M2*%
X119187500Y-62220000D03*
D14*
X116647500Y-62220000D03*
%TD*%
D43*
%TO.C,J8*%
X88000000Y-104600000D03*
X88000000Y-95600000D03*
D44*
X89000000Y-100100000D03*
D45*
X95000000Y-100100000D03*
D46*
X86000000Y-100100000D03*
%TD*%
D47*
%TO.C,C28*%
X126662500Y-63720000D03*
X123712500Y-63720000D03*
%TD*%
D11*
%TO.C,C5*%
X137400000Y-116500000D03*
X135850000Y-116500000D03*
%TD*%
D48*
%TO.C,C17*%
X108950000Y-105050000D03*
X110850000Y-105050000D03*
%TD*%
D12*
%TO.C,D8*%
X108487500Y-99900000D03*
X106912500Y-99900000D03*
%TD*%
D33*
%TO.C,R19*%
X118486451Y-113880292D03*
X118486451Y-115530292D03*
%TD*%
D11*
%TO.C,C6*%
X137375000Y-111190000D03*
X135825000Y-111190000D03*
%TD*%
D16*
%TO.C,R4*%
X123375000Y-94800000D03*
X125025000Y-94800000D03*
%TD*%
D17*
%TO.C,TP8*%
X141000000Y-64400000D03*
%TD*%
%TO.C,TP23*%
X98200000Y-111100000D03*
%TD*%
D16*
%TO.C,R16*%
X118361451Y-108605292D03*
X120011451Y-108605292D03*
%TD*%
D17*
%TO.C,TP26*%
X112850000Y-83150000D03*
%TD*%
D22*
%TO.C,R11*%
X140425000Y-111190000D03*
X138775000Y-111190000D03*
%TD*%
D37*
%TO.C,C29*%
X108686451Y-110255292D03*
X108686451Y-112155292D03*
%TD*%
D15*
%TO.C,C16*%
X109325000Y-103300000D03*
X110875000Y-103300000D03*
%TD*%
D17*
%TO.C,TP3*%
X138400000Y-114700000D03*
%TD*%
D23*
%TO.C,R18*%
X125986451Y-115530292D03*
X125986451Y-113880292D03*
%TD*%
D11*
%TO.C,C9*%
X137350000Y-62620000D03*
X135800000Y-62620000D03*
%TD*%
D16*
%TO.C,R26*%
X102361451Y-108605292D03*
X104011451Y-108605292D03*
%TD*%
D49*
%TO.C,J1*%
X85650000Y-92050000D03*
X91100000Y-92050000D03*
X85650000Y-83150000D03*
X91100000Y-83150000D03*
D50*
X91200000Y-89200000D03*
X91200000Y-88400000D03*
X91200000Y-87600000D03*
X91200000Y-86800000D03*
X91200000Y-86000000D03*
D17*
X88500000Y-89800000D03*
X88500000Y-85400000D03*
%TD*%
D15*
%TO.C,C23*%
X112325000Y-103300000D03*
X113875000Y-103300000D03*
%TD*%
D17*
%TO.C,TP14*%
X141250000Y-87700000D03*
%TD*%
%TO.C,TP10*%
X128350000Y-117650000D03*
%TD*%
D22*
%TO.C,R15*%
X140450000Y-62620000D03*
X138800000Y-62620000D03*
%TD*%
D17*
%TO.C,TP27*%
X112600000Y-80300000D03*
%TD*%
%TO.C,TP21*%
X128700000Y-80000000D03*
%TD*%
D11*
%TO.C,C14*%
X107462500Y-79120000D03*
X105912500Y-79120000D03*
%TD*%
%TO.C,C12*%
X107462500Y-77520000D03*
X105912500Y-77520000D03*
%TD*%
D13*
%TO.C,J2*%
X144100000Y-93080000D03*
D14*
X144100000Y-95620000D03*
X144100000Y-98160000D03*
%TD*%
D39*
%TO.C,C10*%
X141100000Y-79010000D03*
X141100000Y-77460000D03*
%TD*%
D26*
%TO.C,U3*%
X120486451Y-111205292D03*
D38*
X118336451Y-112205292D03*
X118336451Y-111705292D03*
X118336451Y-111205292D03*
X118336451Y-110705292D03*
X118336451Y-110205292D03*
X122636451Y-110205292D03*
X122636451Y-110705292D03*
X122636451Y-111205292D03*
X122636451Y-111705292D03*
X122636451Y-112205292D03*
%TD*%
D35*
%TO.C,Q1*%
X125966451Y-117665292D03*
D36*
X123686451Y-123965292D03*
D35*
X121406451Y-117665292D03*
%TD*%
D47*
%TO.C,C25*%
X110662500Y-63720000D03*
X107712500Y-63720000D03*
%TD*%
D29*
%TO.C,Q3*%
X102907500Y-75260000D03*
D30*
X105187500Y-68960000D03*
D29*
X107467500Y-75260000D03*
%TD*%
D33*
%TO.C,R24*%
X118887500Y-77395000D03*
X118887500Y-79045000D03*
%TD*%
M02*
